<svg width="281" height="57" viewBox="0 0 281 57" fill="none" xmlns="http://www.w3.org/2000/svg">
<path d="M17.189 23.6929L28.1027 12.7461L39.0209 23.7018L45.3676 17.3288L28.1027 0L10.8379 17.3243L17.189 23.6929Z" fill="white"/>
<path d="M0 28.1941L6.34883 21.8234L12.6977 28.1941L6.34883 34.5648L0 28.1941Z" fill="white"/>
<path d="M17.1862 32.6935L28.0999 43.6448L39.018 32.6891L45.3692 39.0532L45.3647 39.0577L28.0999 56.3864L10.835 39.0666L10.8262 39.0577L17.1862 32.6935Z" fill="white"/>
<path d="M43.4941 28.1956L49.843 21.8249L56.1918 28.1956L49.843 34.5663L43.4941 28.1956Z" fill="white"/>
<path d="M34.5411 28.1912L28.1011 21.7246L23.3389 26.5033L22.7885 27.0511L21.6612 28.1823L21.6523 28.1912L21.6612 28.2045L28.1011 34.6622L34.5411 28.1956L34.5455 28.1912H34.5411Z" fill="white"/>
<path d="M66.0957 13.6631H79.9076C83.3339 13.6631 85.9259 14.5538 87.6834 16.3352C88.3456 16.9933 88.8676 17.7794 89.2178 18.6461C89.568 19.5127 89.739 20.4417 89.7206 21.3766V21.4613C89.7325 22.2272 89.6262 22.9904 89.4055 23.7237C89.2088 24.3549 88.9234 24.9548 88.5578 25.5051C88.2169 26.024 87.8045 26.4918 87.3328 26.8946C86.8719 27.2926 86.3671 27.6363 85.8282 27.9189C87.3823 28.4621 88.7798 29.3796 89.8981 30.591C90.8864 31.7193 91.3805 33.278 91.3805 35.2673V35.3519C91.4086 36.5942 91.1392 37.8252 90.5949 38.9414C90.0676 39.9699 89.2944 40.8512 88.3447 41.5067C87.271 42.229 86.0755 42.7496 84.8163 43.0432C83.3203 43.3991 81.7867 43.5711 80.2493 43.5553H66.0957V13.6631ZM78.5228 25.75C79.7178 25.808 80.907 25.55 81.9714 25.0018C82.3865 24.7585 82.7254 24.4035 82.9497 23.9769C83.174 23.5503 83.2748 23.0691 83.2407 22.588V22.5034C83.2627 22.0601 83.173 21.6183 82.9798 21.219C82.7866 20.8197 82.4963 20.4757 82.1356 20.2187C81.3988 19.6932 80.3351 19.4304 78.9445 19.4304H72.4824V25.75H78.5228ZM80.2671 37.7969C81.4576 37.8638 82.6426 37.5905 83.6845 37.0086C84.0904 36.7469 84.419 36.3808 84.636 35.9485C84.853 35.5161 84.9505 35.0333 84.9184 34.5502V34.4656C84.9344 34.0065 84.8379 33.5504 84.6375 33.1374C84.4371 32.7243 84.1389 32.3669 83.7689 32.0963C83.0055 31.5025 81.7717 31.2056 80.0674 31.2056H72.4824V37.7969H80.2671Z" fill="white"/>
<path d="M99.6094 13.6631H106.165V43.5642H99.6094V13.6631Z" fill="white"/>
<path d="M116.082 13.6631H122.127L136.099 32.0652V13.6631H142.57V43.5642H136.991L122.562 24.5565V43.5642H116.082V13.6631Z" fill="white"/>
<path d="M162.42 13.4495H168.456L181.225 43.5644H174.381L171.656 36.8573H159.056L156.331 43.5644H149.646L162.42 13.4495ZM169.317 31.0499L165.349 21.3501L161.399 31.0499H169.317Z" fill="white"/>
<path d="M188.312 13.6631H194.357L208.32 32.0652V13.6631H214.791V43.5642H209.212L194.783 24.5565V43.5642H188.312V13.6631Z" fill="white"/>
<path d="M238.386 44.0898C236.296 44.1077 234.225 43.7018 232.296 42.8963C230.48 42.1439 228.833 41.0344 227.451 39.6331C226.069 38.2319 224.981 36.5673 224.25 34.7374C223.479 32.8233 223.088 30.7763 223.1 28.7117V28.6271C223.066 24.5575 224.626 20.6374 227.445 17.7114C228.832 16.2822 230.493 15.1491 232.327 14.3802C234.323 13.5508 236.465 13.1371 238.625 13.1643C239.903 13.1548 241.178 13.2696 242.433 13.5073C243.507 13.7111 244.557 14.026 245.567 14.447C246.483 14.8338 247.353 15.3207 248.163 15.8988C248.953 16.4627 249.696 17.0913 250.382 17.7782L246.215 22.6059C245.15 21.62 243.955 20.7854 242.664 20.1252C241.396 19.5167 240.004 19.2118 238.599 19.2345C237.429 19.222 236.27 19.4594 235.199 19.9308C234.127 20.4023 233.168 21.0971 232.385 21.969C231.608 22.8387 231 23.8461 230.592 24.9395C230.164 26.095 229.949 27.3188 229.957 28.5514V28.636C229.953 29.8668 230.168 31.0884 230.592 32.2434C230.995 33.3407 231.597 34.3538 232.367 35.2317C233.144 36.1145 234.101 36.8195 235.173 37.2989C236.245 37.7784 237.407 38.0211 238.581 38.0107C240.075 38.058 241.558 37.7352 242.899 37.071C244.176 36.3729 245.356 35.5106 246.41 34.5058L250.582 38.7366C249.845 39.5389 249.049 40.2834 248.199 40.9634C247.363 41.6259 246.457 42.1921 245.496 42.6513C244.471 43.1351 243.392 43.4925 242.282 43.7157C241 43.9738 239.694 44.0991 238.386 44.0898Z" fill="white"/>
<path d="M258.318 13.6631H280.745V19.5151H264.767V25.5808H278.836V31.4328H264.789V37.7123H280.967V43.5642H258.332L258.318 13.6631Z" fill="white"/>
</svg>
