<svg xmlns="http://www.w3.org/2000/svg" width="25" height="25" viewBox="0 0 25 25" fill="none">
  <path d="M21.9688 9.00759C21.9688 12.1823 19.6315 14.8019 16.5932 15.2596V15.2012C16.2913 11.4227 13.2237 8.35511 9.41593 8.05322H9.38672C9.84442 5.01484 12.4641 2.67762 15.6388 2.67762C19.1349 2.67762 21.9688 5.5115 21.9688 9.00759Z" fill="white"/>
  <path d="M15.5174 15.318C15.2739 12.231 12.8004 9.7574 9.71332 9.51394C9.54776 9.5042 9.37247 9.49446 9.20692 9.49446C5.71083 9.49446 2.87695 12.3283 2.87695 15.8244C2.87695 19.3205 5.71083 22.1544 9.20692 22.1544C12.703 22.1544 15.5369 19.3205 15.5369 15.8244C15.5369 15.6589 15.5271 15.4836 15.5174 15.318ZM10.0639 16.6814L9.20692 18.259L8.34994 16.6814L6.77232 15.8244L8.34994 14.9675L9.20692 13.3898L10.0639 14.9675L11.6415 15.8244L10.0639 16.6814Z" fill="white"/>
</svg>