<svg xmlns="http://www.w3.org/2000/svg" width="24" height="24" viewBox="0 0 24 24" fill="none">
  <g clip-path="url(#clip0_3167_3356)">
    <path d="M7.4871 13.9489C8.13346 13.9489 8.75822 13.9072 9.34943 13.8295V7.34933C8.75828 7.27167 8.13346 7.22992 7.4871 7.22992C3.79651 7.22992 0.804688 8.58684 0.804688 10.2607V10.918C0.804688 12.5919 3.79651 13.9489 7.4871 13.9489Z" fill="white"/>
    <path d="M7.4871 17.3326C8.13346 17.3326 8.75822 17.2909 9.34943 17.2133V15.3138C8.75811 15.3915 8.13363 15.4338 7.4871 15.4338C4.26562 15.4338 1.57681 14.3998 0.94523 13.0237C0.853253 13.2242 0.804688 13.4317 0.804688 13.6445V14.3018C0.804688 15.9757 3.79651 17.3326 7.4871 17.3326Z" fill="white"/>
    <path d="M9.34943 18.8452V18.6975C8.75811 18.7752 8.13363 18.8175 7.4871 18.8175C4.26562 18.8175 1.57681 17.7836 0.94523 16.4075C0.853253 16.6078 0.804688 16.8154 0.804688 17.0282V17.6855C0.804688 19.3594 3.79651 20.7163 7.4871 20.7163C8.22515 20.7163 8.93502 20.6619 9.59884 20.5617C9.43431 20.2251 9.34943 19.8702 9.34943 19.5024V18.8452Z" fill="white"/>
    <path d="M17.1219 2.09669C13.4313 2.09669 10.4395 3.45361 10.4395 5.12753V5.78483C10.4395 7.45874 13.4313 8.81566 17.1219 8.81566C20.8124 8.81566 23.8043 7.45874 23.8043 5.78483V5.12753C23.8043 3.45361 20.8124 2.09669 17.1219 2.09669Z" fill="white"/>
    <path d="M17.1219 10.3006C13.9004 10.3006 11.2116 9.26666 10.58 7.89049C10.488 8.09088 10.4395 8.29843 10.4395 8.51125V9.16855C10.4395 10.8425 13.4313 12.1994 17.1219 12.1994C20.8124 12.1994 23.8043 10.8425 23.8043 9.16855V8.51125C23.8043 8.29843 23.7557 8.09088 23.6637 7.89049C23.0322 9.26666 20.3433 10.3006 17.1219 10.3006Z" fill="white"/>
    <path d="M17.1219 13.6844C13.9004 13.6844 11.2116 12.6505 10.58 11.2743C10.488 11.4747 10.4395 11.6823 10.4395 11.8951V12.5524C10.4395 14.2264 13.4313 15.5833 17.1219 15.5833C20.8124 15.5833 23.8043 14.2264 23.8043 12.5524V11.8951C23.8043 11.6823 23.7557 11.4747 23.6637 11.2743C23.0322 12.6505 20.3433 13.6844 17.1219 13.6844Z" fill="white"/>
    <path d="M17.1219 17.2508C13.9004 17.2508 11.2116 16.2168 10.58 14.8407C10.488 15.0411 10.4395 15.2486 10.4395 15.4614V16.1188C10.4395 17.7927 13.4313 19.1496 17.1219 19.1496C20.8124 19.1496 23.8043 17.7927 23.8043 16.1188V15.4614C23.8043 15.2486 23.7557 15.041 23.6637 14.8407C23.0322 16.2167 20.3433 17.2508 17.1219 17.2508Z" fill="white"/>
    <path d="M17.1219 20.6345C13.9004 20.6345 11.2116 19.6006 10.58 18.2245C10.488 18.4249 10.4395 18.6325 10.4395 18.8452V19.5025C10.4395 21.1764 13.4313 22.5333 17.1219 22.5333C20.8124 22.5333 23.8043 21.1764 23.8043 19.5025V18.8451C23.8043 18.6324 23.7557 18.4248 23.6637 18.2244C23.0322 19.6005 20.3433 20.6345 17.1219 20.6345Z" fill="white"/>
  </g>
  <defs>
    <clipPath id="clip0_3167_3356">
      <rect width="23" height="23" fill="white" transform="translate(0.804688 0.815079)"/>
    </clipPath>
  </defs>
</svg>