<svg xmlns="http://www.w3.org/2000/svg" width="24" height="24" viewBox="0 0 24 24" fill="none">
  <g clip-path="url(#clip0_3167_3371)">
    <path fill-rule="evenodd" clip-rule="evenodd" d="M12.4677 1.51755L12.9838 2.87684C12.9993 2.91772 13.0354 2.94396 13.0791 2.94607L14.5313 3.01687C14.6301 3.02167 14.6705 3.14611 14.5934 3.20805L13.4601 4.11893C13.4261 4.14634 13.4123 4.18879 13.4237 4.23092L13.8052 5.63397C13.8311 5.72938 13.7253 5.80629 13.6426 5.75211L12.426 4.95578C12.3895 4.93184 12.3449 4.93184 12.3082 4.95578L11.0918 5.75211C11.009 5.80624 10.9032 5.72938 10.9291 5.63397L11.3106 4.23092C11.322 4.18879 11.3082 4.14629 11.2742 4.11893L10.1409 3.20805C10.0638 3.14611 10.1042 3.02167 10.203 3.01687L11.6553 2.94607C11.6989 2.94396 11.735 2.91772 11.7505 2.87684L12.2666 1.51755C12.3016 1.42569 12.4328 1.42569 12.4677 1.51755ZM12.3672 7.82804C13.7817 7.82804 14.9284 8.97472 14.9284 10.3892C14.9284 11.8037 13.7817 12.9504 12.3672 12.9504C10.9527 12.9504 9.80605 11.8037 9.80605 10.3892C9.80605 8.97472 10.9527 7.82804 12.3672 7.82804ZM7.80281 17.9202L16.9316 17.9202C17.1892 17.9202 17.3797 17.6863 17.3275 17.434C16.8511 15.1309 14.8114 13.3997 12.3672 13.3997C9.92294 13.3997 7.88317 15.1309 7.40682 17.434C7.35466 17.6863 7.54522 17.9202 7.80281 17.9202ZM12.3672 23.0111C12.9535 23.0111 13.4446 22.6031 13.5719 22.0554C15.6295 21.7862 17.4732 20.8368 18.8698 19.4403C19.6292 18.6808 20.2564 17.789 20.714 16.8025C21.4541 16.9015 22.1162 16.3279 22.1162 15.5768C22.1162 15.0938 21.8394 14.6756 21.4357 14.472C21.5196 13.973 21.5633 13.4604 21.5633 12.9377C21.5633 12.7392 21.4024 12.5783 21.2039 12.5783C21.0054 12.5783 20.8445 12.7392 20.8445 12.9377C20.8445 13.4187 20.8044 13.8903 20.7275 14.3494C20.1162 14.4243 19.6427 14.9452 19.6427 15.5768C19.6427 15.9457 19.8043 16.2767 20.0604 16.5033C19.6387 17.4116 19.061 18.2327 18.3616 18.9321C17.0847 20.209 15.4023 21.0803 13.5241 21.3366C13.3473 20.8697 12.8961 20.5377 12.3672 20.5377C11.8383 20.5377 11.387 20.8697 11.2102 21.3366C9.33204 21.0803 7.64962 20.209 6.37276 18.9321C5.68519 18.2445 5.11527 17.4393 4.69552 16.5492C4.98324 16.3228 5.168 15.9713 5.168 15.5768C5.168 14.9187 4.65405 14.3808 4.00569 14.3423C3.92951 13.8854 3.8898 13.4162 3.8898 12.9377C3.8898 12.7392 3.72889 12.5783 3.53042 12.5783C3.33196 12.5783 3.17105 12.7392 3.17105 12.9377C3.17105 13.4738 3.21709 13.9991 3.30514 14.5101C2.93974 14.725 2.69447 15.1222 2.69447 15.5768C2.69447 16.2598 3.24818 16.8135 3.93121 16.8135C3.96235 16.8135 3.99321 16.8124 4.0238 16.8101C4.48106 17.7936 5.10695 18.6827 5.86452 19.4402C7.26109 20.8368 9.10482 21.7861 11.1624 22.0554C11.2898 22.603 11.7808 23.0111 12.3672 23.0111ZM22.4893 7.41966L21.5702 8.54625C21.5426 8.58013 21.5379 8.62451 21.5579 8.66337L22.2227 9.95644C22.2679 10.0444 22.1804 10.1416 22.0882 10.1059L20.7327 9.57982C20.692 9.564 20.6483 9.5733 20.6175 9.6043L19.5932 10.6362C19.5235 10.7063 19.404 10.6531 19.4095 10.5544L19.4909 9.1027C19.4934 9.05908 19.471 9.0204 19.432 9.00073L18.1342 8.34541C18.0459 8.30085 18.0595 8.17075 18.1552 8.14551L19.561 7.77432C19.6032 7.76318 19.6331 7.72998 19.6398 7.68681L19.8619 6.24994C19.877 6.15223 20.005 6.12501 20.0586 6.20816L20.846 7.43044C20.8697 7.46719 20.9105 7.48533 20.9536 7.47833L22.3888 7.24563C22.4859 7.22982 22.5515 7.34352 22.4893 7.41966ZM2.34552 7.24554L3.78073 7.47824C3.82385 7.48525 3.86464 7.4671 3.88831 7.43035L4.67575 6.20807C4.7293 6.12492 4.85728 6.15214 4.87237 6.24985L5.09456 7.68672C5.10125 7.72993 5.13112 7.76309 5.17335 7.77423L6.57913 8.14537C6.67477 8.17062 6.68843 8.30071 6.60016 8.34527L5.30227 9.00064C5.26328 9.02032 5.24096 9.05899 5.24338 9.10261L5.32478 10.5543C5.33031 10.653 5.21081 10.7062 5.14114 10.6361L4.11679 9.60421C4.08601 9.57321 4.04235 9.56391 4.00161 9.57973L2.64613 10.1058C2.55395 10.1415 2.4664 10.0443 2.51164 9.95635L3.17644 8.66328C3.19643 8.62442 3.19176 8.57999 3.16413 8.54612L2.24498 7.41952C2.18286 7.34347 2.24849 7.22977 2.34552 7.24554Z" fill="white"/>
  </g>
  <defs>
    <clipPath id="clip0_3167_3371">
      <rect width="23" height="23" fill="white" transform="translate(0.867188 0.729889)"/>
    </clipPath>
  </defs>
</svg>