<svg xmlns="http://www.w3.org/2000/svg" width="25" height="26" viewBox="0 0 25 26" fill="none">
  <path fill-rule="evenodd" clip-rule="evenodd" d="M0.0820312 5.72266C0.0820312 4.4004 0.6017 3.13229 1.52672 2.19731C2.45173 1.26233 3.70633 0.737061 5.0145 0.737061H19.8119C21.1201 0.737061 22.3747 1.26233 23.2997 2.19731C24.2247 3.13229 24.7444 4.4004 24.7444 5.72266V20.6795C24.7444 22.0017 24.2247 23.2698 23.2997 24.2048C22.3747 25.1398 21.1201 25.6651 19.8119 25.6651H5.0145C3.70633 25.6651 2.45173 25.1398 1.52672 24.2048C0.6017 23.2698 0.0820313 22.0017 0.0820312 20.6795V5.72266ZM5.0145 3.22986C4.36041 3.22986 3.73311 3.49249 3.27061 3.95998C2.8081 4.42748 2.54826 5.06153 2.54826 5.72266V20.6795C2.54826 21.3406 2.8081 21.9746 3.27061 22.4421C3.73311 22.9096 4.36041 23.1723 5.0145 23.1723H19.8119C20.466 23.1723 21.0933 22.9096 21.5558 22.4421C22.0183 21.9746 22.2781 21.3406 22.2781 20.6795V5.72266C22.2781 5.06153 22.0183 4.42748 21.5558 3.95998C21.0933 3.49249 20.466 3.22986 19.8119 3.22986H5.0145ZM12.4132 9.46186C11.4321 9.46186 10.4911 9.85581 9.79736 10.557C9.1036 11.2583 8.71385 12.2094 8.71385 13.2011C8.71385 14.1928 9.1036 15.1438 9.79736 15.8451C10.4911 16.5463 11.4321 16.9403 12.4132 16.9403C13.3943 16.9403 14.3353 16.5463 15.029 15.8451C15.7228 15.1438 16.1125 14.1928 16.1125 13.2011C16.1125 12.2094 15.7228 11.2583 15.029 10.557C14.3353 9.85581 13.3943 9.46186 12.4132 9.46186ZM6.24761 13.2011C6.24761 11.5482 6.8972 9.9631 8.05347 8.79437C9.20974 7.62564 10.778 6.96906 12.4132 6.96906C14.0484 6.96906 15.6166 7.62564 16.7729 8.79437C17.9292 9.9631 18.5788 11.5482 18.5788 13.2011C18.5788 14.8539 17.9292 16.439 16.7729 17.6077C15.6166 18.7765 14.0484 19.4331 12.4132 19.4331C10.778 19.4331 9.20974 18.7765 8.05347 17.6077C6.8972 16.439 6.24761 14.8539 6.24761 13.2011ZM19.1953 8.21546C19.6859 8.21546 20.1564 8.01849 20.5033 7.66787C20.8501 7.31725 21.045 6.84171 21.045 6.34586C21.045 5.85001 20.8501 5.37447 20.5033 5.02385C20.1564 4.67324 19.6859 4.47626 19.1953 4.47626C18.7048 4.47626 18.2343 4.67324 17.8874 5.02385C17.5405 5.37447 17.3457 5.85001 17.3457 6.34586C17.3457 6.84171 17.5405 7.31725 17.8874 7.66787C18.2343 8.01849 18.7048 8.21546 19.1953 8.21546Z" fill="white"/>
</svg>