<svg xmlns="http://www.w3.org/2000/svg" width="30" height="24" viewBox="0 0 30 24" fill="none">
  <path d="M27.296 3.56826L29.6237 1.39671V0.921387H21.5599L15.8129 14.8705L9.27465 0.921387H0.819475V1.39671L3.5386 4.58885C3.80358 4.82473 3.94215 5.16967 3.9069 5.51697V18.0615C3.99077 18.5131 3.84005 18.9778 3.51429 19.3061L0.451172 22.9261V23.3955H9.13608V22.9202L6.07296 19.3061C5.74113 18.9766 5.58432 18.5202 5.65118 18.0615V7.21083L13.2749 23.4015H14.161L20.7164 7.21083V20.1086C20.7164 20.4488 20.7164 20.5187 20.4878 20.7416L18.1297 22.9664V23.443H29.5702V22.9676L27.2972 20.7973C27.0979 20.6503 26.9945 20.4037 27.0371 20.1643V4.20124C26.9945 3.96061 27.0966 3.71406 27.296 3.56826Z" fill="white"/>
</svg>