<svg width="25" height="24" viewBox="0 0 25 24" fill="none" xmlns="http://www.w3.org/2000/svg">
<g clip-path="url(#clip0_11591_3916)">
<path d="M12.4068 15.0419L12.5983 14.9345C12.6354 14.9146 12.6681 14.8872 12.6945 14.854C12.7208 14.8208 12.7403 14.7825 12.7516 14.7414C12.7629 14.7003 12.7659 14.6574 12.7603 14.6151C12.7548 14.5728 12.7408 14.5321 12.7193 14.4955L12.1894 13.6033C12.1432 13.5287 12.0707 13.475 11.9868 13.4531C11.9028 13.4313 11.8138 13.443 11.7381 13.4858L11.5444 13.5944C11.4854 13.6262 11.4186 13.6402 11.3519 13.6346C11.2853 13.6291 11.2216 13.6043 11.1684 13.5632C10.9776 13.4208 10.7698 13.3035 10.5501 13.2141C10.4887 13.1917 10.4353 13.151 10.3969 13.0973C10.3585 13.0436 10.3369 12.9794 10.3349 12.913V12.6977C10.3328 12.6109 10.2971 12.5284 10.2355 12.4682C10.1739 12.408 10.0914 12.3751 10.006 12.3766H8.94623C8.86083 12.3751 8.77831 12.408 8.71669 12.4682C8.65507 12.5284 8.61936 12.6109 8.61734 12.6977V12.913C8.61531 12.9794 8.5937 13.0436 8.55531 13.0973C8.51692 13.151 8.46354 13.1917 8.40211 13.2141C8.18237 13.3035 7.97462 13.4208 7.7838 13.5632C7.73058 13.6043 7.6669 13.6291 7.60027 13.6346C7.53364 13.6402 7.46685 13.6262 7.40777 13.5944L7.2141 13.4858C7.13837 13.443 7.04939 13.4313 6.96544 13.4531C6.8815 13.475 6.80898 13.5287 6.76279 13.6033L6.23292 14.4955C6.2114 14.5321 6.19743 14.5728 6.19188 14.6151C6.18633 14.6574 6.1893 14.7003 6.20062 14.7414C6.21194 14.7825 6.23136 14.8208 6.25771 14.854C6.28406 14.8872 6.31678 14.9146 6.35388 14.9345L6.54536 15.0419C6.6005 15.071 6.6456 15.1166 6.67465 15.1724C6.70371 15.2283 6.71533 15.2918 6.70798 15.3546C6.67338 15.5984 6.67338 15.846 6.70798 16.0898C6.71533 16.1526 6.70371 16.2161 6.67465 16.272C6.6456 16.3278 6.6005 16.3734 6.54536 16.4025L6.35388 16.5099C6.31678 16.5298 6.28406 16.5572 6.25771 16.5904C6.23136 16.6236 6.21194 16.6619 6.20062 16.703C6.1893 16.744 6.18633 16.787 6.19188 16.8293C6.19743 16.8716 6.2114 16.9123 6.23292 16.9489L6.76279 17.8411C6.80898 17.9157 6.8815 17.9694 6.96544 17.9913C7.04939 18.0131 7.13837 18.0014 7.2141 17.9586L7.40777 17.85C7.46685 17.8182 7.53364 17.8042 7.60027 17.8098C7.6669 17.8153 7.73058 17.8401 7.7838 17.8812C7.97462 18.0236 8.18237 18.1409 8.40211 18.2303C8.46354 18.2527 8.51692 18.2934 8.55531 18.3471C8.5937 18.4008 8.61531 18.465 8.61734 18.5314V18.7466C8.61936 18.8335 8.65507 18.916 8.71669 18.9762C8.77831 19.0364 8.86083 19.0693 8.94623 19.0678H10.006C10.0914 19.0693 10.1739 19.0364 10.2355 18.9762C10.2971 18.916 10.3328 18.8335 10.3349 18.7466V18.5314C10.3369 18.465 10.3585 18.4008 10.3969 18.3471C10.4353 18.2934 10.4887 18.2527 10.5501 18.2303C10.7698 18.1409 10.9776 18.0236 11.1684 17.8812C11.2216 17.8401 11.2853 17.8153 11.3519 17.8098C11.4186 17.8042 11.4854 17.8182 11.5444 17.85L11.7381 17.9586C11.8138 18.0014 11.9028 18.0131 11.9868 17.9913C12.0707 17.9694 12.1432 17.9157 12.1894 17.8411L12.7193 16.9489C12.7408 16.9123 12.7548 16.8716 12.7603 16.8293C12.7659 16.787 12.7629 16.744 12.7516 16.703C12.7403 16.6619 12.7208 16.6236 12.6945 16.5904C12.6681 16.5572 12.6354 16.5298 12.5983 16.5099L12.4068 16.4025C12.3517 16.3734 12.3066 16.3278 12.2776 16.272C12.2485 16.2161 12.2369 16.1526 12.2442 16.0898C12.2788 15.846 12.2788 15.5984 12.2442 15.3546C12.2369 15.2918 12.2485 15.2283 12.2776 15.1724C12.3066 15.1166 12.3517 15.071 12.4068 15.0419ZM9.47464 17.0233C9.22168 17.0233 8.9744 16.947 8.76407 16.804C8.55373 16.661 8.3898 16.4578 8.293 16.2201C8.19619 15.9824 8.17086 15.7208 8.22021 15.4684C8.26956 15.216 8.39138 14.9842 8.57025 14.8022C8.74912 14.6202 8.97702 14.4963 9.22512 14.4461C9.47322 14.3959 9.73039 14.4217 9.96409 14.5202C10.1978 14.6186 10.3976 14.7854 10.5381 14.9994C10.6786 15.2133 10.7536 15.4649 10.7536 15.7222C10.7536 16.0673 10.6189 16.3982 10.379 16.6422C10.1392 16.8862 9.81385 17.0233 9.47464 17.0233ZM9.15599 6.05705H8.33158C8.26514 6.05585 8.20095 6.08145 8.15301 6.12826C8.10508 6.17507 8.07731 6.23928 8.07578 6.30685V6.47451C8.07419 6.52607 8.05737 6.57595 8.02752 6.61766C7.99767 6.65936 7.95616 6.69096 7.90841 6.70833C7.73755 6.7779 7.57598 6.86907 7.42751 6.9797C7.38613 7.01167 7.33664 7.03096 7.28485 7.0353C7.23306 7.03965 7.18113 7.02887 7.13516 7.00423L6.98461 6.91948C6.92568 6.88625 6.85648 6.87725 6.79123 6.89433C6.72598 6.91141 6.66964 6.95326 6.63379 7.01129L6.22159 7.70496C6.20482 7.73345 6.19394 7.76513 6.18962 7.79805C6.18529 7.83097 6.18761 7.86444 6.19644 7.89641C6.20526 7.92839 6.2204 7.9582 6.24094 7.98402C6.26148 8.00984 6.28697 8.03113 6.31587 8.04658L6.4646 8.12985C6.50744 8.15255 6.5425 8.18795 6.56515 8.23136C6.58779 8.27477 6.59694 8.32415 6.5914 8.37297C6.56412 8.56266 6.56412 8.75538 6.5914 8.94507C6.59702 8.99395 6.5879 9.0434 6.56526 9.08689C6.54261 9.13037 6.50751 9.16583 6.4646 9.18856L6.31587 9.27183C6.28697 9.28728 6.26148 9.30857 6.24094 9.33439C6.2204 9.36021 6.20526 9.39002 6.19644 9.42199C6.18761 9.45397 6.18529 9.48744 6.18962 9.52036C6.19394 9.55328 6.20482 9.58495 6.22159 9.61345L6.63379 10.3071C6.66964 10.3651 6.726 10.407 6.79127 10.424C6.85654 10.441 6.92574 10.4319 6.98461 10.3986L7.13516 10.3142C7.18111 10.2894 7.23306 10.2786 7.28486 10.283C7.33667 10.2873 7.38617 10.3067 7.42751 10.3387C7.57598 10.4493 7.73755 10.5405 7.90841 10.6101C7.95619 10.6274 7.99772 10.659 8.02758 10.7007C8.05744 10.7424 8.07424 10.7923 8.07578 10.8439V11.0116C8.07731 11.0791 8.10508 11.1433 8.15301 11.1901C8.20095 11.237 8.26514 11.2626 8.33158 11.2614H9.15599C9.22242 11.2626 9.28662 11.237 9.33455 11.1901C9.38248 11.1433 9.41025 11.0791 9.41179 11.0116V10.8439C9.41333 10.7923 9.43012 10.7424 9.45998 10.7007C9.48984 10.659 9.53137 10.6274 9.57915 10.6101C9.75002 10.5405 9.91159 10.4493 10.0601 10.3387C10.1014 10.3067 10.1509 10.2873 10.2027 10.283C10.2545 10.2786 10.3065 10.2894 10.3524 10.3142L10.503 10.3986C10.5618 10.4319 10.631 10.441 10.6963 10.424C10.7616 10.407 10.8179 10.3651 10.8538 10.3071L11.266 9.61345C11.2827 9.58495 11.2936 9.55328 11.2979 9.52036C11.3023 9.48744 11.3 9.45397 11.2911 9.42199C11.2823 9.39002 11.2672 9.36021 11.2466 9.33439C11.2261 9.30857 11.2006 9.28728 11.1717 9.27183L11.023 9.18856C10.9801 9.16583 10.945 9.13037 10.9223 9.08689C10.8997 9.0434 10.8905 8.99395 10.8962 8.94507C10.9234 8.75538 10.9234 8.56266 10.8962 8.37297C10.8906 8.32415 10.8998 8.27477 10.9224 8.23136C10.9451 8.18795 10.9801 8.15255 11.023 8.12985L11.1717 8.04658C11.2006 8.03113 11.2261 8.00984 11.2466 7.98402C11.2672 7.9582 11.2823 7.92839 11.2911 7.89641C11.3 7.86444 11.3023 7.83097 11.2979 7.79805C11.2936 7.76513 11.2827 7.73345 11.266 7.70496L10.8538 7.01129C10.8179 6.95326 10.7616 6.91141 10.6963 6.89433C10.6311 6.87725 10.5619 6.88625 10.503 6.91948L10.3524 7.00423C10.3064 7.02887 10.2545 7.03965 10.2027 7.0353C10.1509 7.03096 10.1014 7.01167 10.0601 6.9797C9.91159 6.86907 9.75002 6.7779 9.57915 6.70833C9.5314 6.69096 9.4899 6.65936 9.46004 6.61766C9.43019 6.57595 9.41338 6.52607 9.41179 6.47451V6.30685C9.41025 6.23928 9.38248 6.17507 9.33455 6.12826C9.28662 6.08145 9.22242 6.05585 9.15599 6.05705ZM9.5945 8.6592C9.5945 8.83081 9.54445 8.99856 9.45069 9.14122C9.35693 9.28388 9.22368 9.39504 9.06779 9.46062C8.9119 9.52621 8.74039 9.54328 8.57496 9.50966C8.40953 9.47605 8.25763 9.39326 8.13847 9.27179C8.01931 9.15031 7.93826 8.99561 7.90557 8.82726C7.87288 8.6589 7.89002 8.48447 7.95483 8.32603C8.01964 8.16759 8.1292 8.03227 8.26964 7.9372C8.41008 7.84213 8.57509 7.79157 8.74378 7.79194C8.85575 7.79189 8.96664 7.81429 9.07009 7.85786C9.17355 7.90143 9.26755 7.96531 9.34673 8.04585C9.42591 8.12639 9.4887 8.22202 9.53153 8.32726C9.57436 8.4325 9.59638 8.5453 9.59633 8.6592H9.5945ZM20.3834 12.0171C20.4099 11.9725 20.4271 11.9228 20.434 11.8712C20.441 11.8196 20.4375 11.7671 20.4238 11.7169C20.4101 11.6667 20.3865 11.6199 20.3545 11.5792C20.3224 11.5386 20.2825 11.5051 20.2373 11.4807L20.0034 11.3495C19.936 11.3139 19.8809 11.2582 19.8453 11.19C19.8098 11.1217 19.7956 11.044 19.8046 10.9673C19.847 10.6692 19.847 10.3665 19.8046 10.0685C19.7956 9.99175 19.8098 9.91409 19.8453 9.84581C19.8809 9.77754 19.936 9.7219 20.0034 9.68631L20.2373 9.55509C20.2825 9.53068 20.3224 9.49714 20.3545 9.45653C20.3865 9.41592 20.4101 9.36908 20.4238 9.31888C20.4375 9.26867 20.441 9.21616 20.434 9.16454C20.4271 9.11293 20.4099 9.06329 20.3834 9.01867L19.7359 7.928C19.6794 7.8368 19.5907 7.7711 19.4881 7.7444C19.3855 7.71771 19.2767 7.73206 19.1841 7.78451L18.9477 7.91573C18.8755 7.95473 18.7938 7.97196 18.7123 7.96537C18.6308 7.95878 18.5528 7.92867 18.4876 7.87856C18.2547 7.70481 18.0013 7.56155 17.7333 7.45217C17.6582 7.42496 17.5929 7.37531 17.5459 7.30971C17.499 7.24412 17.4726 7.16563 17.4702 7.08453V6.82134C17.469 6.76851 17.4575 6.71645 17.4365 6.66813C17.4155 6.61981 17.3853 6.57618 17.3477 6.53972C17.3101 6.50327 17.2658 6.47471 17.2174 6.45567C17.1689 6.43664 17.1173 6.4275 17.0653 6.42878H15.7703C15.6656 6.42649 15.5643 6.46653 15.4886 6.54012C15.4129 6.61372 15.3689 6.71485 15.3665 6.82134V7.08453C15.3641 7.16563 15.3377 7.24412 15.2908 7.30971C15.2438 7.37531 15.1785 7.42496 15.1033 7.45217C14.835 7.56147 14.5812 7.70472 14.348 7.87856C14.2828 7.92867 14.2048 7.95878 14.1233 7.96537C14.0418 7.97196 13.9601 7.95473 13.8879 7.91573L13.6515 7.78302C13.5589 7.73058 13.4501 7.71622 13.3475 7.74292C13.2448 7.76961 13.1562 7.83532 13.0997 7.92651L12.4522 9.01719C12.4257 9.06181 12.4085 9.11144 12.4016 9.16306C12.3946 9.21467 12.3981 9.26718 12.4118 9.31739C12.4255 9.36759 12.4491 9.41443 12.4811 9.45504C12.5132 9.49566 12.5531 9.52919 12.5983 9.5536L12.8322 9.68482C12.8996 9.72041 12.9547 9.77605 12.9903 9.84432C13.0258 9.9126 13.04 9.99027 13.031 10.067C12.9886 10.365 12.9886 10.6678 13.031 10.9658C13.04 11.0425 13.0258 11.1202 12.9903 11.1885C12.9547 11.2567 12.8996 11.3124 12.8322 11.348L12.5983 11.4792C12.5531 11.5036 12.5132 11.5371 12.4811 11.5778C12.4491 11.6184 12.4255 11.6652 12.4118 11.7154C12.3981 11.7656 12.3946 11.8181 12.4016 11.8697C12.4085 11.9214 12.4257 11.971 12.4522 12.0156L13.0997 13.1063C13.1562 13.1975 13.2448 13.2632 13.3475 13.2899C13.4501 13.3166 13.5589 13.3022 13.6515 13.2498L13.8879 13.12C13.9601 13.081 14.0418 13.0638 14.1233 13.0704C14.2048 13.077 14.2828 13.1071 14.348 13.1572C14.5809 13.3308 14.8343 13.4741 15.1023 13.5836C15.1774 13.6108 15.2427 13.6605 15.2897 13.7261C15.3366 13.7917 15.363 13.8701 15.3654 13.9512V14.2144C15.3666 14.2673 15.378 14.3193 15.3991 14.3676C15.4201 14.416 15.4503 14.4596 15.4879 14.4961C15.5255 14.5325 15.5697 14.5611 15.6182 14.5801C15.6667 14.5991 15.7183 14.6083 15.7703 14.607H17.0653C17.17 14.6093 17.2713 14.5692 17.347 14.4956C17.4227 14.4221 17.4666 14.3209 17.4691 14.2144V13.9512C17.4715 13.8701 17.4979 13.7917 17.5448 13.7261C17.5918 13.6605 17.6571 13.6108 17.7322 13.5836C18.0006 13.4742 18.2543 13.3309 18.4876 13.1572C18.5528 13.1071 18.6308 13.077 18.7123 13.0704C18.7938 13.0638 18.8755 13.081 18.9477 13.12L19.1841 13.2528C19.2767 13.3052 19.3855 13.3195 19.4881 13.2929C19.5907 13.2662 19.6794 13.2005 19.7359 13.1093L20.3834 12.0171ZM16.4178 12.1535C16.0998 12.1535 15.7889 12.0576 15.5245 11.8779C15.2601 11.6981 15.054 11.4427 14.9323 11.1438C14.8106 10.8449 14.7788 10.5161 14.8408 10.1988C14.9028 9.88151 15.056 9.59006 15.2808 9.36131C15.5057 9.13257 15.7922 8.97679 16.1041 8.91367C16.416 8.85056 16.7393 8.88295 17.0331 9.00675C17.3269 9.13055 17.578 9.34019 17.7547 9.60917C17.9314 9.87815 18.0257 10.1944 18.0257 10.5179C18.0257 10.9517 17.8563 11.3677 17.5547 11.6745C17.2532 11.9812 16.8442 12.1535 16.4178 12.1535Z" fill="white"/>
<path d="M12.3745 0.375008C10.1799 0.372434 8.0297 0.993276 6.17424 2.16526L6.57474 2.79976C8.71708 1.4472 11.2645 0.885267 13.7771 1.211C16.2896 1.53673 18.6095 2.72968 20.3361 4.58382C22.0627 6.43795 23.0876 8.83685 23.2338 11.3662C23.38 13.8956 22.6383 16.3966 21.1367 18.4373L20.1932 17.5973L19.8557 20.4945L22.6934 19.8195L21.697 18.9345C22.9848 17.2065 23.7665 15.1543 23.9548 13.0075C24.143 10.8606 23.7304 8.70368 22.7631 6.77788C21.7958 4.85208 20.3118 3.23331 18.4772 2.10256C16.6426 0.971819 14.5296 0.373673 12.3745 0.375008ZM12.3745 22.875C10.364 22.8763 8.39259 22.3198 6.67947 21.2676C4.96635 20.2153 3.57867 18.7085 2.67077 16.9147C1.76287 15.1209 1.37033 13.1104 1.53681 11.1068C1.70328 9.10326 2.42225 7.18513 3.61374 5.56576L4.55574 6.40276L4.89324 3.50551L2.05562 4.18051L3.05199 5.06551C1.4351 7.24267 0.630254 9.91662 0.776749 12.6246C0.923243 15.3325 2.01186 17.904 3.85419 19.894C5.69652 21.8841 8.17662 23.1674 10.8653 23.5218C13.5539 23.8763 16.2818 23.2797 18.577 21.8351L18.1765 21.2006C16.4401 22.2969 14.428 22.8776 12.3745 22.875Z" fill="white"/>
</g>
<defs>
<clipPath id="clip0_11591_3916">
<rect width="24" height="24" fill="white" transform="translate(0.375)"/>
</clipPath>
</defs>
</svg>
