<svg width="24" height="24" viewBox="0 0 24 24" fill="none" xmlns="http://www.w3.org/2000/svg">
<g clip-path="url(#clip0_11591_3919)">
<path d="M21.541 4.8965L18.541 1.8965C18.4472 1.8027 18.3203 1.75 18.1875 1.75H16.1875C15.9111 1.75 15.6875 1.9736 15.6875 2.25C15.6875 2.5264 15.9111 2.75 16.1875 2.75H17.9805L19.4704 4.2399C19.295 4.5373 19.1875 4.8797 19.1875 5.25C19.1875 6.1808 19.8264 6.9562 20.6875 7.1793V17.25C20.6875 18.0771 20.0146 18.75 19.1875 18.75C18.3604 18.75 17.6875 18.0771 17.6875 17.25V14.25C17.6875 12.8716 16.5664 11.75 15.1875 11.75H14.6875V6.25C14.6875 5.1454 13.7921 4.25 12.6875 4.25H4.6875C3.5829 4.25 2.6875 5.1454 2.6875 6.25V20.25H2.1875C1.6353 20.25 1.1875 20.6977 1.1875 21.25V22.25H16.1875V21.25C16.1875 20.6977 15.7398 20.25 15.1875 20.25H14.6875V12.75H15.1875C16.0146 12.75 16.6875 13.4229 16.6875 14.25V17.25C16.6875 18.6284 17.8086 19.75 19.1875 19.75C20.5664 19.75 21.6875 18.6284 21.6875 17.25V5.25C21.6875 5.1172 21.6348 4.9902 21.541 4.8965ZM12.6875 11.25C12.6875 11.8022 12.2398 12.25 11.6875 12.25H5.6875C5.1353 12.25 4.6875 11.8022 4.6875 11.25V7.25C4.6875 6.6977 5.1353 6.25 5.6875 6.25H11.6875C12.2398 6.25 12.6875 6.6977 12.6875 7.25V11.25Z" fill="white"/>
<path d="M4.70136 16.932C4.70136 15.5575 5.30886 14.7905 6.37045 14.7905C7.43205 14.7905 8.03955 15.5575 8.03955 16.932C8.03955 18.3005 7.44432 19.0614 6.37045 19.0614C5.29659 19.0614 4.70136 18.3005 4.70136 16.932ZM5.7875 16.932C5.7875 17.6991 5.98386 18.1164 6.37045 18.1164C6.74477 18.1164 6.95341 17.6991 6.95341 16.932C6.95341 16.1589 6.74477 15.7355 6.37045 15.7355C5.99614 15.7355 5.7875 16.165 5.7875 16.932ZM9.6617 18.3618C9.6617 18.7545 9.3917 19.0307 8.99898 19.0307C8.60625 19.0307 8.33011 18.7545 8.33011 18.3618C8.33011 17.963 8.60625 17.6868 8.99898 17.6868C9.3917 17.6868 9.6617 17.963 9.6617 18.3618ZM9.95083 16.932C9.95083 15.5575 10.5583 14.7905 11.6199 14.7905C12.6815 14.7905 13.289 15.5575 13.289 16.932C13.289 18.3005 12.6938 19.0614 11.6199 19.0614C10.5461 19.0614 9.95083 18.3005 9.95083 16.932ZM11.037 16.932C11.037 17.6991 11.2333 18.1164 11.6199 18.1164C11.9942 18.1164 12.2029 17.6991 12.2029 16.932C12.2029 16.1589 11.9942 15.7355 11.6199 15.7355C11.2456 15.7355 11.037 16.165 11.037 16.932Z" fill="black"/>
</g>
<defs>
<clipPath id="clip0_11591_3919">
<rect width="23.3722" height="23.3722" fill="white" transform="translate(0 0.364624)"/>
</clipPath>
</defs>
</svg>
