<svg width="23" height="23" viewBox="0 0 23 23" fill="none" xmlns="http://www.w3.org/2000/svg">
<path d="M11.5 21.2604H10.125C9.94266 21.2604 9.7678 21.1879 9.63886 21.059C9.50993 20.9301 9.4375 20.7552 9.4375 20.5729V19.6193C8.69084 19.4287 7.97509 19.1329 7.31175 18.7407L6.63869 19.4137C6.50976 19.5426 6.33493 19.615 6.15263 19.615C5.97032 19.615 5.79549 19.5426 5.66656 19.4137L3.72231 17.4688C3.59343 17.3399 3.52102 17.1651 3.52102 16.9828C3.52102 16.8005 3.59343 16.6256 3.72231 16.4967L4.39469 15.8243C4.00254 15.1606 3.70649 14.4447 3.51538 13.6979H2.5625C2.38016 13.6979 2.2053 13.6254 2.07636 13.4965C1.94743 13.3676 1.875 13.1927 1.875 13.0104V10.2604C1.875 10.078 1.94743 9.90317 2.07636 9.77424C2.2053 9.64531 2.38016 9.57288 2.5625 9.57288H3.51606C3.70788 8.82281 4.00213 8.11056 4.39469 7.44713L3.72162 6.77406C3.59274 6.64514 3.52033 6.4703 3.52033 6.288C3.52033 6.1057 3.59274 5.93086 3.72162 5.80194L5.66656 3.85769C5.79549 3.7288 5.97032 3.6564 6.15263 3.6564C6.33493 3.6564 6.50976 3.7288 6.63869 3.85769L7.31106 4.53006C7.97474 4.13791 8.69068 3.84186 9.4375 3.65075V2.69788C9.4375 2.51554 9.50993 2.34067 9.63886 2.21174C9.7678 2.08281 9.94266 2.01038 10.125 2.01038H12.875C13.0573 2.01038 13.2322 2.08281 13.3611 2.21174C13.4901 2.34067 13.5625 2.51554 13.5625 2.69788V4.2035C13.5625 4.38584 13.4901 4.56071 13.3611 4.68964C13.2322 4.81857 13.0573 4.891 12.875 4.891C12.6927 4.891 12.5178 4.81857 12.3889 4.68964C12.2599 4.56071 12.1875 4.38584 12.1875 4.2035V3.38538H10.8125V4.2035C10.8126 4.36441 10.7562 4.52024 10.6532 4.64386C10.5501 4.76747 10.407 4.85104 10.2488 4.88C9.30009 5.05291 8.39902 5.42552 7.60531 5.97313C7.47285 6.0641 7.31271 6.10579 7.1527 6.09097C6.9927 6.07615 6.84294 6.00575 6.72944 5.892L6.15194 5.31588L5.17981 6.288L5.75731 6.8655C5.87085 6.97917 5.941 7.12902 5.95557 7.28902C5.97013 7.44902 5.92821 7.60907 5.83706 7.74138C5.28923 8.53497 4.9166 9.43608 4.74394 10.3848C4.71485 10.5429 4.63133 10.6857 4.50787 10.7886C4.38441 10.8914 4.22882 10.9478 4.06813 10.9479H3.25V12.3229H4.06813C4.22904 12.3228 4.38487 12.3792 4.50848 12.4822C4.6321 12.5852 4.71566 12.7283 4.74462 12.8866C4.91762 13.835 5.29023 14.7359 5.83775 15.5294C5.9289 15.6619 5.9707 15.8222 5.95588 15.9823C5.94106 16.1425 5.87055 16.2924 5.75662 16.4059L5.1805 16.9834L6.15263 17.9556L6.73013 17.3781C6.8438 17.2645 6.99364 17.1944 7.15364 17.1798C7.31364 17.1652 7.47369 17.2072 7.606 17.2983C8.39959 17.8461 9.3007 18.2188 10.2494 18.3914C10.4075 18.4205 10.5503 18.5041 10.6532 18.6275C10.7561 18.751 10.8124 18.9066 10.8125 19.0673V19.8854H11.5C11.6823 19.8854 11.8572 19.9578 11.9861 20.0867C12.1151 20.2157 12.1875 20.3905 12.1875 20.5729C12.1875 20.7552 12.1151 20.9301 11.9861 21.059C11.8572 21.1879 11.6823 21.2604 11.5 21.2604Z" fill="white"/>
<path d="M11.5 21.2604C11.3177 21.2604 11.1428 21.188 11.0139 21.059C10.8849 20.9301 10.8125 20.7552 10.8125 20.5729C10.8125 20.3906 10.8849 20.2157 11.0139 20.0868C11.1428 19.9578 11.3177 19.8854 11.5 19.8854C16.0492 19.8854 19.75 16.1846 19.75 11.6354C19.75 9.75028 19.0632 7.91465 17.8663 6.59947C17.7435 6.46454 17.6795 6.28639 17.6881 6.10421C17.6967 5.92203 17.7774 5.75074 17.9123 5.62803C18.0472 5.50532 18.2254 5.44123 18.4076 5.44987C18.5898 5.45851 18.761 5.53916 18.8837 5.67409C20.3082 7.23953 21.125 9.41272 21.125 11.6354C21.125 16.9429 16.8075 21.2604 11.5 21.2604Z" fill="white"/>
<path d="M11.5 17.1354C11.3177 17.1354 11.1428 17.0629 11.0139 16.934C10.8849 16.8051 10.8125 16.6302 10.8125 16.4479C10.8125 16.2655 10.8849 16.0907 11.0139 15.9617C11.1428 15.8328 11.3177 15.7604 11.5 15.7604C13.7749 15.7604 15.625 13.9103 15.625 11.6354C15.625 9.36044 13.7749 7.51038 11.5 7.51038C9.22506 7.51038 7.375 9.36044 7.375 11.6354C7.375 11.8177 7.30257 11.9926 7.17364 12.1215C7.0447 12.2504 6.86984 12.3229 6.6875 12.3229C6.50516 12.3229 6.3303 12.2504 6.20136 12.1215C6.07243 11.9926 6 11.8177 6 11.6354C6 8.60281 8.46744 6.13538 11.5 6.13538C14.5326 6.13538 17 8.60281 17 11.6354C17 14.6679 14.5326 17.1354 11.5 17.1354Z" fill="white"/>
<path d="M11.4999 18.5104C11.4096 18.5105 11.3201 18.4927 11.2367 18.4582C11.1533 18.4236 11.0775 18.3729 11.0138 18.3089L9.63879 16.9339C9.5099 16.805 9.4375 16.6302 9.4375 16.4479C9.4375 16.2656 9.5099 16.0907 9.63879 15.9618L11.0138 14.5868C11.0772 14.5211 11.1531 14.4688 11.237 14.4327C11.3208 14.3967 11.411 14.3777 11.5023 14.377C11.5936 14.3762 11.6841 14.3936 11.7686 14.4281C11.8531 14.4627 11.9299 14.5137 11.9944 14.5783C12.059 14.6428 12.11 14.7196 12.1446 14.8041C12.1792 14.8886 12.1966 14.9791 12.1958 15.0704C12.195 15.1617 12.176 15.2519 12.14 15.3358C12.104 15.4197 12.0516 15.4955 11.9859 15.5589L11.097 16.4479L11.9859 17.3368C12.082 17.433 12.1475 17.5554 12.174 17.6888C12.2005 17.8221 12.1869 17.9603 12.1349 18.086C12.0829 18.2116 11.9948 18.3189 11.8817 18.3945C11.7687 18.47 11.6358 18.5103 11.4999 18.5104ZM17.6874 8.19788C17.505 8.19788 17.3301 8.12544 17.2012 7.99651C17.0723 7.86758 16.9999 7.69271 16.9999 7.51038V5.44788C16.9999 5.26554 17.0723 5.09067 17.2012 4.96174C17.3301 4.83281 17.505 4.76038 17.6874 4.76038H19.7499C19.9322 4.76038 20.1071 4.83281 20.236 4.96174C20.3649 5.09067 20.4374 5.26554 20.4374 5.44788C20.4374 5.63021 20.3649 5.80508 20.236 5.93401C20.1071 6.06294 19.9322 6.13538 19.7499 6.13538H18.3749V7.51038C18.3749 7.69271 18.3024 7.86758 18.1735 7.99651C18.0446 8.12544 17.8697 8.19788 17.6874 8.19788Z" fill="white"/>
</svg>
