<svg width="23" height="21" viewBox="0 0 23 21" fill="none" xmlns="http://www.w3.org/2000/svg">
<path d="M18.6497 3.10562H16.6391C16.6391 2.70302 16.5598 2.30436 16.4057 1.9324C16.2517 1.56045 16.0258 1.22248 15.7412 0.937798C15.4565 0.653115 15.1185 0.427293 14.7465 0.273224C14.3746 0.119154 13.9759 0.039856 13.5733 0.039856H9.17942C8.37131 0.0481435 7.59904 0.374632 7.03006 0.948529C6.46107 1.52243 6.14124 2.29747 6.1399 3.10562H4.13455C3.65937 3.10493 3.18872 3.19801 2.74958 3.37954C2.31044 3.56106 1.91143 3.82746 1.57543 4.16347C1.23942 4.49947 0.973025 4.89848 0.7915 5.33762C0.609975 5.77676 0.516891 6.24741 0.517582 6.72259V16.8596C0.517581 17.3343 0.611175 17.8044 0.793009 18.2429C0.974844 18.6815 1.24135 19.0798 1.57729 19.4153C1.91322 19.7507 2.312 20.0167 2.7508 20.1979C3.1896 20.3791 3.65981 20.472 4.13455 20.4713H18.6497C19.124 20.4713 19.5936 20.3779 20.0318 20.1964C20.47 20.0149 20.8682 19.7488 21.2036 19.4134C21.5389 19.0781 21.805 18.6799 21.9865 18.2417C22.168 17.8035 22.2614 17.3339 22.2614 16.8596V6.72259C22.2621 6.24785 22.1692 5.77763 21.988 5.33883C21.8068 4.90003 21.5409 4.50126 21.2054 4.16532C20.87 3.82939 20.4716 3.56288 20.033 3.38105C19.5945 3.19921 19.1244 3.10562 18.6497 3.10562ZM5.35246 9.13741C5.35246 8.7904 5.45543 8.4512 5.64832 8.16275C5.84122 7.87429 6.11537 7.64956 6.43606 7.51701C6.75675 7.38446 7.10956 7.35004 7.44983 7.41813C7.79009 7.48621 8.1025 7.65372 8.3475 7.89946C8.5925 8.1452 8.75908 8.45811 8.82614 8.79857C8.8932 9.13904 8.85773 9.49174 8.72421 9.81204C8.5907 10.1323 8.36515 10.4058 8.07612 10.5978C7.78709 10.7899 7.44758 10.8918 7.10058 10.8908C6.63646 10.8894 6.19184 10.704 5.86415 10.3754C5.53647 10.0467 5.35246 9.60152 5.35246 9.13741ZM14.975 16.6286H7.90376C7.76634 16.6385 7.62834 16.6201 7.49838 16.5743C7.36841 16.5286 7.24927 16.4566 7.14838 16.3627C7.04749 16.2689 6.96703 16.1553 6.91201 16.0289C6.85698 15.9026 6.82859 15.7663 6.82859 15.6285C6.82859 15.4908 6.85698 15.3544 6.91201 15.2281C6.96703 15.1018 7.04749 14.9882 7.14838 14.8943C7.24927 14.8005 7.36841 14.7285 7.49838 14.6827C7.62834 14.637 7.76634 14.6185 7.90376 14.6285H14.975C15.1124 14.6185 15.2504 14.637 15.3804 14.6827C15.5103 14.7285 15.6295 14.8005 15.7304 14.8943C15.8312 14.9882 15.9117 15.1018 15.9667 15.2281C16.0217 15.3544 16.0501 15.4908 16.0501 15.6285C16.0501 15.7663 16.0217 15.9026 15.9667 16.0289C15.9117 16.1553 15.8312 16.2689 15.7304 16.3627C15.6295 16.4566 15.5103 16.5286 15.3804 16.5743C15.2504 16.6201 15.1124 16.6385 14.975 16.6286ZM15.6784 10.8908C15.3314 10.8918 14.9919 10.7899 14.7029 10.5978C14.4138 10.4058 14.1883 10.1323 14.0548 9.81204C13.9213 9.49174 13.8858 9.13904 13.9529 8.79857C14.0199 8.45811 14.1865 8.1452 14.4315 7.89946C14.6765 7.65372 14.9889 7.48621 15.3292 7.41813C15.6694 7.35004 16.0222 7.38446 16.3429 7.51701C16.6636 7.64956 16.9378 7.87429 17.1307 8.16275C17.3236 8.4512 17.4265 8.7904 17.4265 9.13741C17.4252 9.6011 17.2407 10.0455 16.9133 10.3739C16.5859 10.7022 16.1421 10.888 15.6784 10.8908Z" fill="white"/>
</svg>
