<svg width="24" height="24" viewBox="0 0 24 24" fill="none" xmlns="http://www.w3.org/2000/svg">
<g clip-path="url(#clip0_11591_3865)">
<path d="M6.82812 15H5.45312C5.25421 15 5.06345 14.921 4.92279 14.7803C4.78214 14.6397 4.70313 14.4489 4.70312 14.25C4.70312 14.0511 4.78214 13.8603 4.92279 13.7197C5.06345 13.579 5.25421 13.5 5.45312 13.5H6.82812C6.92758 13.5 7.02296 13.4605 7.09329 13.3902C7.16362 13.3198 7.20312 13.2245 7.20312 13.125C7.20312 13.0255 7.16362 12.9302 7.09329 12.8598C7.02296 12.7895 6.92758 12.75 6.82812 12.75H6.57812C5.54412 12.75 4.70312 11.909 4.70312 10.875C4.70312 9.841 5.54412 9 6.57812 9H7.95312C8.15204 9 8.3428 9.07902 8.48345 9.21967C8.62411 9.36032 8.70312 9.55109 8.70312 9.75C8.70312 9.94891 8.62411 10.1397 8.48345 10.2803C8.3428 10.421 8.15204 10.5 7.95312 10.5H6.57812C6.47867 10.5 6.38329 10.5395 6.31296 10.6098C6.24263 10.6802 6.20312 10.7755 6.20312 10.875C6.20312 10.9745 6.24263 11.0698 6.31296 11.1402C6.38329 11.2105 6.47867 11.25 6.57812 11.25H6.82812C7.86212 11.25 8.70312 12.091 8.70312 13.125C8.70312 14.159 7.86212 15 6.82812 15ZM11.9531 15H10.4531C10.2542 15 10.0634 14.921 9.9228 14.7803C9.78214 14.6397 9.70312 14.4489 9.70312 14.25V9.75C9.70312 9.55109 9.78214 9.36032 9.9228 9.21967C10.0634 9.07902 10.2542 9 10.4531 9H11.9531C12.9181 9 13.7031 9.785 13.7031 10.75V13.25C13.7031 14.215 12.9181 15 11.9531 15ZM11.2031 13.5H11.9531C12.0194 13.5 12.083 13.4737 12.1299 13.4268C12.1768 13.3799 12.2031 13.3163 12.2031 13.25V10.75C12.2031 10.6837 12.1768 10.6201 12.1299 10.5732C12.083 10.5263 12.0194 10.5 11.9531 10.5H11.2031V13.5ZM15.4531 15C15.2542 15 15.0634 14.921 14.9228 14.7803C14.7821 14.6397 14.7031 14.4489 14.7031 14.25V9.75C14.7031 9.55109 14.7821 9.36032 14.9228 9.21967C15.0634 9.07902 15.2542 9 15.4531 9C15.652 9 15.8428 9.07902 15.9835 9.21967C16.1241 9.36032 16.2031 9.55109 16.2031 9.75V14.25C16.2031 14.4489 16.1241 14.6397 15.9835 14.7803C15.8428 14.921 15.652 15 15.4531 15Z" fill="white"/>
<path d="M17.953 15C17.7677 15.0003 17.5888 14.9319 17.451 14.808L14.951 12.558C14.873 12.4875 14.8106 12.4014 14.7679 12.3053C14.7252 12.2092 14.7031 12.1052 14.7031 12C14.7031 11.8948 14.7252 11.7908 14.7679 11.6947C14.8106 11.5986 14.873 11.5125 14.951 11.442L17.451 9.19198C17.6001 9.06661 17.7921 9.00409 17.9865 9.01762C18.1808 9.03116 18.3623 9.11969 18.4926 9.26453C18.6229 9.40936 18.6918 9.59917 18.6848 9.79386C18.6778 9.98855 18.5954 10.1729 18.455 10.308L16.574 12L18.455 13.692C18.568 13.7934 18.6475 13.9268 18.683 14.0744C18.7186 14.222 18.7085 14.377 18.6541 14.5187C18.5997 14.6605 18.5035 14.7824 18.3783 14.8683C18.2532 14.9542 18.1048 15.0002 17.953 15Z" fill="white"/>
<path d="M20.9531 20H2.45312C1.72394 19.9995 1.02478 19.7096 0.509166 19.194C-0.00644386 18.6783 -0.296345 17.9792 -0.296875 17.25L-0.296875 6.75C-0.296345 6.02082 -0.00644386 5.32165 0.509166 4.80604C1.02478 4.29043 1.72394 4.00053 2.45312 4H20.9531C21.6823 4.00053 22.3815 4.29043 22.8971 4.80604C23.4127 5.32165 23.7026 6.02082 23.7031 6.75V17.25C23.7026 17.9792 23.4127 18.6783 22.8971 19.194C22.3815 19.7096 21.6823 19.9995 20.9531 20ZM2.45312 5.5C1.76412 5.5 1.20312 6.061 1.20312 6.75V17.25C1.20312 17.939 1.76412 18.5 2.45312 18.5H20.9531C21.6421 18.5 22.2031 17.939 22.2031 17.25V6.75C22.2031 6.061 21.6421 5.5 20.9531 5.5H2.45312Z" fill="white"/>
</g>
<defs>
<clipPath id="clip0_11591_3865">
<rect width="24" height="24" fill="white" transform="translate(-0.296875)"/>
</clipPath>
</defs>
</svg>
