<svg width="21" height="23" viewBox="0 0 21 23" fill="none" xmlns="http://www.w3.org/2000/svg">
<path d="M20.4235 3.21891C20.3833 2.92236 20.1755 2.67843 19.8946 2.59825L10.8915 0.027449C10.7631 -0.00923103 10.6276 -0.00923103 10.4991 0.027449L1.49602 2.59825C1.21511 2.67843 1.00731 2.92226 0.9671 3.21891C0.914881 3.60445 -0.27639 12.7139 2.77914 17.2456C5.83106 21.7719 10.3333 22.9318 10.5234 22.979C10.5799 22.993 10.6375 22.9999 10.6953 22.9999C10.7531 22.9999 10.8107 22.9929 10.8672 22.979C11.0574 22.9318 15.5597 21.7719 18.6115 17.2456C21.667 12.714 20.4757 3.60455 20.4235 3.21891ZM16.5012 8.5371L10.3601 14.8426C10.2172 14.9893 10.0298 15.0627 9.84254 15.0627C9.65523 15.0627 9.46783 14.9894 9.32494 14.8426L5.528 10.944C5.39067 10.803 5.31356 10.6118 5.31356 10.4125C5.31356 10.2132 5.39076 10.0219 5.528 9.88103L6.2819 9.10695C6.56778 8.81351 7.03131 8.81341 7.3171 9.10695L9.84254 11.7L14.7121 6.7C14.8493 6.55899 15.0355 6.47982 15.2297 6.47982C15.4238 6.47982 15.61 6.55899 15.7473 6.7L16.5012 7.47409C16.787 7.76763 16.787 8.24356 16.5012 8.5371Z" fill="white"/>
</svg>
