<svg width="27" height="26" viewBox="0 0 27 26" fill="none" xmlns="http://www.w3.org/2000/svg">
<g clip-path="url(#clip0_4166_4902)">
<path d="M8.61863 9.49835C8.85578 9.49835 9.04894 9.69151 9.04894 9.92866C9.04894 10.2248 9.28877 10.4652 9.58548 10.4652C9.88219 10.4652 10.122 10.2248 10.122 9.92866C10.122 9.31378 9.7502 8.78582 9.22063 8.55296V8.17094C9.22063 7.87477 8.9808 7.6344 8.68409 7.6344C8.38738 7.6344 8.14755 7.87477 8.14755 8.17094V8.50843C7.55037 8.70749 7.11523 9.26549 7.11523 9.92866C7.11523 10.7571 7.78967 11.4315 8.61863 11.4315C8.85578 11.4315 9.04894 11.6247 9.04894 11.8618C9.04894 12.099 8.85632 12.2921 8.61863 12.2921C8.38094 12.2921 8.18832 12.099 8.18832 11.8618C8.18832 11.5657 7.94849 11.3253 7.65178 11.3253C7.35507 11.3253 7.11523 11.5657 7.11523 11.8618C7.11523 12.525 7.54983 13.083 8.14755 13.2821V13.6228C8.14755 13.9189 8.38738 14.1593 8.68409 14.1593C8.9808 14.1593 9.22063 13.9189 9.22063 13.6228V13.2375C9.7502 13.0047 10.122 12.4767 10.122 11.8618C10.122 11.0329 9.44759 10.3584 8.61863 10.3584C8.38148 10.3584 8.18832 10.1658 8.18832 9.92866C8.18832 9.69151 8.38094 9.49835 8.61863 9.49835Z" fill="white"/>
<path d="M19.6986 7.94026V7.55502C20.2287 7.32216 20.6005 6.7942 20.6005 6.17932C20.6005 5.35036 19.9261 4.67593 19.0971 4.67593C18.86 4.67593 18.6668 4.48277 18.6668 4.24562C18.6668 4.00847 18.8595 3.81531 19.0971 3.81531C19.3348 3.81531 19.5275 4.00847 19.5275 4.24562C19.5275 4.54179 19.7673 4.78216 20.064 4.78216C20.3607 4.78216 20.6005 4.54179 20.6005 4.24562C20.6005 3.63074 20.2287 3.10278 19.6986 2.86992V2.4879C19.6986 2.19173 19.4588 1.95135 19.1621 1.95135C18.8654 1.95135 18.6255 2.19173 18.6255 2.4879V2.82539C18.0284 3.02444 17.5938 3.58245 17.5938 4.24562C17.5938 5.07458 18.2682 5.74901 19.0971 5.74901C19.3343 5.74901 19.5275 5.94217 19.5275 6.17932C19.5275 6.41647 19.3348 6.60963 19.0971 6.60963C18.8595 6.60963 18.6668 6.41647 18.6668 6.17932C18.6668 5.88315 18.427 5.64278 18.1303 5.64278C17.8336 5.64278 17.5938 5.88315 17.5938 6.17932C17.5938 6.84249 18.0284 7.4005 18.6255 7.59955V7.94026C18.6255 8.23643 18.8654 8.4768 19.1621 8.4768C19.4588 8.4768 19.6986 8.23697 19.6986 7.94026Z" fill="white"/>
<path d="M26.4677 23.8579C25.914 23.6251 24.8269 23.1867 24.2657 23.022C21.4376 22.1898 18.4297 22.1329 15.5699 22.8562L14.168 23.2098L11.3704 22.3932C11.2341 22.3556 11.0957 22.3293 10.9584 22.2982C11.3817 20.9821 11.9365 19.6289 12.583 18.323C13.0879 18.1212 14.5054 17.5562 16.0083 16.9725C16.0416 17.0535 16.077 17.1291 16.1156 17.1994C16.5191 17.9281 17.1088 18.4142 17.8208 18.6046C18.0499 18.6658 18.2859 18.6958 18.529 18.6958C19.2034 18.6958 19.9331 18.4614 20.7068 17.9951C21.9795 17.2252 23.0617 15.5957 23.6428 14.7206C23.7463 14.5645 23.8258 14.4421 23.8789 14.3708C23.9433 14.3209 23.9974 14.2549 24.0345 14.176C24.1595 13.9093 24.0463 13.5917 23.7807 13.464C23.7721 13.4603 23.7641 13.456 23.7555 13.4527C23.4985 13.3358 20.9338 12.2112 18.8665 12.6029C17.1232 12.9344 15.9804 13.8509 15.7298 15.1176C15.6794 15.3736 15.6799 15.6472 15.7213 15.9326C14.8569 16.268 14.0167 16.599 13.3513 16.8625C13.7087 16.2299 14.0843 15.6182 14.4733 15.0414C16.1392 12.5691 18.3181 10.5398 18.8171 10.0897C18.9105 10.095 19.0022 10.1036 19.0967 10.1036C21.7928 10.1036 23.9867 7.9097 23.9867 5.21357C23.9867 2.5169 21.7928 0.322968 19.0967 0.322968C16.4 0.322968 14.2061 2.5169 14.2061 5.21357C14.2061 7.35599 15.5936 9.17702 17.5155 9.83643C16.5561 10.763 14.8939 12.4972 13.5837 14.4416C13.0514 15.2314 12.5454 16.085 12.0738 16.9687C11.8732 16.6436 11.6403 16.2546 11.4643 15.923L11.3479 15.7153C11.2438 15.5281 11.1317 15.3387 11.0238 15.1488C12.5057 14.3075 13.5096 12.7177 13.5096 10.8956C13.5096 8.1989 11.3157 6.00497 8.61902 6.00497C5.92289 6.00497 3.72896 8.1989 3.72896 10.8956C3.72896 13.5917 5.92289 15.7856 8.61902 15.7856C9.1105 15.7856 9.58426 15.7111 10.0323 15.5753C10.16 15.7969 10.2893 16.0185 10.4116 16.2374L10.5221 16.4354C10.8274 17.0116 11.2824 17.7328 11.5062 18.0804C10.8612 19.4105 10.3097 20.7835 9.88956 22.1158C8.36953 21.9575 6.81838 22.1764 5.39868 22.7666L1.1176 24.6488C0.846107 24.7679 0.723238 25.0845 0.842351 25.356C0.930344 25.5572 1.12726 25.6768 1.33383 25.6768C1.40572 25.6768 1.47923 25.6623 1.54898 25.6312L5.82041 23.7533C7.47565 23.0655 9.34604 22.9496 11.0775 23.426L16.6527 25.0534C16.9387 25.1371 17.2348 24.9734 17.318 24.689C17.4012 24.4047 17.2381 24.1069 16.9532 24.0232L16.2267 23.8113C18.7828 23.2355 21.4473 23.3117 23.9636 24.0516C24.4798 24.2035 25.5556 24.6381 26.0519 24.8473C26.12 24.8758 26.1903 24.8897 26.2601 24.8897C26.4693 24.8897 26.6684 24.7663 26.7547 24.5608C26.869 24.2877 26.7408 23.9733 26.4677 23.8579ZM16.7836 15.3253C16.9446 14.5108 17.7768 13.9029 19.0671 13.6572C20.3092 13.4216 21.8636 13.8809 22.7081 14.1889C22.1973 14.9577 21.1902 16.4488 20.152 17.0771C19.3708 17.5487 18.6599 17.7172 18.0987 17.5686C17.6684 17.4537 17.3175 17.1549 17.0556 16.6811C17.0401 16.6532 17.0261 16.6194 17.0116 16.5862C18.2505 16.1113 19.4197 15.6767 20.0485 15.4782C20.3307 15.3891 20.4879 15.0876 20.3988 14.8054C20.3098 14.5226 20.0077 14.3654 19.7255 14.455C19.0967 14.6535 17.9731 15.0693 16.774 15.5276C16.7761 15.4594 16.7713 15.3875 16.7836 15.3253ZM15.2797 5.21357C15.2797 3.10871 16.9918 1.39606 19.0972 1.39606C21.2021 1.39606 22.9142 3.10871 22.9142 5.21357C22.9142 7.31843 21.2021 9.03054 19.0972 9.03054C16.9918 9.03054 15.2797 7.31843 15.2797 5.21357ZM4.80151 10.8956C4.80151 8.79071 6.51362 7.07806 8.61848 7.07806C10.7239 7.07806 12.436 8.79071 12.436 10.8956C12.436 13.0004 10.7239 14.7125 8.61848 14.7125C6.51416 14.7125 4.80151 12.9999 4.80151 10.8956Z" fill="white"/>
</g>
<defs>
<clipPath id="clip0_4166_4902">
<rect width="26" height="26" fill="white" transform="translate(0.796875 -0.00012207)"/>
</clipPath>
</defs>
</svg>
