<svg width="24" height="24" viewBox="0 0 24 24" fill="none" xmlns="http://www.w3.org/2000/svg">
<path d="M9.75 5.25C9.75 4.8 9.45 4.5 9 4.5H7.5C7.05 4.5 6.75 4.8 6.75 5.25C6.75 5.7 7.05 6 7.5 6H9C9.45 6 9.75 5.7 9.75 5.25Z" fill="white"/>
<path d="M20.25 9H15V3.75C15 2.475 14.025 1.5 12.75 1.5H3.75C2.475 1.5 1.5 2.475 1.5 3.75V20.25C1.5 21.525 2.475 22.5 3.75 22.5H9C9.45 22.5 9.75 22.2 9.75 21.75C9.75 21.3 9.45 21 9 21H3.75C3.3 21 3 20.7 3 20.25V3.75C3 3.3 3.3 3 3.75 3H12.75C13.2 3 13.5 3.3 13.5 3.75V9H11.25C9.975 9 9 9.975 9 11.25V17.25C9 18.525 9.975 19.5 11.25 19.5H13.5V21H12C11.55 21 11.25 21.3 11.25 21.75C11.25 22.2 11.55 22.5 12 22.5H19.5C19.95 22.5 20.25 22.2 20.25 21.75C20.25 21.3 19.95 21 19.5 21H18V19.5H20.25C21.525 19.5 22.5 18.525 22.5 17.25V11.25C22.5 9.975 21.525 9 20.25 9ZM16.5 21H15V19.5H16.5V21ZM21 17.25C21 17.7 20.7 18 20.25 18H11.25C10.8 18 10.5 17.7 10.5 17.25V11.25C10.5 10.8 10.8 10.5 11.25 10.5H20.25C20.7 10.5 21 10.8 21 11.25V17.25Z" fill="white"/>
</svg>
