<svg xmlns="http://www.w3.org/2000/svg" width="31" height="27" viewBox="0 0 31 27" fill="none">
  <path d="M10.9896 17.8704C12.1316 17.8704 13.0574 16.9382 13.0574 15.7882C13.0574 14.6383 12.1316 13.7061 10.9896 13.7061C9.84764 13.7061 8.92188 14.6383 8.92188 15.7882C8.92188 16.9382 9.84764 17.8704 10.9896 17.8704Z" fill="white"/>
  <path d="M30.9005 14.1056C30.9005 11.5332 28.8895 9.4407 26.4176 9.4407C25.5502 9.4407 24.7451 9.70508 24.0595 10.1477C21.9328 8.9041 19.2509 8.13151 16.322 8.02576L18.0101 3.14543L21.5069 3.98852C21.4952 4.10505 21.4729 4.21668 21.4729 4.33614C21.4729 6.27691 23.0414 7.85636 24.9697 7.85636C26.8951 7.85636 28.4665 6.27789 28.4665 4.33614C28.4665 2.39439 26.896 0.815918 24.9697 0.815918C23.7124 0.815918 22.6194 1.49157 22.0038 2.49524L17.0036 1.29083L14.6698 8.03555C11.7545 8.18635 9.10081 9.00496 7.014 10.2818C7.05582 10.2525 7.0918 10.2192 7.13361 10.1898C6.43152 9.71781 5.59816 9.43972 4.70159 9.43972C2.22874 9.43972 0.21875 11.5313 0.21875 14.1046C0.21875 15.8251 1.12796 17.3174 2.46698 18.1233C3.01542 22.9331 8.70893 26.7294 15.6423 26.7294C22.6203 26.7294 28.343 22.8822 28.8273 18.0283C30.07 17.2028 30.9005 15.7546 30.9005 14.1056ZM24.9677 2.38459C26.0364 2.38459 26.9067 3.26098 26.9067 4.3381C26.9067 5.41424 26.0355 6.29062 24.9677 6.29062C23.8952 6.29062 23.0268 5.41424 23.0268 4.3381C23.0268 3.26 23.8981 2.38459 24.9677 2.38459ZM4.70062 11.0074C5.05361 11.0074 5.38618 11.0848 5.69929 11.2062C4.00729 12.5722 2.87053 14.2858 2.52824 16.1776C2.06051 15.6273 1.7717 14.9027 1.7717 14.1056C1.7717 12.3979 3.08641 11.0074 4.70062 11.0074ZM15.6403 25.1647C9.20194 25.1647 3.96547 21.667 3.96547 17.3673C3.96547 13.0667 9.20194 9.56996 15.6403 9.56996C22.0777 9.56996 27.3132 13.0677 27.3132 17.3673C27.3132 21.666 22.0777 25.1647 15.6403 25.1647ZM28.7145 16.0072C28.3323 14.1663 27.1985 12.5007 25.5327 11.169C25.8137 11.073 26.1074 11.0074 26.4176 11.0074C28.0309 11.0074 29.3446 12.3969 29.3446 14.1056C29.3427 14.8243 29.1034 15.4814 28.7145 16.0072Z" fill="white"/>
  <path d="M19.8822 17.8704C21.0242 17.8704 21.9499 16.9382 21.9499 15.7882C21.9499 14.6383 21.0242 13.7061 19.8822 13.7061C18.7402 13.7061 17.8145 14.6383 17.8145 15.7882C17.8145 16.9382 18.7402 17.8704 19.8822 17.8704Z" fill="white"/>
  <path d="M19.5481 20.4192C15.1683 23.3303 11.6345 20.5876 11.477 20.4632C11.1415 20.192 10.6534 20.2459 10.385 20.5817C10.1166 20.9205 10.1671 21.4121 10.5017 21.6833C10.5308 21.7078 12.5496 23.3059 15.4814 23.3059C16.9391 23.3059 18.6243 22.9093 20.4038 21.7274C20.7626 21.4885 20.8618 21.0028 20.6265 20.6434C20.3882 20.2811 19.9059 20.1803 19.5481 20.4192Z" fill="white"/>
</svg>