<svg xmlns="http://www.w3.org/2000/svg" width="31" height="26" viewBox="0 0 31 26" fill="none">
  <path d="M30.4936 3.69398C29.378 4.19366 28.1795 4.53128 26.9195 4.68388C28.2196 3.89762 29.1922 2.66013 29.6559 1.20233C28.4345 1.93563 27.0977 2.45179 25.7037 2.72838C24.7663 1.71668 23.5246 1.04611 22.1715 0.82078C20.8184 0.595449 19.4295 0.827962 18.2206 1.48222C17.0116 2.13648 16.0501 3.17588 15.4855 4.43905C14.9208 5.70221 14.7845 7.11847 15.0978 8.46795C12.6229 8.34235 10.2018 7.69216 7.99167 6.55958C5.7815 5.427 3.83163 3.83735 2.26861 1.89378C1.73418 2.82561 1.42688 3.906 1.42688 5.05662C1.42628 6.09244 1.67864 7.11239 2.16157 8.02598C2.64449 8.93957 3.34305 9.71855 4.19526 10.2938C3.20692 10.262 2.24039 9.99209 1.3761 9.50647V9.5875C1.376 11.0403 1.87317 12.4483 2.78326 13.5728C3.69334 14.6972 4.96027 15.4688 6.36909 15.7565C5.45224 16.0073 4.49099 16.0443 3.55795 15.8646C3.95543 17.1146 4.72969 18.2077 5.77234 18.9908C6.81499 19.774 8.07383 20.208 9.37263 20.232C7.16785 21.9815 4.44496 22.9304 1.64199 22.9263C1.14547 22.9264 0.649371 22.8971 0.15625 22.8385C3.00143 24.6875 6.31343 25.6689 9.69596 25.665C21.1463 25.665 27.4059 16.0793 27.4059 7.76569C27.4059 7.4956 27.3992 7.2228 27.3872 6.9527C28.6048 6.0627 29.6558 4.96059 30.4909 3.69803L30.4936 3.69398Z" fill="white"/>
</svg>