<svg xmlns="http://www.w3.org/2000/svg" width="292" height="66" viewBox="0 0 292 66" fill="none">
  <path fill-rule="evenodd" clip-rule="evenodd" d="M1.13148 1.70215C8.4254 10.6848 16.4338 21.9695 17.7293 23.7949C17.7983 23.8923 17.8479 23.9626 17.878 24.0045C18.5685 24.9728 19.1385 25.6926 19.5713 26.2393C20.5325 27.4529 20.8175 27.8129 20.2441 28.1438C19.7818 28.4105 19.3042 28.4985 18.8282 28.4985C18.2898 28.4985 17.683 28.2358 17.2414 27.8104C16.929 27.5098 14.7925 24.361 11.8829 19.7805C9.65667 16.2755 7.79365 13.3679 7.74316 13.3193C7.62545 13.2065 7.62757 13.2105 11.656 20.5242C14.1854 25.1167 15.9158 28.5108 15.9158 28.7277C15.9158 29.1695 15.7972 29.4017 15.26 30.0092C14.3649 31.0227 13.9649 32.1612 13.6759 34.5173C13.3523 37.1585 12.4416 39.0245 9.91825 42.2176C8.44122 44.0869 8.19941 44.4295 7.8268 45.1829C7.35717 46.1317 7.2282 46.663 7.17589 47.8611C7.12053 49.1279 7.2282 49.9462 7.60963 51.1571C7.9436 52.2174 8.29187 52.9177 9.18308 54.3181C9.95202 55.5262 10.3946 56.4242 10.3946 56.7756C10.3946 57.0552 10.4472 57.0555 11.6386 56.7827C14.4902 56.1291 16.8055 54.9802 18.1076 53.5719C18.9137 52.7002 19.1029 52.2189 19.109 51.0245C19.1132 50.2432 19.0858 50.0797 18.8778 49.6303C18.5389 48.8985 17.9224 48.2904 16.5631 47.3475C14.7816 46.1118 14.0209 45.1173 13.8107 43.7493C13.6382 42.627 13.8381 41.835 14.8236 39.7395C15.8437 37.5704 16.0965 36.6461 16.2674 34.4596C16.3778 33.047 16.5305 32.49 16.9305 32.0429C17.3478 31.5767 17.7235 31.4187 18.7555 31.2754C20.4388 31.0423 21.5104 30.6001 22.3915 29.7767C23.1556 29.0623 23.4753 28.3736 23.5245 27.3371L23.5617 26.5519L23.1346 26.0465C21.5882 24.2168 0.0957956 0.263916 0.000591392 0.263916C-0.0197878 0.263916 0.489083 0.911077 1.13148 1.70215ZM11.263 49.2945C11.6128 48.6659 11.4266 47.8584 10.8417 47.4636C10.289 47.0908 9.43068 47.2665 9.43068 47.7523C9.43068 47.9005 9.51158 48.0084 9.69348 48.1037C10.0004 48.2638 10.0226 48.4438 9.78138 48.8117C9.53683 49.1845 9.5566 49.512 9.83674 49.7345C10.2884 50.0935 10.9281 49.8961 11.263 49.2945ZM21.7875 15.0298C21.0976 14.921 21.0684 14.9082 21.3933 14.8577C22.0153 14.7606 23.4844 14.8929 24.497 15.137C26.8607 15.7072 29.0114 17.1677 31.3073 19.7612L31.9171 20.4503L32.7898 20.3082C36.4656 19.7087 40.2051 20.1851 43.3328 21.6511C44.1933 22.0544 45.5499 22.8574 45.7193 23.0637C45.7731 23.1294 45.8726 23.5525 45.9395 24.0045C46.1719 25.5668 46.0557 26.7645 45.5846 27.6592C45.3284 28.1459 45.3141 28.3002 45.4863 28.717C45.6238 29.0494 46.0073 29.2954 46.3872 29.2948C47.1644 29.2939 48.0009 28.0188 48.3887 26.2451L48.5426 25.5405L48.8477 25.8909C50.5206 27.8144 51.8349 30.4376 52.0606 32.3045L52.1193 32.7912L51.8382 32.3488C51.354 31.5874 50.8679 31.0688 50.245 30.6508C49.1226 29.897 47.9355 29.6407 44.7922 29.4726C41.9531 29.3208 40.3465 29.0748 38.7533 28.5474C36.0422 27.6506 34.6759 26.4562 31.4557 22.1696C30.0255 20.2657 29.1416 19.2119 28.2619 18.3636C26.2642 16.4362 24.3008 15.4251 21.7875 15.0298ZM46.3596 19.2809C46.431 18.0049 46.6017 17.1634 46.9445 16.395C47.0801 16.0906 47.2073 15.8419 47.2267 15.8419C47.2465 15.8419 47.1875 16.0662 47.0956 16.3406C46.8465 17.0864 46.8055 18.1067 46.9773 19.2934C47.1951 20.7998 47.3192 21.0168 48.8878 22.6438C49.6236 23.4068 50.4795 24.369 50.7898 24.7824L51.354 25.5334L50.7898 24.9966C50.0999 24.34 48.5134 23.0594 48.163 22.8767C47.9278 22.7538 47.8929 22.756 47.7481 22.9023C47.6146 23.0371 47.5863 23.24 47.5677 24.1979C47.5388 25.6914 47.3384 26.6502 46.8541 27.6085C46.5923 28.127 46.5509 28.0164 46.7878 27.4312C46.9649 26.9943 46.9828 26.8021 46.9816 25.3565C46.9788 22.4516 46.6388 21.7535 44.6456 20.5572C44.141 20.2541 43.3088 19.8169 42.7969 19.5856C42.2853 19.3546 41.8786 19.1532 41.8932 19.1382C41.9498 19.0811 43.8937 19.6567 44.676 19.9623C45.8397 20.4164 46.0317 20.4753 46.1731 20.4206C46.2677 20.384 46.3136 20.1038 46.3596 19.2809ZM21.048 17.0507C20.8604 19.2934 21.7269 22.2934 23.1276 24.2501C24.2135 25.7669 25.8967 26.9457 27.1396 27.0594C27.9529 27.1339 28.1975 26.8754 27.8294 26.33C27.3184 25.5729 26.6897 24.4069 26.5233 23.9076C26.4199 23.5975 26.1957 22.6814 26.0245 21.872C25.4402 19.1083 24.8656 18.0318 23.5395 17.2145C23.0558 16.9165 22.0235 16.5267 21.4249 16.4157L21.1061 16.3568L21.048 17.0507ZM44.6608 38.8128C38.1148 36.1386 35.8092 33.8173 35.8092 29.9007C35.8092 29.3241 35.829 28.8527 35.8527 28.8527C35.8768 28.8527 36.1298 29.043 36.4154 29.2756C37.7428 30.3557 39.2293 30.8171 43.3444 31.426C45.7655 31.7848 47.1282 32.0741 48.3853 32.4973C52.3806 33.8417 54.8525 36.57 55.442 40.2865C55.6132 41.3663 55.5129 43.3912 55.2352 44.4585C55.0159 45.3015 54.3467 46.8207 54.1694 46.8791C54.1201 46.8953 54.0717 46.704 54.0592 46.4437C53.992 45.0482 53.297 43.6897 52.1299 42.6719C50.8028 41.5148 49.0198 40.5938 44.6608 38.8128ZM39.7491 38.5185C39.841 38.7963 39.9833 39.4285 40.0651 39.9238C40.5895 43.0899 38.9516 45.648 35.7654 46.6392C35.4281 46.744 34.0995 47.008 32.8129 47.2253C30.2083 47.6653 29.0461 47.9769 27.8784 48.5477C27.0501 48.9526 26.0473 49.5588 26.1069 49.619C26.1261 49.6385 26.3153 49.5927 26.527 49.5172C27.9998 48.9926 29.6386 48.7209 32.1285 48.5896C33.1168 48.5376 34.2407 48.4545 34.6263 48.4053C36.8446 48.1217 38.3822 47.4379 39.5779 46.2032C40.2431 45.516 40.6397 44.8759 40.9594 43.9733C41.162 43.4007 41.1893 43.188 41.1909 42.1736C41.1927 41.1399 41.168 40.9507 40.9484 40.3149C40.661 39.4813 40.3219 38.8559 39.8924 38.3667L39.5821 38.0135L39.7491 38.5185ZM43.0661 45.3311C42.1961 43.434 41.9966 41.6025 42.4729 39.8944C42.524 39.7117 42.6058 39.5623 42.6554 39.5623C42.7047 39.5623 42.9097 39.6751 43.1114 39.8125C43.512 40.0863 44.3159 40.5474 46.4572 41.732C49.1296 43.2103 50.6532 44.3549 51.6892 45.663C52.5965 46.8082 53.158 48.1126 53.4281 49.7033C53.5814 50.6044 53.4917 52.7726 53.2639 53.6798C52.5454 56.5407 50.8755 58.7877 48.4939 60.0991C48.145 60.291 47.8317 60.4487 47.7977 60.4496C47.7639 60.4502 47.891 60.1223 48.0802 59.7205C48.8814 58.0211 48.9727 56.368 48.3671 54.5283C47.996 53.4017 47.2398 52.027 45.7129 49.7036C43.9378 47.0025 43.5025 46.2836 43.0661 45.3311ZM26.6836 51.5534C23.9309 52.0072 20.9081 53.4854 18.479 55.5666L17.756 56.1862L18.3917 56.287C21.7081 56.8123 22.6014 57.2783 24.9018 59.683C26.2255 61.0665 26.6727 61.3745 27.771 61.659C29.3837 62.0767 30.9736 61.3091 31.519 59.8492C31.7626 59.1968 31.7301 58.1167 31.4505 57.5743C30.7856 56.2828 28.8484 55.8654 27.9119 56.8114C27.1314 57.5994 27.3589 58.7865 28.3292 58.9906C28.5512 59.0376 28.5451 59.0275 28.2726 58.9026C27.848 58.7076 27.6633 58.4375 27.6612 58.0076C27.6557 56.9996 28.7927 56.4337 29.85 56.9177C30.6244 57.2725 30.9319 57.7357 30.9319 58.5478C30.9319 59.7985 29.8829 60.7408 28.6622 60.5868C28.0095 60.5043 27.2114 60.0808 26.7837 59.5901C25.7069 58.3547 26.1264 56.4053 27.6296 55.6573C28.7742 55.0881 30.2956 55.2283 31.4752 56.012C32.8305 56.9128 33.4069 57.736 34.5743 60.4377C34.9545 61.3174 35.4436 62.3077 35.6611 62.6383C36.7671 64.3179 38.092 65.1417 39.688 65.1417C40.5682 65.1417 41.2304 64.9785 42.0635 64.5565C42.6825 64.2427 43.56 63.6466 43.4967 63.5827C43.4788 63.5647 43.2221 63.6457 42.9261 63.7627C41.1836 64.4523 39.4121 64.405 38.3834 63.6408C37.7355 63.1598 37.213 62.2016 36.9444 61.0033C36.8979 60.7958 36.7445 59.8797 36.6034 58.9674C36.2457 56.6549 35.9023 55.6154 35.1014 54.4226C34.282 53.2022 32.7067 52.178 30.9456 51.7206C29.847 51.4352 27.8705 51.3576 26.6836 51.5534ZM22.828 33.6746C23.0656 32.7836 23.8336 31.9339 24.6238 31.6876C25.1263 31.5311 26.1647 31.6311 26.6532 31.8828C27.5992 32.3711 28.2866 33.483 28.1375 34.2857C27.9553 35.2644 26.3913 36.0475 24.5919 36.0604C23.6727 36.0668 23.3335 35.9415 22.9825 35.4661C22.765 35.1715 22.6829 34.2182 22.828 33.6746ZM26.4114 32.2318C26.8835 32.5242 27.0045 32.9566 26.7274 33.3565C26.5361 33.6321 25.9445 33.894 25.512 33.894C24.8623 33.894 24.1536 33.4259 24.1536 32.9972C24.1536 32.1358 25.5129 31.6748 26.4114 32.2318ZM167.454 34.6982C165.986 29.7935 168.406 25.7247 173.572 24.4176C175.053 24.0424 181.761 24.2116 182.91 24.6532C183.332 24.8151 183.516 25.4363 183.52 26.7129C183.523 27.7182 183.632 28.9394 183.762 29.4262C183.96 30.1647 183.844 30.3099 183.069 30.2979C182.367 30.2869 181.943 29.8741 181.351 28.625C180.406 26.6298 179.26 25.9954 176.592 25.9881C173.185 25.978 170.693 28.2822 171.098 31.0661C171.363 32.8777 173.165 34.6603 177.208 37.1109C181.056 39.4419 183.301 41.359 184.196 43.0765C186.588 47.6683 184.545 52.5822 179.215 55.0581C176.478 56.3289 171.893 56.4603 168.668 55.3603L166.604 54.6557V51.3417C166.604 48.3402 166.675 48.027 167.356 48.027C167.926 48.027 168.172 48.4053 168.372 49.5902C168.869 52.5367 171.098 54.3254 174.273 54.3254C177.382 54.3254 179.556 52.6186 180.389 49.5236C180.744 48.2052 180.683 47.719 179.979 46.2646C179.136 44.5208 177.684 43.3637 172.753 40.5062C170.017 38.9203 168.083 36.8001 167.454 34.6982ZM70.7954 26.3756C70.1226 26.3756 69.8601 26.1546 69.8601 25.5881C69.8601 24.8383 70.1226 24.801 75.3947 24.801C80.2882 24.801 80.9144 24.875 80.8022 25.439C80.7319 25.7904 80.0558 26.2772 79.2987 26.5216L77.9221 26.9659L77.8046 37.0045C77.7259 43.7028 77.8366 47.5669 78.1368 48.6174C79.0295 51.7416 81.7527 53.5383 85.595 53.5383C88.2698 53.5383 89.8323 52.9101 91.7954 51.0444C93.9069 49.0387 94.2436 47.133 94.2369 37.2282C94.2306 27.4581 94.0611 26.6518 91.9724 26.4492C91.0219 26.3566 90.7034 26.1345 90.7034 25.5634C90.7034 24.8515 91.017 24.801 95.4226 24.801C99.8795 24.801 100.142 24.8447 100.142 25.5881C100.142 26.0734 99.8774 26.378 99.4534 26.3814C97.6321 26.3976 97.5986 26.5717 97.3534 37.2847C97.0992 48.4099 96.8616 49.7271 94.6172 52.4524C93.9699 53.2385 92.4262 54.3801 91.1871 54.9894C89.1677 55.9821 88.5253 56.0961 85.0009 56.0897C81.7521 56.0829 80.7265 55.9253 79.1019 55.1825C76.7306 54.0981 75.1885 52.6947 74.0515 50.5857C73.2579 49.1136 73.1901 48.317 73.0064 38.3428C72.7959 26.9259 72.694 26.3756 70.7954 26.3756ZM107.595 26.3756C106.696 26.3756 106.434 26.1977 106.434 25.5881C106.434 24.8502 106.685 24.8029 110.465 24.8334L114.496 24.8655L116.425 27.0967C117.485 28.3238 120.941 32.1624 124.105 35.6265C127.269 39.0908 130.901 43.1208 132.177 44.5822C133.452 46.044 134.653 47.2396 134.845 47.2396C135.042 47.2396 135.14 43.111 135.07 37.7571L134.946 28.2746L133.842 27.3252C133.235 26.8027 132.307 26.3756 131.778 26.3756C131.074 26.3756 130.817 26.1617 130.817 25.5771C130.817 24.8084 131.017 24.7827 136.224 24.8884C140.651 24.978 141.631 25.1023 141.631 25.5723C141.631 25.9071 141.084 26.2585 140.317 26.4156C139.594 26.5638 138.797 26.8898 138.547 27.14C138.224 27.4633 138.059 31.6421 137.979 41.5508L137.867 55.5064H136.727C135.746 55.5064 134.578 54.3972 128.333 47.5348C124.343 43.1501 119.686 37.9392 117.984 35.9549C116.282 33.9704 114.756 32.3317 114.594 32.3137C114.138 32.2623 114.248 49.9923 114.715 51.6753C115.079 52.9868 115.329 53.2126 116.876 53.6269C118.122 53.9603 118.625 54.2985 118.625 54.8008C118.625 55.4459 118.151 55.5064 113.12 55.5064C107.998 55.5064 107.614 55.455 107.614 54.7684C107.614 54.2658 107.984 53.9563 108.776 53.7977C111.177 53.3171 111.337 52.5541 111.471 40.8911C111.547 34.359 111.436 29.7886 111.178 28.8316C110.726 27.1489 109.598 26.3756 107.595 26.3756ZM148.832 26.3756C147.989 26.3756 147.727 26.1886 147.727 25.5881C147.727 24.8359 147.989 24.801 153.626 24.801C159.263 24.801 159.525 24.8359 159.525 25.5881C159.525 26.1656 159.263 26.3756 158.542 26.3756C158.001 26.3756 157.198 26.737 156.756 27.1785C155.977 27.9586 155.957 28.3464 156.068 40.3986C156.176 52.1639 156.222 52.8447 156.945 53.3736C157.366 53.6807 158.117 53.9318 158.617 53.9318C159.263 53.9318 159.525 54.1589 159.525 54.7193C159.525 55.4715 159.263 55.5064 153.626 55.5064C148.123 55.5064 147.727 55.4569 147.727 54.7697C147.727 54.2154 148.113 53.9706 149.285 53.783C151.612 53.4106 151.731 52.6479 151.586 39.0389C151.47 28.1404 151.42 27.4609 150.7 26.9338C150.28 26.6267 149.439 26.3756 148.832 26.3756ZM189.98 26.3756C189.442 26.3756 189.033 26.0761 188.906 25.5881C188.708 24.827 188.894 24.801 194.563 24.801C200.162 24.801 200.425 24.8359 200.425 25.5881C200.425 26.1931 200.162 26.3756 199.293 26.3756C196.817 26.3756 196.873 26.8259 200.62 37.1209C202.527 42.3615 204.379 47.3395 204.735 48.1832L205.382 49.7174L208.385 41.6877C211.921 32.2361 212.381 30.488 211.78 28.7644C211.362 27.5629 209.734 26.3756 208.506 26.3756C208.159 26.3756 207.897 26.037 207.897 25.5881C207.897 24.8346 208.159 24.801 213.993 24.801C219.826 24.801 220.088 24.8346 220.088 25.5881C220.088 26.1485 219.826 26.3756 219.18 26.3756C217.527 26.3756 216.798 27.2583 217.035 28.9728C217.28 30.7382 224.043 49.7097 224.327 49.4259C224.789 48.9642 232.279 28.5413 232.279 27.745C232.279 26.7914 231.613 26.3756 230.084 26.3756C229.396 26.3756 229.133 26.1586 229.133 25.5881C229.133 24.8447 229.396 24.801 233.853 24.801C237.855 24.801 238.572 24.8939 238.572 25.4121C238.572 25.7483 238.081 26.1944 237.482 26.4031C236.134 26.8736 235.795 27.4105 234.104 31.76C233.362 33.67 231.038 39.6479 228.939 45.0433C227.599 48.4873 226.261 51.9319 224.924 55.3771C224.813 55.6649 224.163 55.9002 223.478 55.9002H222.233L219.409 48.519C218.045 44.9582 216.685 41.3957 215.33 37.8316C214.148 34.7153 214.049 34.58 213.604 35.4694C213.344 35.9892 211.478 40.8071 209.456 46.1763L205.779 55.9387L204.407 55.8211L203.035 55.7034L197.802 41.956C194.878 34.2753 192.19 27.8037 191.709 27.2919C191.236 26.7877 190.458 26.3756 189.98 26.3756ZM268.615 26.5424C268.549 26.393 268.549 25.8555 268.549 25.8555C268.549 25.8555 268.535 25.6618 268.615 25.5582C268.696 25.4552 268.725 25.4525 269.014 25.425L269.017 25.4247C270.079 25.3232 272.209 25.1524 273.987 25.0745C274.149 25.0675 274.33 25.0592 274.527 25.0501H274.535C276.492 24.9605 279.993 24.8414 282.4 24.9621C287.017 25.194 290.301 27.4358 291.42 31.141C292.539 34.8458 291.948 38.3236 290.422 40.5373C288.896 42.751 286.331 44.6571 282.068 44.533C278.548 44.4307 277.606 43.7685 276.853 43.2396C276.694 43.1278 276.544 43.0218 276.379 42.9286V47.6533C276.416 50.8757 276.443 52.4233 276.691 52.9962C277.026 53.7675 277.782 54.2426 279.256 54.6068C279.256 54.6068 279.923 54.7639 280.095 54.9313C280.267 55.0987 280.267 55.4706 280.267 55.4706C280.267 55.4706 280.302 55.8183 280.164 55.9955C280.026 56.1728 279.759 56.1373 279.759 56.1373L273.232 56.0845L269.296 56.0741C269.296 56.0741 268.883 56.1535 268.728 55.9867C268.574 55.8195 268.588 55.4715 268.588 55.4715C268.588 55.4715 268.622 55.0966 268.803 54.9289C268.983 54.7608 269.655 54.5732 269.655 54.5732C271.173 54.1451 271.831 53.6923 272.175 52.8392C272.452 52.1514 272.454 50.876 272.451 40.468C272.449 30.5977 272.434 28.7564 272.209 28.2269C271.876 27.4432 271.041 27.2354 269.852 26.9396C269.617 26.8809 269.366 26.8189 269.104 26.7483C269.104 26.7483 268.681 26.6921 268.615 26.5424ZM287.621 34.5965C287.621 36.215 287.593 38.7489 285.878 40.3687C284.162 41.9884 280.785 42.4318 278.493 41.9808C277.77 41.8387 277.357 41.6196 277.038 41.4506L277.007 41.4338L276.42 41.1234L276.386 35.4367C276.364 31.8737 276.402 29.5524 276.485 29.2206C276.562 27.3414 279.32 27.108 280.668 27.1776C286.435 27.1776 287.453 32.0585 287.621 34.5965ZM250.506 25.0213C250.506 25.0213 250.225 25.1301 249.798 25.2927L248.258 26.0917L247.149 28.8722C246.539 30.4018 245.424 33.2092 244.67 35.1113C243.599 37.8193 242.522 40.5247 241.438 43.2274C241.157 43.9262 240.31 46.0541 239.555 47.9561C238.8 49.8579 238.046 51.668 237.879 51.9784C237.851 52.0301 237.821 52.0857 237.79 52.1444C237.368 52.9412 236.635 54.3254 235.34 54.5347C235.34 54.5347 234.628 54.605 234.365 54.8665C234.101 55.1284 234.127 55.3423 234.127 55.3423V55.672C234.127 55.672 234.151 55.8318 234.3 55.9112C234.449 55.991 234.652 55.9955 234.652 55.9955L239.388 55.9415H244.283C244.283 55.9415 244.629 55.9821 244.763 55.8709C244.896 55.7597 244.933 55.5947 244.933 55.5947V55.2476C244.933 55.2476 244.865 54.8711 244.671 54.7241C244.477 54.5775 243.751 54.4769 243.751 54.4769C241.791 54.2181 241.454 52.7292 241.695 51.3903C241.814 50.7324 242.602 48.299 243.489 45.8491L243.796 45.0024L248.925 44.9629C251.746 44.9413 254.182 44.9559 254.338 44.9956C254.56 45.0522 254.872 45.688 255.787 47.9528C257.174 51.3841 257.285 51.8021 256.978 52.4441C256.959 52.4832 256.939 52.5263 256.918 52.5727C256.629 53.1936 256.07 54.4 254.661 54.5228C254.661 54.5228 253.913 54.5488 253.727 54.7733C253.541 54.9982 253.581 55.2567 253.581 55.2567V55.6002C253.581 55.6002 253.631 55.8015 253.727 55.8813C253.823 55.961 253.985 55.9409 253.985 55.9409L258.641 55.9072L265.186 55.9069C265.186 55.9069 265.443 55.9344 265.513 55.8354C265.582 55.7361 265.597 55.6194 265.597 55.6194V55.1632C265.597 55.1632 265.568 54.9206 265.442 54.7868C265.317 54.6533 264.468 54.5121 264.468 54.5121C263.384 54.3364 262.844 53.4375 262.442 52.768C262.339 52.5972 262.246 52.4414 262.154 52.3164C261.968 52.0612 261.302 50.663 260.781 49.3183C260.26 47.9736 259.084 44.9358 258.168 42.568C257.252 40.2003 255.974 36.8973 255.327 35.2283C254.29 32.549 253.254 29.8693 252.219 27.1892L252.219 27.188C251.645 25.7021 251.414 25.1026 251.351 25.0216C251.145 24.758 250.506 25.0213 250.506 25.0213ZM250.202 34.063C249.929 33.394 249.66 32.7236 249.394 32.0518C248.962 30.9582 248.798 30.7065 248.664 30.9323C248.625 30.9983 248.353 31.7456 248.06 32.5933C246.162 38.081 245.302 40.552 245.13 41.0177C245.022 41.3104 244.933 41.6119 244.933 41.688C244.933 41.7754 246.477 41.8264 249.122 41.8264C251.426 41.8264 253.311 41.7977 253.311 41.7626C253.311 41.7275 253.105 41.2037 252.854 40.5981C252.603 39.9925 251.988 38.4809 251.488 37.2389C250.987 35.9968 250.408 34.5677 250.202 34.063Z" fill="white"/>
</svg>