<svg xmlns="http://www.w3.org/2000/svg" width="127" height="43" viewBox="0 0 127 43" fill="none">
  <path d="M17.6242 33.0406C17.6242 32.2762 17.6242 31.4162 17.6242 30.6519C17.6242 30.2697 17.5286 30.1741 17.1464 29.983C13.6111 28.7409 11.4135 26.2566 10.8402 22.5302C9.9803 17.084 13.8022 12.4976 18.8663 11.8288C23.9304 11.2555 28.2301 14.3131 29.2811 19.2816C30.2366 23.7724 27.6568 28.2631 23.0705 29.983C22.6883 30.0785 22.5927 30.2697 22.5927 30.5563C22.5927 32.1807 22.5927 33.805 22.5927 35.3338C22.5927 35.716 22.6883 35.907 23.0705 35.6204C26.7013 33.7094 30.3321 31.894 33.963 30.0786C34.4407 29.7919 34.6318 29.4097 34.6318 28.932C34.6318 28.0721 34.6318 27.3077 34.6318 26.4478C34.6318 26.1611 34.7274 25.97 35.1096 25.97C36.4473 25.97 37.8805 25.97 39.2182 25.97C39.5048 25.97 39.6959 25.97 39.6959 26.3522C39.6004 27.5943 39.7915 28.932 39.6004 30.1741C39.3137 32.0851 38.2627 33.5183 36.5428 34.3783C31.9565 36.767 27.3701 39.0601 22.7838 41.4488C21.0639 42.3088 19.2485 42.4044 17.4331 41.5444C13.1334 39.3468 8.83371 37.1492 4.53402 34.9515C3.38744 34.3782 2.33641 33.7094 1.57202 32.6584C0.903182 31.7029 0.520982 30.6519 0.520982 29.6008C0.425433 28.5498 0.520982 27.4987 0.520982 26.3522C0.520982 26.0655 0.616524 25.97 0.90317 25.97C2.3364 25.97 3.76963 25.97 5.20286 25.97C5.4895 25.97 5.58506 26.0655 5.58506 26.3522C5.58506 27.2121 5.58506 28.0721 5.58506 28.932C5.58506 29.4097 5.77615 29.7919 6.2539 29.983C9.88474 31.7984 13.5156 33.7094 17.0509 35.5249C17.5286 35.8115 17.6242 35.7159 17.6242 35.1426C17.5286 34.6649 17.6242 33.805 17.6242 33.0406ZM20.1084 16.8929C17.7197 16.8929 15.8088 18.8038 15.8088 21.2881C15.8088 23.5813 17.8153 25.4923 20.1084 25.4923C22.4972 25.4923 24.3126 23.5813 24.3126 21.097C24.4081 18.8038 22.4016 16.8929 20.1084 16.8929Z" fill="white"/>
  <path d="M48.3828 34.3806C49.1472 32.2785 49.816 30.1764 50.4849 28.1699C52.4914 22.437 54.4024 16.6085 56.4089 10.8756C56.8866 9.44234 57.9377 8.58243 59.4665 8.39133C60.8041 8.20023 62.0462 8.678 62.9062 9.72903C63.4795 10.3979 63.6706 11.2578 63.8617 12.0222C66.3459 19.2839 68.8302 26.5455 71.2189 33.8072C71.41 34.4761 71.41 34.4761 70.7412 34.4761C69.4035 34.4761 68.0658 34.4761 66.7281 34.4761C66.1548 34.4761 65.8682 34.285 65.7726 33.7117C65.3904 32.1829 64.9127 30.6542 64.435 29.1254C64.3394 28.7432 64.2439 28.6476 63.8617 28.7432C61.2819 29.5076 58.7021 29.5076 56.1223 28.7432C55.6445 28.5521 55.4534 28.7432 55.3578 29.2209C54.8801 30.7497 54.4024 32.374 53.9246 33.9028C53.8291 34.0939 53.8291 34.3806 53.4469 34.3806C51.8226 34.3806 50.1027 34.3806 48.3828 34.3806ZM59.9442 25.0168C60.8041 25.0168 61.7596 24.9212 62.6195 24.6346C62.9062 24.539 63.0973 24.4435 63.0017 24.0613C62.1418 21.0993 61.1863 18.1373 60.3264 15.1753C60.3264 14.9842 60.2308 14.7931 60.0397 14.7931C59.8486 14.7931 59.7531 14.9842 59.7531 15.1753C59.562 15.7485 59.3709 16.4174 59.1798 17.0862C58.511 19.3794 57.7466 21.6726 57.0777 23.9657C56.9822 24.3479 57.0777 24.539 57.4599 24.6346C58.2243 24.8257 59.0843 24.9213 59.9442 25.0168Z" fill="white"/>
  <path d="M3.09836 16.7059C2.42952 16.7059 1.66514 16.7059 0.996298 16.7059C0.805201 16.7059 0.61411 16.7059 0.61411 16.4193C0.709658 14.9861 0.42301 13.5528 0.805204 12.1196C1.1874 10.3997 2.23843 9.06202 3.86276 8.20208C8.35354 5.81337 12.9399 3.52022 17.4307 1.22705C19.1505 0.367112 21.0615 0.271587 22.7814 1.13152C26.6989 3.13804 30.6164 5.14455 34.5339 7.15107C35.5849 7.62882 36.6359 8.10657 37.4959 8.77541C38.9291 9.92199 39.6935 11.3552 39.789 13.1706C39.8846 14.2217 39.789 15.1772 39.789 16.2282C39.789 16.6104 39.6935 16.7059 39.3113 16.7059C37.9736 16.7059 36.6359 16.7059 35.2982 16.7059C34.8205 16.7059 34.7249 16.5148 34.8205 16.1326C34.8205 15.3682 34.8205 14.5083 34.8205 13.7439C34.8205 13.2661 34.6294 12.884 34.1517 12.6929C29.7564 10.3997 25.3612 8.20212 20.8704 5.90895C20.3927 5.62231 20.0105 5.71786 19.5327 5.90895C15.1375 8.20212 10.7423 10.3997 6.34702 12.5974C5.86928 12.884 5.58262 13.1706 5.67817 13.7439C5.67817 14.6038 5.67817 15.3683 5.67817 16.2282C5.67817 16.5148 5.58262 16.7059 5.20043 16.7059C4.43604 16.7059 3.7672 16.7059 3.09836 16.7059Z" fill="white"/>
  <path d="M112.879 34.3838C111.063 34.3838 109.439 34.3838 107.719 34.3838C107.433 34.3838 107.337 34.1927 107.146 34.0016C105.139 31.1352 103.133 28.3643 101.222 25.4978C101.126 25.4023 101.031 25.3067 100.935 25.1156C100.744 25.3067 100.84 25.4978 100.84 25.5933C100.84 28.2687 100.84 30.9441 100.84 33.715C100.84 34.1927 100.744 34.3838 100.266 34.3838C99.0244 34.3838 97.8778 34.3838 96.6356 34.3838C96.1579 34.3838 95.9668 34.2883 95.9668 33.715C95.9668 27.5999 95.9668 21.3892 95.9668 15.2741C95.9668 13.0765 95.9668 10.9744 95.9668 8.77682C95.9668 8.29907 96.0624 8.20349 96.5401 8.20349C97.7822 8.20349 99.0244 8.20349 100.266 8.20349C100.744 8.20349 100.84 8.39462 100.84 8.77682C100.84 12.981 100.84 17.185 100.84 21.3892C100.84 21.5803 100.84 21.7714 100.84 22.058C101.126 22.058 101.126 21.7714 101.318 21.6759C102.942 19.4783 104.566 17.2806 106.191 15.083C106.382 14.8919 106.477 14.7008 106.764 14.7008C108.579 14.7008 110.299 14.7008 112.21 14.7008C111.732 15.3696 111.255 15.9429 110.777 16.5162C109.153 18.5228 107.624 20.5293 105.999 22.5358C105.235 23.4913 105.235 23.5869 105.904 24.5423C108.006 27.5999 110.204 30.5619 112.306 33.6195C112.592 33.9061 112.688 34.0972 112.879 34.3838Z" fill="white"/>
  <path d="M86.8004 34.1884C86.8004 31.8952 86.8004 29.6021 86.8004 27.3089C86.8004 25.0157 86.8004 22.7225 86.8004 20.4294C86.8959 20.4294 86.8959 20.3339 86.8004 20.3339C86.5137 19.3784 86.2271 19.2828 85.2716 19.2828C83.7428 19.2828 82.3096 19.2828 80.7808 19.2828C79.8253 19.2828 79.4431 19.665 79.4431 20.6205C79.4431 25.0157 79.4431 29.411 79.4431 33.9018C79.4431 34.4751 79.252 34.5706 78.7743 34.5706C77.5322 34.5706 76.29 34.5706 75.0479 34.5706C74.6657 34.5706 74.4746 34.4751 74.4746 34.0929C74.4746 29.1243 74.4746 24.1558 74.4746 19.0917C74.4746 16.9897 76.3856 14.9832 78.5832 14.9832C81.5452 14.9832 84.5072 14.9832 87.4692 14.9832C89.6668 14.9832 91.5778 16.8941 91.5778 19.0917C91.5778 24.0603 91.5778 29.1243 91.5778 34.0929C91.5778 34.3795 91.5778 34.5706 91.1956 34.5706C89.7624 34.5706 88.4247 34.5706 86.9915 34.5706C86.8959 34.5706 86.8004 34.5706 86.7048 34.475C86.8959 34.1884 86.8959 34.1884 86.8004 34.1884Z" fill="white"/>
  <path d="M115.75 26.3592C115.75 23.9705 115.75 21.5818 115.75 19.1931C115.75 16.7088 117.661 14.7979 120.05 14.7979C122.056 14.7979 124.158 14.7979 126.165 14.7979C126.547 14.7979 126.738 14.8934 126.642 15.3711C126.642 16.4222 126.642 17.5688 126.642 18.6198C126.642 19.0975 126.547 19.1931 126.069 19.1931C124.636 19.1931 123.298 19.1931 121.865 19.1931C121.005 19.1931 120.527 19.5753 120.527 20.5308C120.527 24.926 120.527 29.3212 120.527 33.812C120.527 34.3853 120.336 34.4808 119.858 34.4808C118.712 34.4808 117.565 34.3853 116.323 34.4808C115.75 34.4808 115.654 34.2898 115.654 33.7165C115.75 31.2322 115.75 28.7479 115.75 26.3592Z" fill="white"/>
  <path d="M123.4 32.7595C123.4 31.8038 124.069 31.1349 125.025 31.0393C125.981 31.0393 126.65 31.8038 126.745 32.6639C126.745 33.6196 125.981 34.2886 125.121 34.3841C124.165 34.3841 123.4 33.7152 123.4 32.7595ZM125.025 34.0018C125.79 34.0018 126.363 33.4285 126.363 32.7595C126.363 32.0905 125.694 31.4215 125.025 31.4215C124.356 31.4215 123.783 31.995 123.783 32.6639C123.783 33.4285 124.356 34.0018 125.025 34.0018Z" fill="white"/>
  <path d="M86.8008 20.2428C86.9007 20.2428 86.9007 20.3427 86.8008 20.3427C86.8008 20.3427 86.8008 20.3427 86.8008 20.2428Z" fill="white"/>
  <path d="M86.8008 34.1917C86.9007 34.1917 86.9007 34.2916 86.8008 34.2916C86.8008 34.1916 86.8008 34.1917 86.8008 34.1917Z" fill="white"/>
  <path d="M125.012 34.001C124.343 34.001 123.77 33.4276 123.77 32.6631C123.77 31.9941 124.343 31.4207 125.012 31.4207C125.681 31.4207 126.35 32.0896 126.35 32.7586C126.35 33.4276 125.776 34.0965 125.012 34.001ZM124.439 32.6631C124.439 32.8542 124.439 33.1408 124.439 33.332C124.439 33.4275 124.534 33.5231 124.534 33.5231C124.63 33.5231 124.725 33.5231 124.725 33.4276C124.916 32.5675 125.107 33.1409 125.299 33.4276C125.394 33.5231 125.49 33.6187 125.585 33.5231C125.776 33.4276 125.585 33.332 125.585 33.2364C125.394 33.0453 125.585 32.8542 125.681 32.7586C125.872 32.3763 125.681 31.9941 125.203 31.9941C124.438 31.803 124.439 31.8985 124.439 32.6631Z" fill="white"/>
  <path d="M125.013 32.2798C125.205 32.2798 125.3 32.2798 125.3 32.4711C125.3 32.6623 125.109 32.758 125.013 32.758C124.822 32.758 124.727 32.6623 124.727 32.4711C124.727 32.2798 124.918 32.2798 125.013 32.2798Z" fill="white"/>
</svg>