<svg xmlns="http://www.w3.org/2000/svg" width="135" height="40" viewBox="0 0 135 40" fill="none">
  <path d="M57.2156 7.77742H55.0152L51.1406 21.3321H55.4464L58.7192 9.88276C58.8055 9.63651 58.8329 9.37347 58.7992 9.11472C58.7655 8.85597 58.6717 8.60871 58.5252 8.39276C58.3751 8.18958 58.1768 8.0269 57.9482 7.91949C57.7195 7.81208 57.4678 7.76325 57.2156 7.77742Z" fill="white"/>
  <path d="M60.2151 4.72646C60.0266 5.32419 59.6607 5.85045 59.1661 6.23537C58.6715 6.62029 58.0715 6.84568 57.4458 6.8816C57.1824 6.89508 56.9198 6.84201 56.6823 6.72728C56.4448 6.61255 56.24 6.43984 56.0869 6.22511C55.9337 6.01039 55.8371 5.76048 55.8059 5.49857C55.7748 5.23665 55.8101 4.97114 55.9086 4.72646C56.0965 4.1287 56.4622 3.6025 56.9571 3.21808C57.4519 2.83366 58.0522 2.6093 58.6778 2.57503C58.9411 2.56083 59.2037 2.61334 59.4413 2.72761C59.6789 2.84187 59.8838 3.0142 60.0371 3.22872C60.1903 3.44323 60.287 3.69301 60.3181 3.95481C60.3492 4.21661 60.3138 4.482 60.2151 4.72646Z" fill="white"/>
  <path d="M77.7844 7.03686C76.937 7.03127 76.097 7.19463 75.3134 7.51744C74.936 7.68416 74.5776 7.89128 74.2448 8.13519L75.2331 4.66713C75.3191 4.42207 75.3463 4.1603 75.3126 3.90279C75.2789 3.64529 75.1852 3.39923 75.0391 3.18452C74.8907 2.98097 74.6937 2.81787 74.466 2.70997C74.2383 2.60207 73.9873 2.55281 73.7357 2.56677H71.6354L66.2832 21.3241H70.4765L72.5385 14.115C72.7581 13.1751 73.2277 12.3119 73.8976 11.6168C74.148 11.3525 74.4503 11.1427 74.7856 11.0007C75.1209 10.8587 75.4819 10.7875 75.8459 10.7915C76.1342 10.7622 76.4242 10.8266 76.6728 10.9753C76.9215 11.124 77.1155 11.349 77.226 11.6168C77.4794 12.4346 77.4537 13.3134 77.1531 14.115L75.0911 21.3241H79.3338L81.3538 14.2583C81.9747 12.5721 81.954 10.7165 81.2957 9.04454C80.9778 8.39757 80.4735 7.86055 79.8477 7.50273C79.2219 7.14492 78.5033 6.98269 77.7844 7.03686Z" fill="white"/>
  <path d="M115.959 7.01052C113.978 6.96933 112.031 7.52938 110.375 8.61673C110.019 8.0848 109.529 7.65616 108.955 7.37414C108.38 7.09213 107.742 6.96667 107.103 7.01052C106.256 7.00497 105.416 7.1684 104.632 7.49118C104.169 7.6956 103.735 7.95885 103.34 8.27445C103.283 7.90779 103.092 7.57561 102.802 7.34345C102.513 7.11129 102.147 6.99607 101.777 7.02048H99.6766L95.5957 21.3139H99.789L101.854 14.09C102.074 13.1506 102.543 12.2881 103.213 11.593C103.463 11.3287 103.765 11.1189 104.101 10.9769C104.436 10.8349 104.797 10.7636 105.161 10.7677C105.449 10.7383 105.739 10.8028 105.988 10.9515C106.236 11.1002 106.43 11.3252 106.541 11.593C106.794 12.4104 106.769 13.2888 106.468 14.09L104.404 21.3139H108.65L110.716 14.09C110.936 13.1506 111.405 12.288 112.075 11.593C112.325 11.3289 112.628 11.1193 112.963 10.9773C113.298 10.8353 113.659 10.7639 114.023 10.7677C114.312 10.7386 114.602 10.8031 114.851 10.9518C115.1 11.1004 115.294 11.3253 115.406 11.593C115.659 12.4105 115.633 13.289 115.332 14.09L113.268 21.3139H117.51L119.532 14.2357C120.153 12.5495 120.132 10.6939 119.474 9.02198C119.157 8.37337 118.652 7.83493 118.026 7.47632C117.399 7.11772 116.679 6.95541 115.959 7.01052Z" fill="white"/>
  <path d="M82.5522 15.1543L84.8824 7H89.1239L86.7937 15.1543C86.1055 17.5623 88.3677 17.5512 88.3677 17.5512C89.0672 17.5416 89.7439 17.3015 90.293 16.8682C90.842 16.4348 91.2328 15.8324 91.4046 15.1543L93.7335 7H97.928L95.5979 15.1543C95.0922 16.9557 94.002 18.5379 92.4988 19.6519C90.9956 20.766 89.1647 21.3486 87.2941 21.3083C87.2941 21.3083 80.6743 21.7408 82.5522 15.1543Z" fill="white"/>
  <path d="M133.943 14.2439C134.563 12.5575 134.542 10.7021 133.885 9.03001C133.568 8.38361 133.065 7.8468 132.441 7.48858C131.816 7.13035 131.099 6.96707 130.381 7.01984C129.533 7.01378 128.693 7.17723 127.91 7.50049C127.532 7.66684 127.173 7.87398 126.84 8.11824L127.828 4.67243C127.914 4.42735 127.941 4.1657 127.907 3.90832C127.874 3.65093 127.781 3.40491 127.636 3.18982C127.487 2.98642 127.289 2.82337 127.062 2.7155C126.834 2.60763 126.583 2.55835 126.331 2.57207H124.231L120.675 15.016C118.728 21.8273 125.617 21.3171 125.617 21.3171C125.617 21.3171 131.883 21.4592 133.943 14.2439ZM129.742 14.1005C129.506 15.0832 129.026 15.9904 128.346 16.7383C128.096 17.0031 127.793 17.2131 127.458 17.3554C127.122 17.4976 126.761 17.569 126.396 17.5649C126.101 17.5974 125.802 17.5342 125.545 17.3846C125.287 17.2349 125.085 17.0066 124.967 16.7333C124.738 15.8604 124.796 14.937 125.131 14.0993C125.352 13.1596 125.821 12.2966 126.49 11.6011C126.741 11.3368 127.044 11.1272 127.379 10.9852C127.715 10.8432 128.076 10.7719 128.44 10.7758C128.728 10.7469 129.018 10.8116 129.266 10.9603C129.514 11.1089 129.708 11.3336 129.819 11.6011C130.072 12.4191 130.045 13.2984 129.742 14.0993V14.1005Z" fill="white"/>
  <path d="M66.4874 4.67163C66.5732 4.42655 66.6004 4.16477 66.5667 3.90728C66.533 3.6498 66.4394 3.40376 66.2934 3.18901C66.153 2.9888 65.9643 2.82727 65.7449 2.71929C65.5255 2.61131 65.2824 2.56038 65.0381 2.57126H62.8451L58.3244 18.419C57.7067 20.6034 58.7791 21.1582 59.7971 21.2397C60.515 21.2978 61.3773 21.3286 62.2236 21.3286C62.7673 21.3286 63.2899 21.3163 63.731 21.2903L64.1646 21.2632L65.1345 17.8705H63.2405C62.7228 17.8705 62.7772 17.6814 62.8278 17.4998L64.7787 10.6428H65.3087C65.9046 10.6334 66.4807 10.4281 66.9482 10.0585C67.4592 9.68713 67.8307 9.15502 68.0033 8.54742L68.3283 7.41696H65.7016L66.4874 4.67163Z" fill="white"/>
  <path d="M51.6609 14.2431C52.2812 12.5568 52.2605 10.7014 51.6028 9.02928C51.286 8.38287 50.783 7.84607 50.1586 7.48785C49.5342 7.12962 48.8169 6.96634 48.099 7.0191C47.2515 7.01328 46.4114 7.17673 45.628 7.49976C45.25 7.66639 44.8913 7.87351 44.558 8.11751L45.5464 4.6717C45.6318 4.42662 45.6589 4.16497 45.6255 3.90758C45.592 3.6502 45.4989 3.40418 45.3537 3.18909C45.2048 2.98569 45.0075 2.82264 44.7796 2.71477C44.5518 2.6069 44.3007 2.55762 44.049 2.57134H41.9486L38.3916 15.0153C36.4445 21.8266 43.3336 21.3163 43.3336 21.3163C43.3336 21.3163 49.5976 21.4584 51.6609 14.2431ZM47.4602 14.0998C47.224 15.0824 46.7439 15.9897 46.0641 16.7376C45.8138 17.0025 45.5113 17.2127 45.1758 17.3549C44.8403 17.4972 44.4789 17.5684 44.1145 17.5641C43.8186 17.5965 43.5202 17.5332 43.2629 17.3836C43.0056 17.234 42.8031 17.0058 42.685 16.7326C42.4562 15.8596 42.5138 14.9363 42.8493 14.0986C43.0697 13.1589 43.5392 12.2959 44.2084 11.6003C44.4592 11.3362 44.7617 11.1266 45.0972 10.9846C45.4326 10.8426 45.7937 10.7713 46.158 10.7751C46.446 10.7462 46.7356 10.8109 46.984 10.9595C47.2323 11.1082 47.4262 11.3329 47.5368 11.6003C47.7903 12.4184 47.7633 13.2976 47.4602 14.0986V14.0998Z" fill="white"/>
  <path d="M62.5562 36.4703C61.4865 37.4097 60.101 37.9098 58.6779 37.8701C58.1049 37.9224 57.5282 37.8239 57.005 37.5844C56.4818 37.345 56.0303 36.9728 55.6954 36.5049C54.7923 35.2286 55.2087 33.6361 55.7597 31.537C56.3107 29.4378 56.7271 27.8452 58.3011 26.5677C59.3272 25.6797 60.642 25.1966 61.999 25.2087C65.1038 25.2087 65.8796 27.2893 65.6313 29.3365H62.6476C62.6587 28.3926 62.3029 27.9379 61.2886 27.9379C60.7969 27.9412 60.3259 28.1357 59.9752 28.4803C59.6046 28.851 59.3291 29.2661 58.7323 31.5419C58.1356 33.8176 58.1899 34.2538 58.3617 34.6207C58.4651 34.7983 58.6176 34.9423 58.8007 35.0354C58.9839 35.1285 59.1901 35.1668 59.3946 35.1458C59.9225 35.1634 60.4387 34.9877 60.8462 34.6516C61.2484 34.304 61.5307 33.8383 61.653 33.321L61.7 33.1456H59.9184L60.5893 30.5918H65.32L64.8666 32.3215C64.591 33.9271 63.776 35.3906 62.5562 36.4703Z" fill="#EC7000"/>
  <path d="M65.1523 37.7657L68.4202 25.3106H69.2851C69.5441 25.2975 69.8024 25.3487 70.0368 25.4598C70.2712 25.5708 70.4745 25.7381 70.6284 25.9469C70.7824 26.1557 70.8822 26.3994 70.919 26.6561C70.9558 26.9129 70.9284 27.1748 70.8393 27.4184L68.8428 35.0377H73.9083L73.193 37.7669L65.1523 37.7657Z" fill="#EC7000"/>
  <path d="M82.3933 36.5036C81.363 37.3977 80.0409 37.8833 78.6769 37.8688C78.1013 37.9226 77.5215 37.8249 76.9953 37.5854C76.4691 37.3459 76.0146 36.973 75.6771 36.5036C74.774 35.2273 75.1928 33.6348 75.7414 31.5357C76.2899 29.4365 76.7112 27.8439 78.2852 26.5664C79.3166 25.6749 80.6384 25.1915 82.0016 25.2074C82.5765 25.1529 83.1557 25.2496 83.6817 25.488C84.2077 25.7264 84.6622 26.0982 85.0002 26.5664C85.9046 27.8439 85.487 29.4353 84.9359 31.5357C84.3849 33.636 83.9673 35.2286 82.3933 36.5036ZM82.329 28.4729C82.2246 28.2922 82.0707 28.1452 81.8856 28.0491C81.7004 27.953 81.4916 27.9118 81.2838 27.9304C80.7878 27.934 80.3123 28.1282 79.9557 28.4729C79.585 28.8435 79.3082 29.2586 78.7115 31.5344C78.1147 33.8102 78.179 34.2105 78.3544 34.5786C78.4564 34.7614 78.6085 34.9113 78.7928 35.0105C78.9771 35.1097 79.186 35.154 79.3947 35.1383C79.8948 35.1294 80.3723 34.9291 80.729 34.5786C81.0997 34.208 81.3727 33.8089 81.9645 31.5344C82.5563 29.2598 82.5057 28.8423 82.329 28.4753V28.4729Z" fill="#EC7000"/>
  <path d="M90.2734 37.7635H85.0176L88.2855 25.3085H93.288C95.7985 25.3085 96.756 26.7589 96.1914 28.9124C95.875 29.9575 95.1702 30.8418 94.222 31.3834C94.6447 31.6762 94.9534 32.106 95.0956 32.6002C95.2379 33.0944 95.2052 33.6226 95.0029 34.0953C94.7519 35.1549 94.1459 36.0966 93.2854 36.764C92.425 37.4313 91.3621 37.7841 90.2734 37.7635ZM92.3811 28.0537H90.5279L89.9954 30.0824H91.8486C92.1549 30.0976 92.4566 30.0043 92.7009 29.8191C92.9451 29.6338 93.1163 29.3683 93.1842 29.0693C93.3127 28.5801 93.1953 28.0549 92.3811 28.0549V28.0537ZM91.2803 32.8289H89.28L88.7055 35.0145H90.7083C91.029 35.0173 91.3409 34.9094 91.5913 34.7088C91.8416 34.5082 92.015 34.2273 92.0821 33.9137C92.218 33.3898 92.0945 32.8302 91.2803 32.8302V32.8289Z" fill="#EC7000"/>
  <path d="M102.512 37.7636L102.439 35.9104H98.7255L97.6444 37.7636H94.5371L102.197 25.3086H104.487L105.612 37.7636H102.512ZM102.184 30.0306L100.227 33.3541H102.327L102.184 30.0306Z" fill="#EC7000"/>
  <path d="M106.5 37.7657L109.768 25.3106H110.641C110.899 25.2975 111.155 25.3482 111.388 25.4583C111.621 25.5684 111.822 25.7345 111.975 25.9417C112.128 26.1488 112.228 26.3906 112.264 26.6455C112.301 26.9004 112.274 27.1604 112.186 27.4023L110.183 35.0377H115.256L114.541 37.7669L106.5 37.7657Z" fill="#EC7000"/>
  <path d="M49.7608 32.4783H38.7401C38.0915 32.4783 37.769 31.9532 38.0173 31.3046C38.1519 30.9773 38.3752 30.6939 38.662 30.4866C38.9488 30.2792 39.2878 30.156 39.6408 30.1309H50.6614C51.3101 30.1309 51.6325 30.656 51.3842 31.3046C51.2494 31.6318 51.0261 31.9149 50.7393 32.1223C50.4526 32.3296 50.1137 32.4529 49.7608 32.4783Z" fill="#EC7000"/>
  <path d="M132.554 32.4783H121.533C120.884 32.4783 120.562 31.9532 120.81 31.3046C120.945 30.9773 121.168 30.6939 121.455 30.4866C121.742 30.2792 122.081 30.156 122.434 30.1309H133.454C134.103 30.1309 134.426 30.656 134.177 31.3046C134.042 31.6318 133.819 31.9149 133.532 32.1223C133.246 32.3296 132.907 32.4529 132.554 32.4783Z" fill="#EC7000"/>
  <path d="M1.15709 16.4313C0.958049 16.8982 0.88134 17.4083 0.93421 17.9131C0.98708 18.418 1.16778 18.9011 1.45924 19.3167C1.75071 19.7323 2.14333 20.0668 2.59999 20.2885C3.05666 20.5102 3.56229 20.6118 4.06915 20.5838H5.13292L8.1216 10.082H2.98439L1.15709 16.4313Z" fill="#D62817"/>
  <path d="M29.5166 14.1472C28.1353 11.3822 25.7038 10.0614 22.2938 10.0614H15.9174L12.9337 20.6249H17.4606C17.8124 20.5689 18.1728 20.6309 18.4857 20.8012C18.7986 20.9715 19.0463 21.2405 19.1903 21.5664C19.5095 22.5946 19.4782 23.6997 19.1013 24.7083C18.8057 25.9455 18.2042 27.0887 17.3518 28.033C17.0393 28.3656 16.6612 28.6298 16.2415 28.8091C15.8217 28.9884 15.3694 29.0787 14.913 29.0745C14.5415 29.1152 14.1668 29.0351 13.8443 28.8462C13.5219 28.6573 13.2689 28.3695 13.1227 28.0256C12.8366 26.9261 12.9084 25.7641 13.3278 24.7083L18.8876 5.10955C19.0641 4.60196 19.1199 4.06022 19.0507 3.5273C18.9814 2.99438 18.7889 2.48492 18.4885 2.03933C18.1828 1.61935 17.7766 1.28278 17.3071 1.06046C16.8377 0.838132 16.3199 0.737156 15.8013 0.766768H9.62751L2.301 26.5541C-1.7119 40.6697 12.4741 39.622 12.4741 39.622C12.4741 39.622 25.3875 39.9086 29.6376 24.9504C30.8892 20.5483 30.8484 16.9123 29.5166 14.1472Z" fill="#EC7000"/>
  <path d="M29.6399 24.8965C30.8914 20.5216 30.8507 16.9053 29.5163 14.1563C28.135 11.4073 25.7036 10.0952 22.2936 10.0952H17.4974L14.5137 20.597H17.4603C17.8114 20.5409 18.1711 20.6021 18.4838 20.7712C18.7965 20.9403 19.0447 21.2078 19.19 21.5322C19.5093 22.5542 19.478 23.6535 19.1011 24.6556" fill="url(#paint0_linear_3848_3376)"/>
  <defs>
    <linearGradient id="paint0_linear_3848_3376" x1="27.2295" y1="18.754" x2="23.6777" y2="13.0287" gradientUnits="userSpaceOnUse">
      <stop stop-color="#D62616" stop-opacity="0"/>
      <stop offset="1" stop-color="#D62616"/>
    </linearGradient>
  </defs>
</svg>