<svg width="121" height="39" viewBox="0 0 121 39" fill="none" xmlns="http://www.w3.org/2000/svg">
<path d="M100.735 32.521C100.564 32.3522 100.496 32.1834 100.496 31.9471C100.496 31.7109 100.564 31.5083 100.735 31.3059L107.154 22.8334L101.213 14.8675C101.076 14.6649 100.974 14.4624 100.974 14.2261C100.974 13.9898 101.042 13.8211 101.213 13.6523C101.384 13.4835 101.554 13.416 101.793 13.416H105.105C105.378 13.416 105.583 13.4835 105.72 13.5848C105.856 13.6861 105.993 13.8548 106.164 14.0574L110.363 19.5931L114.529 14.0574C114.563 14.0236 114.631 13.9223 114.802 13.7198C114.972 13.5173 115.211 13.416 115.587 13.416H118.796C119.035 13.416 119.206 13.4835 119.377 13.6523C119.513 13.8211 119.616 13.9898 119.616 14.1924C119.616 14.4287 119.547 14.6649 119.377 14.8675L113.368 22.8672L119.821 31.3059C119.957 31.5083 120.06 31.7109 120.06 31.9471C120.06 32.1834 119.991 32.3522 119.821 32.521C119.65 32.6898 119.479 32.7572 119.24 32.7572H115.792C115.382 32.7572 115.041 32.5548 114.768 32.1496L110.261 26.2763L105.72 32.1496C105.447 32.5548 105.105 32.7572 104.695 32.7572H101.35C101.076 32.7572 100.872 32.6898 100.735 32.521Z" fill="white"/>
<path d="M73.3343 21.7517C73.2654 19.0917 72.4371 17.0015 71.0566 15.3645C69.6763 13.7275 67.7091 12.909 65.1553 12.909C62.7052 12.909 60.7726 13.7275 59.3575 15.3986V7.04313C59.3575 6.49746 58.8054 6.15643 58.3223 6.36104L54.25 8.03214V31.9391C54.25 32.1777 54.3536 32.4164 54.5261 32.587C54.6987 32.7576 54.9057 32.8598 55.1818 32.8598H58.2188C58.4949 32.8598 58.7364 32.7576 58.909 32.587C59.0816 32.4164 59.185 32.2119 59.185 31.9391V30.5407C60.5655 32.3143 62.6016 33.2009 65.2245 33.2009C67.7781 33.2009 69.7453 32.3825 71.1258 30.7795C72.5061 29.1765 73.231 26.994 73.3343 24.2998C73.4204 23.4503 73.3343 22.5935 73.3343 21.7517ZM68.0197 24.1632C67.8473 27.4714 66.3978 29.1083 63.706 29.1083C62.2565 29.1083 61.1867 28.631 60.4619 27.7101C59.7372 26.7893 59.3575 25.6638 59.3231 24.3338C59.2885 24.0269 59.2885 23.5495 59.2885 22.9014C59.2885 22.2193 59.2885 21.742 59.3231 21.435C59.3575 20.1732 59.7716 19.1159 60.4965 18.2292C61.2211 17.3425 62.2911 16.8992 63.6714 16.8992C66.3978 16.8992 67.8127 18.5362 67.9853 21.8442C68.0197 22.0829 68.0197 22.4581 68.0197 22.9696C68.0543 23.5495 68.0543 23.9247 68.0197 24.1632Z" fill="white"/>
<path d="M96.9171 28.4497H83.4053L87.0535 23.5818C87.5263 22.9691 87.0873 22.084 86.3104 22.084H81.5812L77.0548 27.9732C76.9196 28.1774 76.7846 28.3815 76.6495 28.5859C76.5481 28.7901 76.4805 29.0625 76.4805 29.3688V32.0241C76.4805 32.2964 76.5481 32.5348 76.717 32.705C76.8858 32.8751 77.0886 32.9773 77.3588 32.9773H94.6877C95.1604 32.9773 95.5996 32.739 95.87 32.3644L97.6264 29.9815C98.0994 29.3008 97.6602 28.4497 96.9171 28.4497Z" fill="white"/>
<path d="M76.7314 10.7362H90.3839L86.6977 15.5048C86.2198 16.105 86.6635 16.9721 87.4486 16.9721H92.2269L96.8006 11.203C96.937 11.003 97.0736 10.8029 97.2101 10.6028C97.3125 10.4027 97.3807 10.1359 97.3807 9.83581V7.23474C97.3807 6.96796 97.3125 6.73454 97.1417 6.5678C96.9712 6.40106 96.7664 6.30103 96.4932 6.30103H78.984C78.5061 6.30103 78.0626 6.53446 77.7894 6.90128L76.0147 9.23555C75.5368 9.86915 75.9805 10.7362 76.7314 10.7362Z" fill="white"/>
<g clip-path="url(#clip0_3848_3401)">
<path d="M30.7045 0.342529H15.4362V9.12178H11.6192V0.342529H7.8021C3.60333 0.342529 0.167969 3.77789 0.167969 7.97666V11.9369H21.8775C24.7403 11.9369 27.0783 14.2748 27.0783 17.1376V22.1952C27.0783 25.058 24.7403 27.396 21.8775 27.396H16.8199C13.9571 27.396 11.6192 25.058 11.6192 22.1952V18.4736H15.4362V22.1475C15.4362 22.9109 16.0565 23.5312 16.8199 23.5312H21.8775C22.6409 23.5312 23.2612 22.9109 23.2612 22.1475V17.1376C23.2612 16.3742 22.6409 15.7539 21.8775 15.7539H0.167969V30.8791C0.167969 35.0778 3.60333 38.5132 7.8021 38.5132H30.7045C34.9033 38.5132 38.3386 35.0778 38.3386 30.8791V7.97666C38.3386 3.77789 34.9033 0.342529 30.7045 0.342529Z" fill="url(#paint0_linear_3848_3401)"/>
</g>
<defs>
<linearGradient id="paint0_linear_3848_3401" x1="35.8575" y1="36.0321" x2="5.32102" y2="5.49556" gradientUnits="userSpaceOnUse">
<stop offset="0.1594" stop-color="#003CDA"/>
<stop offset="1" stop-color="#33DFCC"/>
</linearGradient>
<clipPath id="clip0_3848_3401">
<rect width="38.1707" height="38.1707" fill="white" transform="translate(0.167969 0.341309)"/>
</clipPath>
</defs>
</svg>
