<svg xmlns="http://www.w3.org/2000/svg" width="140" height="42" viewBox="0 0 140 42" fill="none">
  <path d="M75.0953 26.6153C74.3657 26.3026 73.7026 25.8517 73.1423 25.2872C72.5877 24.7186 72.1404 24.0535 71.8225 23.3239C71.4255 22.3839 71.2668 21.3596 71.3605 20.3427C71.4541 19.3258 71.7975 18.3482 72.3596 17.4976C72.9216 16.647 73.6849 15.9499 74.5811 15.469C75.477 14.988 76.4778 14.7381 77.4936 14.7418C78.3175 14.7426 79.1331 14.906 79.8944 15.2227C80.6181 15.5415 81.2777 15.9912 81.8397 16.5496C82.3994 17.1089 82.8428 17.7745 83.144 18.5078C83.469 19.2694 83.6365 20.0894 83.6365 20.9181C83.6365 21.7469 83.469 22.567 83.144 23.3286C82.8352 24.0603 82.3914 24.7266 81.8363 25.2925C81.2714 25.8512 80.6096 26.3014 79.8834 26.6205C79.1216 26.933 78.3067 27.094 77.4839 27.0945C76.6633 27.096 75.8507 26.9332 75.0935 26.6153H75.0953ZM74.2186 13.1172C72.195 13.9719 70.585 15.5899 69.7341 17.6241C69.3005 18.6676 69.0771 19.7872 69.0771 20.9181C69.0771 22.0491 69.3005 23.1688 69.7341 24.2121C70.5852 26.2469 72.1952 27.8655 74.2192 28.7208C75.2567 29.1574 76.3701 29.3823 77.4948 29.3823C78.6195 29.3823 79.7329 29.1574 80.7704 28.7208C82.7951 27.8664 84.4054 26.2476 85.2555 24.2121C85.6887 23.1691 85.9116 22.0501 85.9116 20.9199C85.9116 19.7896 85.6887 18.6706 85.2555 17.6276C84.4035 15.5924 82.7927 13.9734 80.768 13.1172C79.7301 12.6837 78.6171 12.4605 77.4931 12.4605C76.369 12.4605 75.2561 12.6837 74.2181 13.1172H74.2186ZM56.3011 13.112C55.3009 13.5424 54.39 14.158 53.616 14.9268C52.85 15.702 52.2385 16.6171 51.8143 17.623C51.3774 18.6664 51.1523 19.7872 51.1523 20.9194C51.1523 22.0515 51.3774 23.1722 51.8143 24.2157C52.2388 25.22 52.8499 26.1339 53.6148 26.9083C54.3865 27.6778 55.2957 28.294 56.2948 28.7243C57.3337 29.1596 58.4483 29.3833 59.5739 29.3822C61.8039 29.3836 63.9437 28.4966 65.5247 26.9153C66.293 26.1373 66.9065 25.2194 67.3329 24.2104C67.424 23.9911 67.506 23.7642 67.5839 23.531H65.1353C64.8309 24.1825 64.4189 24.7776 63.917 25.2908C63.349 25.8694 62.6708 26.327 61.923 26.6367C61.1754 26.9463 60.3732 27.1013 59.5645 27.0929C58.7574 27.096 57.9577 26.9378 57.2118 26.6276C56.4658 26.3173 55.7887 25.8611 55.2197 25.2856C54.6648 24.7166 54.2177 24.0509 53.8999 23.321C53.2709 21.7777 53.2729 20.0472 53.9057 18.5054C54.3757 17.3858 55.1647 16.4309 56.1733 15.761C57.1819 15.0911 58.3651 14.7361 59.5739 14.7406C60.3982 14.7411 61.2144 14.9057 61.9751 15.2251C62.6994 15.5444 63.3605 15.9928 63.9263 16.5485C64.4303 17.0621 64.8416 17.6602 65.1416 18.3157H67.585C67.5118 18.0807 67.4263 17.8516 67.3357 17.6282C66.4816 15.5943 64.8722 13.9755 62.8494 13.1161C61.8118 12.6826 60.6994 12.459 59.5758 12.4582C58.4522 12.4573 57.3394 12.6791 56.3011 13.1109V13.112ZM88.4491 29.3822H90.7228V12.4593H88.4491V29.3822ZM116.53 18.4236C116.53 17.8933 116.634 17.3682 116.836 16.8783C117.038 16.3884 117.334 15.9432 117.707 15.5683C118.08 15.1933 118.523 14.8958 119.01 14.6929C119.497 14.49 120.019 14.3855 120.547 14.3855C121.074 14.3855 121.597 14.49 122.084 14.6929C122.571 14.8958 123.014 15.1933 123.387 15.5683C123.76 15.9432 124.056 16.3884 124.258 16.8783C124.46 17.3682 124.564 17.8933 124.564 18.4236C124.564 19.4946 124.14 20.5218 123.387 21.279C122.634 22.0363 121.612 22.4618 120.547 22.4618C119.482 22.4618 118.46 22.0363 117.707 21.279C116.954 20.5218 116.53 19.4946 116.53 18.4236ZM114.486 18.4561C114.486 21.7591 117.198 24.3438 120.654 24.3438H122.026L119.344 29.4577H121.632L125.803 21.4185C126.323 20.4941 126.609 19.4556 126.638 18.394C126.596 16.7966 125.933 15.2791 124.792 14.167C123.65 13.0548 122.121 12.4365 120.531 12.4447C118.942 12.4528 117.419 13.0866 116.289 14.2104C115.159 15.3341 114.511 16.8583 114.486 18.4561ZM130.561 24.374C130.577 23.4499 130.953 22.5692 131.61 21.9216C132.265 21.2739 133.149 20.911 134.068 20.911C134.987 20.911 135.869 21.2739 136.526 21.9216C137.181 22.5692 137.559 23.4499 137.575 24.374C137.575 25.3093 137.205 26.2063 136.547 26.8676C135.89 27.5289 134.998 27.9004 134.068 27.9004C133.137 27.9004 132.245 27.5289 131.587 26.8676C130.929 26.2063 130.561 25.3093 130.561 24.374ZM131.728 16.6303C131.728 16.0096 131.971 15.4137 132.401 14.9694C132.833 14.5251 133.419 14.2675 134.036 14.2515C134.665 14.2515 135.267 14.5023 135.71 14.9487C136.155 15.3952 136.405 16.0007 136.405 16.632C136.405 17.2634 136.155 17.8689 135.71 18.3153C135.267 18.7617 134.665 19.0125 134.036 19.0125C133.419 18.9964 132.833 18.7387 132.401 18.2945C131.971 17.8502 131.728 17.2544 131.728 16.6337V16.6303ZM129.84 16.6337C129.83 17.5559 130.119 18.4562 130.663 19.1988L131.131 19.8271L130.534 20.3365C129.948 20.8309 129.477 21.449 129.154 22.1468C128.832 22.8447 128.667 23.6053 128.671 24.3746C128.671 25.814 129.239 27.1944 130.251 28.2122C131.264 29.2299 132.636 29.8017 134.068 29.8017C135.499 29.8017 136.873 29.2299 137.886 28.2122C138.898 27.1944 139.466 25.814 139.466 24.3746C139.47 23.5969 139.302 22.8279 138.975 22.1233C138.647 21.4189 138.167 20.7964 137.571 20.3011L136.961 19.7865L137.451 19.1529C138.007 18.4316 138.303 17.5429 138.295 16.6309C138.276 15.5162 137.822 14.4534 137.032 13.6716C136.242 12.8899 135.178 12.4518 134.068 12.4518C132.959 12.4518 131.895 12.8899 131.105 13.6716C130.313 14.4534 129.86 15.5162 129.842 16.6309L129.84 16.6337ZM109.032 12.4593V25.5879C109.05 25.7431 109.037 25.9005 108.991 26.0501C108.945 26.1997 108.869 26.3379 108.767 26.4559C108.665 26.5739 108.539 26.6691 108.398 26.7352C108.257 26.8013 108.104 26.8369 107.948 26.8399C107.685 26.825 107.43 26.7377 107.212 26.5874C106.994 26.4369 106.821 26.2293 106.713 25.987L101.516 14.7435C101.245 14.063 100.776 13.4807 100.17 13.073C99.5645 12.6654 98.8502 12.4515 98.1211 12.4593C97.274 12.4497 96.4499 12.7368 95.7903 13.2716C95.76 13.2939 95.7309 13.3179 95.7032 13.3435C95.3568 13.6293 95.0783 13.9892 94.8875 14.3968C94.6969 14.8045 94.5989 15.2498 94.6009 15.7002V29.3822H97.0109V16.0547C97.0031 15.9028 97.0262 15.7508 97.0788 15.6081C97.1313 15.4654 97.2121 15.335 97.3166 15.2247C97.4208 15.1145 97.5463 15.0267 97.6856 14.9668C97.8247 14.9069 97.9744 14.8762 98.1258 14.8764C98.3904 14.8859 98.6465 14.9735 98.862 15.1283C99.0775 15.283 99.2428 15.4981 99.3377 15.7466L99.3845 15.8575C100.606 18.5727 103.337 24.5435 104.937 27.7101C105.474 28.7736 106.393 29.2517 107.92 29.2592C108.782 29.2748 109.623 28.9903 110.301 28.4539C110.675 28.2142 110.978 27.8775 111.179 27.4794C111.379 27.0813 111.469 26.6364 111.44 26.1912V12.4593H109.032Z" fill="url(#paint0_linear_3848_3499)"/>
  <path d="M33.6353 0.873291H7.96187C6.00932 0.875282 4.13744 1.65437 2.75766 3.03934C1.37787 4.4243 0.603057 6.30179 0.603516 8.2592V33.9874C0.602904 35.9448 1.37767 37.8224 2.75749 39.2074C4.13732 40.5923 6.00927 41.3715 7.96187 41.3732H33.6353C35.588 41.3715 37.46 40.5925 38.8399 39.2074C40.2198 37.8224 40.9948 35.9449 40.9943 33.9874V8.2592C40.9948 6.30169 40.2198 4.42411 38.8399 3.03913C37.46 1.65415 35.588 0.875129 33.6353 0.873291ZM27.4004 10.9941C28.8323 10.9961 30.205 11.5671 31.2174 12.5821C32.23 13.597 32.7997 14.973 32.8018 16.4084C32.8032 17.3137 32.5755 18.2045 32.1402 18.9977C31.466 18.4473 30.6988 18.0226 29.875 17.7438C30.0935 17.3328 30.2085 16.8743 30.2098 16.4084C30.2152 16.0352 30.1465 15.6647 30.0076 15.3183C29.8689 14.972 29.6628 14.6567 29.4015 14.3909C29.1401 14.1251 28.8286 13.914 28.4851 13.77C28.1416 13.6259 27.7731 13.5517 27.4007 13.5517C27.0285 13.5517 26.6597 13.6259 26.3164 13.77C25.9729 13.914 25.6614 14.1251 25.4 14.3909C25.1386 14.6567 24.9326 14.972 24.7937 15.3183C24.655 15.6647 24.5863 16.0352 24.5916 16.4084C24.5885 16.8757 24.7041 17.3361 24.9277 17.7461C24.1039 18.0249 23.3367 18.4497 22.6624 19.0001C22.227 18.2068 21.9994 17.316 22.0007 16.4108C22.0006 14.9747 22.5693 13.5974 23.5818 12.5817C24.5944 11.5659 25.968 10.9949 27.4004 10.9941ZM14.1967 31.2531C12.765 31.2511 11.3924 30.68 10.38 29.6651C9.36755 28.6501 8.79789 27.2741 8.79591 25.8387H11.3897C11.3897 26.2085 11.4624 26.5749 11.6036 26.9164C11.7448 27.2582 11.9517 27.5687 12.2126 27.8302C12.4734 28.0917 12.7832 28.2992 13.124 28.4407C13.4649 28.5822 13.8302 28.6551 14.1991 28.6551C14.5681 28.6551 14.9334 28.5822 15.2742 28.4407C15.6151 28.2992 15.9248 28.0917 16.1857 27.8302C16.4466 27.5687 16.6535 27.2582 16.7946 26.9164C16.9358 26.5749 17.0085 26.2085 17.0085 25.8387H19.6023C19.602 26.55 19.462 27.2544 19.1901 27.9114C18.9183 28.5685 18.52 29.1654 18.0181 29.6682C17.5161 30.171 16.9203 30.5696 16.2647 30.8415C15.609 31.1136 14.9064 31.2533 14.1967 31.2531ZM14.1967 23.6488C12.9485 23.6477 11.7285 23.2756 10.6912 22.5796C9.65385 21.8835 8.84569 20.8946 8.3689 19.738C7.89212 18.5816 7.76814 17.3093 8.01263 16.0822C8.25712 14.8549 8.85911 13.728 9.74248 12.8439C10.6258 11.9597 11.7509 11.3579 12.9754 11.1147C14.1999 10.8715 15.4688 10.9978 16.6217 11.4776C17.7746 11.9573 18.7597 12.769 19.4525 13.8101C20.1453 14.851 20.5145 16.0746 20.5136 17.3261C20.513 18.157 20.349 18.9797 20.0313 19.7471C19.7135 20.5146 19.2481 21.2118 18.6615 21.7989C18.0749 22.386 17.3787 22.8516 16.6126 23.1691C15.8466 23.4864 15.0257 23.6494 14.1967 23.6488ZM27.4004 31.2531C26.1516 31.254 24.9306 30.8835 23.8919 30.1885C22.8531 29.4936 22.0433 28.5053 21.565 27.3489C21.0867 26.1924 20.9613 24.9197 21.2047 23.6918C21.4481 22.4638 22.0494 21.3359 22.9324 20.4506C23.8155 19.5655 24.9406 18.9627 26.1656 18.7187C27.3904 18.4746 28.6599 18.6003 29.8136 19.0799C30.9671 19.5594 31.9528 20.3711 32.6461 21.4124C33.3394 22.4538 33.7089 23.6778 33.708 24.9298C33.7048 26.6058 33.0393 28.2124 31.857 29.3974C30.6748 30.5826 29.0724 31.2498 27.4004 31.2531ZM31.1251 24.9298C31.1251 25.6682 30.9067 26.3902 30.4974 27.0043C30.0881 27.6183 29.5064 28.0968 28.8258 28.3795C28.1452 28.6621 27.3963 28.7361 26.6737 28.5921C25.9512 28.4479 25.2875 28.0923 24.7666 27.5701C24.2457 27.0478 23.891 26.3826 23.7473 25.6583C23.6036 24.9339 23.6773 24.1831 23.9592 23.5008C24.2412 22.8185 24.7186 22.2354 25.331 21.8251C25.9436 21.4148 26.6638 21.1958 27.4004 21.1958C27.8897 21.1955 28.3742 21.2918 28.8262 21.4794C29.2782 21.667 29.689 21.9419 30.0349 22.2888C30.3808 22.6356 30.6551 23.0474 30.8423 23.5004C31.0293 23.9536 31.1255 24.4394 31.1251 24.9298ZM17.9215 17.3261C17.9215 18.0646 17.703 18.7865 17.2938 19.4005C16.8845 20.0146 16.3028 20.4932 15.6221 20.7758C14.9416 21.0584 14.1927 21.1323 13.4702 20.9883C12.7476 20.8442 12.0839 20.4886 11.563 19.9664C11.0421 19.4442 10.6874 18.7788 10.5437 18.0545C10.3999 17.3301 10.4737 16.5794 10.7556 15.8971C11.0375 15.2148 11.5149 14.6316 12.1275 14.2214C12.74 13.811 13.4601 13.5921 14.1967 13.5921C15.1842 13.5936 16.1307 13.9875 16.8289 14.6874C17.5271 15.3873 17.92 16.3362 17.9215 17.3261Z" fill="url(#paint1_linear_3848_3499)"/>
  <defs>
    <linearGradient id="paint0_linear_3848_3499" x1="95.3096" y1="29.7976" x2="95.3096" y2="12.4402" gradientUnits="userSpaceOnUse">
      <stop stop-color="#CDA146"/>
      <stop offset="1" stop-color="#F1D961"/>
    </linearGradient>
    <linearGradient id="paint1_linear_3848_3499" x1="41.6733" y1="7.00818" x2="-0.140333" y2="35.142" gradientUnits="userSpaceOnUse">
      <stop stop-color="#F1D961"/>
      <stop offset="1" stop-color="#CDA146"/>
    </linearGradient>
  </defs>
</svg>