<svg xmlns="http://www.w3.org/2000/svg" width="155" height="41" viewBox="0 0 155 41" fill="none">
  <path d="M16.8119 0.805908C20.5192 2.52396 24.0458 4.5133 27.6628 6.41221C28.3861 6.7739 28.6574 7.31647 28.6574 8.13029C28.6574 16.5397 28.6574 24.9491 28.6574 33.3586C28.6574 34.1724 28.2957 34.7149 27.6628 35.167C24.3171 36.8851 21.0618 38.6936 17.7161 40.4117C16.631 40.9542 15.4555 40.9542 14.3704 40.4117C11.1151 38.6936 7.85988 36.9755 4.60462 35.3479C3.7908 34.8958 3.51953 34.2628 3.51953 33.3586C3.51953 25.0395 3.51953 16.6302 3.51953 8.31115C3.51953 7.31648 3.88123 6.77393 4.69505 6.32181C8.22158 4.51333 11.6577 2.70485 15.1842 0.896365C15.7268 0.805941 16.2693 0.805908 16.8119 0.805908ZM5.05674 28.0236C5.05674 29.6512 5.05674 31.2788 5.05674 32.9064C5.05674 33.449 5.23758 33.8107 5.6897 34.082C8.58327 35.5288 11.4768 37.066 14.28 38.6032C15.5459 39.2362 16.5406 39.2362 17.8065 38.6032C20.7001 37.066 23.5937 35.5287 26.4872 33.9915C26.9393 33.8107 27.1202 33.5394 27.1202 32.9969C27.1202 29.6512 27.1202 26.3055 27.1202 22.9598C27.1202 22.2364 26.9393 22.2364 26.3968 22.5077C23.6841 23.9545 21.0618 25.3108 18.3491 26.7576C16.8119 27.5714 15.3651 27.5714 13.8279 26.7576C11.1151 25.3108 8.40242 23.9545 5.6897 22.5077C5.14716 22.2364 5.05674 22.3268 5.05674 22.9598C5.05674 24.6778 5.05674 26.3959 5.05674 28.0236ZM5.23758 7.76857C5.32801 8.03984 5.59928 8.13026 5.78013 8.22069C8.76412 9.7579 11.6577 11.2951 14.6417 12.9227C15.5459 13.3749 16.4502 13.3749 17.264 12.9227C20.248 11.3855 23.1415 9.84832 26.1255 8.22069C26.3064 8.13026 26.5777 8.03984 26.6681 7.76857C23.4128 6.05051 20.1575 4.33244 16.8119 2.61439C16.1789 2.25269 15.3651 2.34315 14.7321 2.70485C13.8279 3.15697 12.9236 3.60906 12.0194 4.15161C9.93963 5.32712 7.58861 6.50263 5.23758 7.76857ZM15.1842 25.763C15.2746 25.6725 15.2747 25.5821 15.2747 25.5821C15.2747 22.3268 15.2747 18.9811 15.2747 15.7259C15.2747 15.0929 14.913 15.3642 14.7321 15.5451C13.1045 16.3589 11.4769 17.2631 9.93964 18.0769C8.40243 18.8907 6.86522 19.7045 5.14717 20.6088C8.58328 22.3268 11.8385 24.0449 15.1842 25.763ZM26.9393 20.5184C23.5032 18.7099 20.1575 16.9918 16.8119 15.1833C16.8119 18.8003 16.8119 22.2364 16.8119 25.763C20.248 24.0449 23.5032 22.3269 26.9393 20.5184ZM18.1682 14.1887C21.0618 15.7259 23.8649 17.1727 26.6681 18.6195C27.3011 18.9811 27.1202 18.4386 27.1202 18.1673C27.1202 15.9067 27.1202 13.5557 27.1202 11.2951C27.1202 10.7526 27.1202 10.21 27.1202 9.48665C24.0458 11.1143 21.2426 12.5611 18.1682 14.1887ZM5.05674 9.57705C5.05674 12.7419 5.05674 15.7259 5.05674 18.8907C8.04073 17.3535 10.9343 15.8163 13.9183 14.2791C10.9343 12.6515 8.04073 11.1143 5.05674 9.57705Z" fill="white"/>
  <path d="M154.072 32.8157C153.167 32.6349 152.353 32.7253 151.449 32.7253C150.816 32.7253 150.635 32.5444 150.635 31.9115C150.635 28.7466 150.635 25.5818 150.635 22.4169C150.635 21.9648 150.635 21.4223 150.545 20.9702C150.183 18.0766 147.471 16.9011 145.029 18.5287C143.763 19.433 143.221 20.6989 143.221 22.1457C143.13 25.401 143.13 28.5658 143.13 31.8211C143.13 32.5445 142.949 32.8157 142.136 32.7253C141.503 32.6349 140.87 32.6349 140.237 32.7253C139.694 32.7253 139.513 32.5444 139.513 32.0019C139.513 28.7466 139.513 25.5818 139.513 22.3265C139.513 21.784 139.513 21.2414 139.423 20.7893C139.061 18.3479 137.253 17.2628 134.811 18.0766C133.184 18.6191 132.008 20.2468 132.008 22.2361C131.918 25.4914 131.918 28.6562 132.008 31.9115C132.008 32.5444 131.827 32.8157 131.194 32.7253C130.38 32.6349 129.205 33.087 128.753 32.5445C128.301 32.0923 128.662 30.9168 128.662 30.103C128.572 25.7626 128.753 21.5127 128.572 17.1724C128.572 16.9915 128.572 16.8106 128.572 16.6298C128.482 15.4543 128.482 15.4543 129.657 15.4543C131.646 15.4543 131.646 15.4543 131.827 17.4436C131.827 17.6245 131.827 17.8053 132.008 17.9861C133.184 15.9064 135.082 15.0022 137.434 15.0022C139.785 15.0022 141.683 15.9064 142.588 18.2575C143.492 16.8107 144.577 15.816 146.114 15.2734C147.471 14.8213 148.737 14.8213 150.093 15.0926C152.173 15.5447 153.258 16.9915 153.8 18.8904C153.891 19.2521 153.891 19.6138 154.072 19.9755C154.072 24.4063 154.072 28.5658 154.072 32.8157Z" fill="white"/>
  <path d="M67.4475 17.8979C67.4475 17.2649 67.4475 16.632 67.4475 15.999C67.4475 15.6373 67.5379 15.4564 67.99 15.5469C68.8039 15.5469 69.5273 15.5469 70.3411 15.5469C70.7932 15.5469 70.9741 15.7277 70.9741 16.1798C70.9741 18.1691 70.9741 20.1585 70.9741 22.1478C70.9741 25.4031 70.9741 28.6583 70.9741 31.9136C70.9741 32.7274 70.7028 32.9083 69.9794 32.8178C69.3464 32.7274 68.7134 32.8178 68.0805 32.8178C67.6284 32.8178 67.4475 32.7274 67.4475 32.1849C67.4475 31.5519 67.4475 30.8285 67.4475 29.9243C66.5433 31.371 65.4582 32.2753 64.1018 32.637C60.1232 33.9029 56.2349 32.004 54.7882 28.1158C53.5222 24.4988 53.7031 20.9723 56.0541 17.8075C58.4051 14.6426 63.3784 14.1 66.272 16.6319C66.6337 16.9936 66.905 17.4458 67.4475 17.8979ZM67.4475 24.0467C67.4475 23.3233 67.4475 22.5095 67.2667 21.7861C66.8145 19.5255 65.3678 18.0787 63.288 17.8075C61.0274 17.5362 59.1285 18.4404 58.3147 20.4297C57.32 22.7808 57.32 25.1318 58.3147 27.4828C59.1285 29.3817 60.7561 30.1955 62.7455 30.1051C64.7348 30.1051 66.1816 29.1105 66.905 27.302C67.2667 26.3073 67.4475 25.2222 67.4475 24.0467Z" fill="white"/>
  <path d="M116.456 32.9048C111.392 32.9048 108.046 29.74 107.775 25.038C107.594 22.9582 107.865 20.9689 108.86 19.1604C110.488 16.1764 113.2 14.9105 116.546 15.0914C121.61 15.2722 124.865 18.9795 124.684 24.3146C124.594 26.3039 124.142 28.2028 122.966 29.8305C121.158 32.0006 118.807 32.9048 116.456 32.9048ZM121.067 23.8624C121.067 23.3199 120.977 22.5965 120.886 21.8732C120.434 19.5221 118.987 17.9849 116.817 17.8041C114.466 17.5328 112.567 18.5274 111.754 20.6072C110.849 22.8678 110.849 25.2188 111.844 27.4794C112.658 29.3783 114.195 30.1017 116.184 30.1017C118.174 30.1017 119.62 29.2879 120.434 27.4794C120.886 26.3943 121.067 25.2188 121.067 23.8624Z" fill="white"/>
  <path d="M79.2883 18.163C79.65 17.7109 80.0117 17.2588 80.3734 16.8067C82.3627 14.8173 86.2509 14.3652 88.6924 15.812C90.4104 16.8971 91.0434 18.5248 91.2242 20.5141C91.4955 23.4981 91.3147 26.482 91.3147 29.466C91.3147 30.2798 91.3147 31.1841 91.3147 31.9979C91.3147 32.45 91.2242 32.6309 90.6817 32.6309C89.9583 32.6309 89.1445 32.6309 88.4211 32.6309C87.8786 32.6309 87.7881 32.45 87.7881 31.9979C87.7881 28.7426 87.7881 25.4874 87.7881 22.2321C87.7881 21.3279 87.7881 20.5141 87.4264 19.7002C87.1552 18.8864 86.5222 18.2534 85.7084 17.9822C82.8148 17.0779 79.4691 18.5248 79.3787 22.3226C79.2883 25.4874 79.3787 28.6522 79.3787 31.8171C79.3787 32.4501 79.2883 32.6309 78.6553 32.6309C77.7511 32.5404 76.5755 32.9926 76.1234 32.45C75.6713 31.9979 76.033 30.8224 75.9426 30.0086C75.8522 25.6683 76.033 21.2375 75.8522 16.8971C75.8522 16.445 75.4905 15.812 75.8522 15.4503C76.2139 15.0886 76.8468 15.3599 77.3894 15.3599C79.017 15.3599 79.017 15.3599 79.1979 17.0779C79.1074 17.4396 79.017 17.8013 79.2883 18.163Z" fill="white"/>
  <path d="M44.2097 25.3996C44.2097 23.2294 44.2097 20.9688 44.2097 18.7986C44.2097 18.2561 44.0289 18.0752 43.4863 18.0752C42.7629 18.0752 42.0395 18.0752 41.3161 18.0752C40.9544 18.0752 40.864 17.9848 40.864 17.6231V17.5327C40.7736 15.3625 40.7736 15.3625 42.9438 15.3625C44.1193 15.3625 44.2097 15.3625 44.1193 14.0966C44.1193 13.0115 44.1193 11.9264 44.3906 10.8413C45.0235 8.67115 46.6511 7.40521 49.0022 7.22437C49.2734 7.22437 49.4543 7.22437 49.7256 7.22437C52.0766 7.22437 52.4383 7.67646 52.167 10.0275C52.167 10.3892 51.9861 10.3892 51.7149 10.2987C51.2628 10.1179 50.7202 10.1179 50.2681 10.1179C48.7309 10.1179 47.8266 10.9317 47.6458 12.4689C47.5554 13.2828 47.6458 14.0061 47.5554 14.8199C47.5554 15.1816 47.7362 15.2721 48.0979 15.2721C49.0926 15.2721 50.0873 15.2721 51.0819 15.2721C51.534 15.2721 51.6245 15.453 51.6245 15.8146C51.7149 17.8944 51.7149 17.8944 49.6351 17.8944C49.0022 17.8944 48.0979 17.6231 47.7362 18.0752C47.3745 18.4369 47.6458 19.3412 47.6458 19.9741C47.6458 23.8624 47.6458 27.841 47.6458 31.7293C47.6458 32.3622 47.5554 32.5431 46.832 32.5431C46.199 32.4527 45.4756 32.4527 44.8427 32.5431C44.2097 32.6335 44.1193 32.3623 44.1193 31.8197C44.2097 29.8304 44.2097 27.5697 44.2097 25.3996Z" fill="white"/>
  <path d="M100.719 9.94043C100.719 11.5681 100.719 13.1053 100.719 14.6425C100.719 15.2755 100.81 15.5467 101.533 15.4563C102.709 15.3658 103.794 15.4563 104.969 15.4563C105.421 15.4563 105.512 15.5467 105.512 15.9988C105.602 18.0786 105.602 18.0786 103.522 18.0786C102.799 18.0786 102.076 18.0786 101.443 18.0786C100.9 18.0786 100.719 18.169 100.719 18.7116C100.719 21.3339 100.719 24.0466 100.719 26.6689C100.719 29.2912 102.076 30.3763 104.608 29.8337C105.331 29.6529 105.512 29.8337 105.421 30.4667C105.421 30.6475 105.421 30.9188 105.421 31.0996C105.421 32.5464 105.421 32.5464 103.975 32.7273C102.98 32.8177 101.985 32.8177 101.081 32.5464C98.8204 31.9135 97.3736 30.105 97.3736 27.4827C97.2832 24.5891 97.3736 21.6051 97.3736 18.7116C97.3736 18.0786 97.1928 17.8977 96.5598 17.8977C95.8364 17.9882 95.113 17.8977 94.3896 17.8977C94.0279 17.8977 93.9375 17.8073 93.9375 17.4456C93.9375 16.8126 93.9375 16.2701 93.9375 15.6371C93.9375 15.2754 94.1183 15.185 94.3896 15.185C95.113 15.185 95.8364 15.185 96.5598 15.185C97.1023 15.185 97.3736 15.0946 97.2832 14.4616C97.1928 13.467 97.2832 12.3819 97.2832 11.3872C97.2832 11.1159 97.2832 10.8446 97.6449 10.7542C98.6396 10.6638 99.6342 10.3021 100.719 9.94043Z" fill="white"/>
  <path d="M1.07374 33.2685C1.61639 33.178 1.8877 33.2685 1.8877 33.9016C1.8877 35.2582 2.61124 36.1626 3.78697 36.7052C4.51049 37.067 4.14873 37.3383 3.96784 37.7905C3.69652 38.2427 3.51564 38.4236 2.97299 38.0618C1.4355 37.1574 0.440647 35.8913 0.259766 34.0825C0.259766 33.4494 0.350215 33.0876 1.07374 33.2685Z" fill="white"/>
  <path d="M31.094 8.31358C30.4609 8.49446 30.28 8.2231 30.28 7.59001C30.28 6.2334 29.5565 5.32901 28.3808 4.78637C27.7477 4.51505 27.9286 4.15327 28.1999 3.70107C28.4712 3.24886 28.6521 3.06799 29.2852 3.42976C30.8227 4.33416 31.8175 5.60034 31.908 7.49959C31.8175 8.13268 31.8175 8.49446 31.094 8.31358Z" fill="white"/>
</svg>