<svg xmlns="http://www.w3.org/2000/svg" width="150" height="44" viewBox="0 0 150 44" fill="none">
  <path d="M27.7891 42.6933C27.7062 42.588 27.5869 42.5176 27.4548 42.4959C24.9585 41.9656 22.5594 41.0521 20.3421 39.7876C15.789 37.1353 12.8865 33.1223 12.775 28.5514C12.7435 26.8086 13.1024 25.081 13.8253 23.4955C14.2885 22.4654 16.775 18.7743 17.1867 18.1005C18.8802 15.4438 18.3357 15.6112 15.9519 12.2934L12.5221 7.20751L10.2026 3.82117C8.8744 4.72671 7.6161 5.731 6.43838 6.82552C4.03931 9.23497 2.23096 12.1684 1.1554 15.3955C0.0798336 18.6227 -0.233662 22.0554 0.23954 25.4242C0.712743 28.7931 1.95975 32.0062 3.88262 34.8112C5.80548 37.6162 8.35182 39.9366 11.3216 41.5903C3.68165 35.985 0.196071 27.5814 3.12 19.1047C3.91805 16.83 5.08558 14.7026 6.57557 12.8085L9.08792 16.5082C9.23193 16.7223 9.30377 16.9769 9.29297 17.2348C9.28217 17.4927 9.18929 17.7404 9.0279 17.9417C7.82826 19.4147 6.89265 21.0847 6.2626 22.8774C3.05142 32.2081 11.7289 41.8736 20.8951 43.4487C22.6529 43.7492 25.8555 44.0839 27.5105 43.6591C27.6078 43.6327 27.6968 43.5816 27.7687 43.5107C27.8407 43.4399 27.8932 43.3517 27.9212 43.2547C27.9492 43.1577 27.9517 43.055 27.9286 42.9567C27.9054 42.8584 27.8574 42.7677 27.7891 42.6933Z" fill="url(#paint0_linear_3848_3329)"/>
  <path d="M16.2234 2.10581C16.3063 2.21114 16.4256 2.28159 16.5578 2.30324C19.0536 2.83354 21.4524 3.74707 23.6694 5.01145C28.2217 7.66388 31.1238 11.6768 31.2353 16.2478C31.2668 17.9905 30.908 19.7181 30.185 21.3037C29.722 22.3337 27.2358 26.0248 26.8244 26.6987C25.1311 29.3554 25.6755 29.188 28.0589 32.5057L31.4882 37.5916L33.8073 40.978C35.1353 40.0724 36.3934 39.0681 37.571 37.9736C39.9696 35.5642 41.7777 32.6307 42.853 29.4037C43.9285 26.1766 44.242 22.7438 43.7688 19.3749C43.2957 16.0061 42.0488 12.793 40.1262 9.98797C38.2037 7.18298 35.6577 4.86251 32.6884 3.20884C40.3273 8.81412 43.8123 17.2177 40.8888 25.6944C40.0909 27.9691 38.9235 30.0965 37.4338 31.9907L34.9218 28.291C34.7778 28.0769 34.706 27.8223 34.7168 27.5643C34.7275 27.3064 34.8205 27.0587 34.9818 26.8575C36.1813 25.3845 37.1168 23.7146 37.7467 21.9217C40.9574 12.591 32.2812 2.92557 23.1163 1.35043C21.3589 1.04999 18.1567 0.715215 16.5021 1.14012C16.4047 1.16652 16.3157 1.2176 16.2438 1.28843C16.1719 1.35925 16.1194 1.44743 16.0915 1.54448C16.0634 1.64152 16.0609 1.74414 16.084 1.84246C16.1071 1.94078 16.1551 2.03148 16.2234 2.10581Z" fill="url(#paint1_linear_3848_3329)"/>
  <path d="M56.8941 23.4475H53.9531V10.709H56.8941V23.4475Z" fill="white"/>
  <path d="M61.0723 23.4475V10.709H63.6447L70.5387 18.9195V10.709H73.4755V23.4475H70.9031L64.0134 15.194V23.4475H61.0723Z" fill="white"/>
  <path d="M82.7233 10.709V19.3916C82.7233 20.3444 82.6676 21.7608 81.6172 22.7908C81.2584 23.1258 80.8346 23.3832 80.3721 23.5471C79.9097 23.7111 79.4185 23.778 78.9291 23.7436C78.2251 23.7871 77.5233 23.6292 76.9054 23.2887C76.4531 22.9942 76.0483 22.6324 75.7051 22.2157L77.5357 20.1556C77.6578 20.4103 77.8119 20.6483 77.9945 20.8637C78.0888 20.9589 78.202 21.0333 78.3268 21.0821C78.4516 21.1309 78.5852 21.153 78.719 21.147C78.8457 21.1538 78.9723 21.1335 79.0905 21.0877C79.2088 21.0419 79.316 20.9713 79.405 20.8809C79.7694 20.5161 79.7865 19.9066 79.7865 19.3744V10.709H82.7233Z" fill="white"/>
  <path d="M94.0413 13.1898H89.7883V15.6533H93.8355V18.1383H89.7883V20.9624H94.0413V23.4475H86.8516V10.709H94.0413V13.1898Z" fill="white"/>
  <path d="M106.962 23.0475C106.099 23.5062 105.135 23.7422 104.158 23.7343C101.813 23.7343 100.231 22.9359 99.1588 21.8844C97.8898 20.6045 97.1777 18.8743 97.1777 17.0709C97.1777 15.2677 97.8898 13.5375 99.1588 12.2576C100.445 11.0509 102.151 10.3936 103.913 10.4249C104.967 10.4453 106.005 10.685 106.962 11.1288V14.5323C106.588 14.11 106.131 13.7711 105.618 13.5375C105.105 13.3038 104.55 13.1806 103.986 13.176C103.513 13.1627 103.042 13.2434 102.601 13.4136C102.159 13.5838 101.756 13.8401 101.414 14.1674C101.027 14.5521 100.722 15.0105 100.516 15.5155C100.309 16.0205 100.207 16.5619 100.213 17.1074C100.195 17.6198 100.282 18.1304 100.469 18.6074C100.657 19.0846 100.94 19.5178 101.302 19.8803C101.664 20.2428 102.097 20.5266 102.574 20.7142C103.05 20.9017 103.56 20.9888 104.072 20.9703C104.622 20.963 105.165 20.8422 105.667 20.6155C106.168 20.3888 106.618 20.061 106.987 19.6526L106.962 23.0475Z" fill="white"/>
  <path d="M115.111 13.1898V23.4475H112.174V13.1898H109.404V10.709H117.876V13.1898H115.111Z" fill="white"/>
  <path d="M123.751 23.4475H120.814V10.709H123.751V23.4475Z" fill="white"/>
  <path d="M129.785 10.709L133.01 18.8637L136.229 10.709H139.398L134 23.4475H132.015L126.617 10.709H129.785Z" fill="white"/>
  <path d="M149.387 13.1898H145.134V15.6533H149.177V18.1383H145.134V20.9624H149.387V23.4475H142.197V10.709H149.387V13.1898Z" fill="white"/>
  <path d="M56.259 31.4097H57.1165C57.5901 31.4493 58.0608 31.3065 58.4327 31.0104C58.5638 30.8711 58.666 30.7073 58.7337 30.5284C58.8013 30.3494 58.8332 30.1588 58.8272 29.9675C58.8351 29.778 58.8041 29.5888 58.7364 29.4117C58.6685 29.2345 58.5652 29.0731 58.4327 28.9375C58.0472 28.6325 57.5583 28.4894 57.0694 28.5384H56.2462L56.259 31.4097ZM57.5452 26.5425C58.5449 26.4687 59.5356 26.7752 60.3191 27.401C60.6693 27.728 60.9431 28.1283 61.1211 28.5734C61.2989 29.0186 61.3764 29.4976 61.348 29.9761C61.3718 30.4306 61.3041 30.8852 61.1486 31.3129C60.9932 31.7405 60.7534 32.1326 60.4435 32.4655C60.0815 32.7961 59.6563 33.0497 59.1934 33.2105C58.7305 33.3713 58.2397 33.4362 57.7511 33.4011H56.2633V37.1094H53.8281V26.5297L57.5452 26.5425Z" fill="white"/>
  <path d="M67.6933 31.3336H68.2464C68.7737 31.3785 69.2975 31.2135 69.7041 30.8743C69.8343 30.7371 69.9362 30.5754 70.0039 30.3987C70.0716 30.2219 70.1037 30.0335 70.0985 29.8443C70.1085 29.6383 70.0689 29.4329 69.9831 29.2455C69.8974 29.058 69.7678 28.894 69.6055 28.767C69.2019 28.5232 68.7342 28.4065 68.2635 28.4323H67.6933V31.3336ZM68.9581 26.5309C69.9409 26.4737 70.9071 26.8033 71.6505 27.4493C71.956 27.7595 72.1949 28.1289 72.3526 28.5349C72.5104 28.9407 72.5838 29.3746 72.568 29.8099C72.5841 30.205 72.5193 30.599 72.3777 30.968C72.2362 31.3371 72.0208 31.6732 71.7448 31.9559C71.3314 32.346 70.8252 32.6238 70.2743 32.7628L73.5155 37.0891H70.5401L67.6933 32.9216V37.0891H65.2539V26.5309H68.9581Z" fill="white"/>
  <path d="M80.1996 29.4402C79.887 29.7537 79.6416 30.1278 79.4786 30.5397C79.3157 30.9516 79.2386 31.3923 79.2521 31.8351C79.2351 32.2758 79.3105 32.7152 79.4737 33.1247C79.637 33.5343 79.8843 33.905 80.1996 34.2129C80.5006 34.5001 80.8559 34.7239 81.2447 34.8714C81.6335 35.0189 82.0479 35.0868 82.4633 35.0713C82.8959 35.0937 83.3284 35.0256 83.7333 34.8715C84.1381 34.7174 84.5065 34.4807 84.8151 34.1762C85.1235 33.8718 85.3653 33.5065 85.5252 33.1034C85.6849 32.7004 85.7591 32.2685 85.7431 31.8351C85.7622 30.9517 85.4307 30.0967 84.8213 29.4574C84.19 28.8711 83.3587 28.5487 82.4976 28.5561C81.6453 28.5368 80.8196 28.8545 80.1996 29.4402ZM86.6305 27.8265C87.1523 28.3486 87.5662 28.9686 87.8487 29.6508C88.131 30.3331 88.2764 31.0644 88.2764 31.8029C88.2764 32.5415 88.131 33.2728 87.8487 33.9551C87.5662 34.6374 87.1523 35.2573 86.6305 35.7794C86.0872 36.2979 85.4459 36.7024 84.7443 36.9692C84.0427 37.236 83.2948 37.3597 82.5447 37.3332C81.0224 37.3758 79.5441 36.8178 78.4289 35.7794C77.8985 35.2699 77.4776 34.6572 77.1923 33.9789C76.907 33.3006 76.7632 32.5711 76.7697 31.8351C76.7863 30.3386 77.3701 28.9041 78.4033 27.8222C79.5407 26.8272 80.9999 26.2789 82.5104 26.2789C84.021 26.2789 85.4802 26.8272 86.6177 27.8222L86.6305 27.8265Z" fill="white"/>
  <path d="M95.8289 28.5897V37.1006H93.3937V28.5897H91.0957V26.5295H98.1269V28.5897H95.8289Z" fill="white"/>
  <path d="M104.403 29.4402C104.093 29.7548 103.85 30.1294 103.689 30.5412C103.528 30.953 103.453 31.3933 103.469 31.8351C103.454 32.277 103.533 32.7169 103.699 33.1264C103.865 33.5359 104.115 33.9061 104.433 34.2129C104.734 34.5001 105.089 34.724 105.478 34.8714C105.867 35.0189 106.281 35.0868 106.697 35.0713C107.128 35.087 107.559 35.0153 107.962 34.8605C108.365 34.7055 108.732 34.4707 109.042 34.17C109.346 33.8636 109.584 33.4986 109.741 33.0971C109.899 32.6957 109.973 32.2664 109.96 31.8351C109.98 30.9522 109.65 30.0971 109.042 29.4574C108.409 28.872 107.576 28.5498 106.714 28.5561C105.857 28.5329 105.026 28.8508 104.403 29.4402ZM110.834 27.8265C111.356 28.3486 111.769 28.9686 112.052 29.6508C112.334 30.3331 112.48 31.0644 112.48 31.8029C112.48 32.5415 112.334 33.2728 112.052 33.9551C111.769 34.6375 111.356 35.2573 110.834 35.7794C110.291 36.2976 109.651 36.7018 108.95 36.9686C108.249 37.2354 107.502 37.3594 106.753 37.3332C105.23 37.3776 103.751 36.8195 102.637 35.7794C102.104 35.2713 101.681 34.659 101.394 33.9806C101.107 33.3021 100.963 32.5719 100.969 31.8351C100.984 30.3391 101.567 28.9048 102.598 27.8222C103.736 26.8272 105.195 26.2789 106.705 26.2789C108.216 26.2789 109.675 26.8272 110.812 27.8222L110.834 27.8265Z" fill="white"/>
  <path d="M124.302 36.758C123.587 37.1379 122.789 37.3341 121.978 37.3289C120.028 37.3289 118.716 36.6636 117.828 35.7924C116.773 34.7314 116.182 33.2955 116.182 31.7987C116.182 30.3018 116.773 28.8659 117.828 27.8051C118.895 26.8034 120.31 26.2583 121.772 26.2857C122.647 26.3023 123.509 26.501 124.302 26.8694V29.6849C123.992 29.3344 123.613 29.0528 123.187 28.8584C122.762 28.6639 122.301 28.561 121.832 28.5561C121.439 28.544 121.047 28.6106 120.678 28.7522C120.31 28.8936 119.973 29.1072 119.689 29.3802C119.366 29.6999 119.109 30.0817 118.936 30.5027C118.763 30.9239 118.676 31.3756 118.682 31.8309C118.664 32.2567 118.736 32.6813 118.891 33.0783C119.045 33.4753 119.28 33.8361 119.58 34.1382C119.88 34.4403 120.239 34.6771 120.635 34.834C121.03 34.9908 121.455 35.0643 121.879 35.0498C122.335 35.0461 122.785 34.949 123.202 34.7644C123.618 34.5799 123.994 34.3118 124.302 33.9769V36.758Z" fill="white"/>
  <path d="M131.558 29.4401C131.248 29.7551 131.006 30.1298 130.846 30.5416C130.686 30.9534 130.611 31.3935 130.627 31.835C130.612 32.277 130.691 32.7171 130.857 33.1267C131.023 33.5363 131.274 33.9064 131.592 34.2128C131.892 34.5 132.248 34.7238 132.638 34.8713C133.026 35.0187 133.44 35.0867 133.855 35.0712C134.287 35.0911 134.717 35.0212 135.12 34.866C135.523 34.7108 135.889 34.4737 136.196 34.1695C136.502 33.8654 136.743 33.5009 136.902 33.0991C137.061 32.6972 137.135 32.2669 137.119 31.835C137.138 30.9516 136.806 30.0966 136.197 29.4573C135.565 28.871 134.734 28.5486 133.872 28.556C133.015 28.5321 132.182 28.8501 131.558 29.4401ZM137.989 27.8263C138.51 28.3484 138.924 28.9684 139.207 29.6507C139.489 30.333 139.635 31.0643 139.635 31.8028C139.635 32.5414 139.489 33.2727 139.207 33.955C138.924 34.6373 138.51 35.2572 137.989 35.7793C137.446 36.2978 136.804 36.7022 136.102 36.969C135.401 37.2358 134.653 37.3596 133.903 37.3331C132.38 37.3757 130.902 36.8177 129.787 35.7793C129.255 35.2702 128.834 34.6576 128.548 33.9794C128.261 33.301 128.118 32.5713 128.123 31.835C128.14 30.3385 128.724 28.9039 129.757 27.8221C130.894 26.8271 132.353 26.2788 133.864 26.2788C135.374 26.2788 136.834 26.8271 137.972 27.8221L137.989 27.8263Z" fill="white"/>
  <path d="M146.257 26.5295V35.0404H149.533V37.1006H143.818V26.5295H146.257Z" fill="white"/>
  <defs>
    <linearGradient id="paint0_linear_3848_3329" x1="8.24333" y1="39.8091" x2="24.3254" y2="11.9824" gradientUnits="userSpaceOnUse">
      <stop stop-color="#174E5B"/>
      <stop offset="0.07" stop-color="#195A6C"/>
      <stop offset="0.21" stop-color="#1E779A"/>
      <stop offset="0.4" stop-color="#27A7E3"/>
      <stop offset="0.47" stop-color="#2ABAFF"/>
      <stop offset="0.7" stop-color="#1DDAF0"/>
      <stop offset="1" stop-color="#0EFFE0"/>
    </linearGradient>
    <linearGradient id="paint1_linear_3848_3329" x1="35.7662" y1="4.99" x2="19.683" y2="32.8146" gradientUnits="userSpaceOnUse">
      <stop stop-color="#174E5B"/>
      <stop offset="0.07" stop-color="#195A6C"/>
      <stop offset="0.21" stop-color="#1E779A"/>
      <stop offset="0.4" stop-color="#27A7E3"/>
      <stop offset="0.47" stop-color="#2ABAFF"/>
      <stop offset="0.7" stop-color="#1DDAF0"/>
      <stop offset="1" stop-color="#0EFFE0"/>
    </linearGradient>
  </defs>
</svg>