<svg xmlns="http://www.w3.org/2000/svg" width="143" height="34" viewBox="0 0 143 34" fill="none">
  <path d="M5.7832 21.3851C5.7832 23.1768 5.7832 25.0432 5.7832 26.8349C5.7832 28.7013 5.03664 30.1944 3.02095 30.2691C0.930601 30.3437 0.109375 28.8506 0.109375 26.9842C0.109375 20.1159 0.109375 13.2477 0.109375 6.30473C0.109375 4.43835 0.781309 2.94522 2.94631 3.01988C5.11132 3.09454 5.70855 4.51299 5.7832 6.37937C5.7832 8.17109 5.7832 9.96281 5.7832 12.5757C8.54545 9.8135 10.8597 7.49921 13.174 5.1849C14.3685 3.99042 15.4884 2.79592 16.6829 1.67609C18.8479 -0.339598 19.8931 -0.414281 21.9834 1.60141C24.3724 3.91572 26.6867 6.30471 29.001 8.61903C30.4194 10.0375 30.718 11.5306 29.2249 12.949C27.8065 14.2928 26.3134 13.8449 25.0443 12.5757C23.5512 11.0826 21.9834 9.51487 20.4903 7.94711C19.6691 7.1259 19.1465 7.05125 18.2506 7.94711C15.787 10.56 13.2487 13.0237 10.7104 15.562C9.88923 16.3832 9.81457 16.9804 10.7104 17.8016C13.2487 20.2652 15.787 22.8035 18.2506 25.3418C19.1465 26.2377 19.7438 26.0884 20.4903 25.2671C21.9834 23.6994 23.4765 22.2063 25.0443 20.7132C26.3134 19.444 27.8065 19.0708 29.2249 20.4145C30.6434 21.7583 30.3448 23.2515 29.001 24.5953C26.5374 27.0589 24.0738 29.5225 21.6101 31.9861C20.0424 33.5539 18.3999 33.4792 16.8322 31.9115C13.3234 28.328 9.73992 24.7446 6.23112 21.1611C6.15646 21.1611 6.00717 21.3104 5.7832 21.3851Z" fill="#22AF91"/>
  <path d="M131.356 15.4156C131.356 18.4765 131.282 21.5374 131.356 24.5236C131.356 25.8674 130.983 26.3899 129.564 26.3899C128.071 26.3899 127.474 26.0167 127.549 24.4489C127.623 19.3724 127.549 14.3705 127.623 9.29392C127.623 8.47271 127.026 7.12891 128.594 6.90494C129.938 6.75563 131.132 6.68098 132.028 8.17409C133.82 11.1603 135.761 14.0718 137.627 16.9834C137.851 17.3567 137.926 17.9539 138.822 17.9539C138.822 14.8184 138.896 11.7575 138.822 8.622C138.747 7.1289 139.344 6.83026 140.688 6.83026C142.181 6.7556 142.704 7.2782 142.704 8.84596C142.629 13.9972 142.704 19.1484 142.629 24.225C142.629 25.0462 143.077 26.2407 141.659 26.3153C140.464 26.39 139.27 26.5392 138.448 25.1208C136.657 22.1346 134.716 19.223 132.849 16.3115C132.625 15.9382 132.252 15.5649 132.028 15.1917C131.655 15.341 131.505 15.4156 131.356 15.4156Z" fill="#22AF91"/>
  <path d="M45.5748 14.2911C46.9186 12.6487 48.4864 11.081 49.6809 9.28927C51.2486 6.97496 53.2643 6.3777 56.1759 7.12425C54.4588 9.2146 52.8164 11.305 51.0993 13.246C50.2781 14.2165 50.2034 14.9631 50.8753 16.0829C52.891 19.2931 54.7574 22.5779 56.7731 26.1613C54.2349 26.6839 52.3685 26.6839 51.2486 23.9963C50.2781 21.8313 48.8597 19.8903 47.6652 17.7999C45.0522 19.3677 44.7536 21.682 45.0522 24.1456C45.2016 25.5641 44.9776 26.46 43.1112 26.46C41.1702 26.46 41.2448 25.4148 41.2448 24.071C41.2448 19.0691 41.2448 14.1419 41.2448 9.13995C41.2448 7.87081 41.0955 6.82563 43.0365 6.75098C45.1269 6.75098 45.0522 7.87082 45.0522 9.28927C44.9776 10.9317 45.0522 12.4995 45.0522 14.1419C45.2016 14.2165 45.3509 14.2911 45.5748 14.2911Z" fill="#22AF91"/>
  <path d="M60.5801 14.142C60.5801 12.3503 60.6548 10.4838 60.5801 8.69212C60.5055 7.34832 60.9534 6.7511 62.3719 6.7511C63.7156 6.7511 64.5368 6.90041 64.4622 8.61748C64.3129 11.6037 64.4622 14.5899 64.4622 17.5761C64.4622 21.3089 65.4327 22.9513 67.747 23.0259C70.0614 23.1006 71.1065 21.3835 71.1065 17.5015C71.1065 14.5153 71.1812 11.5291 71.1065 8.54284C71.0319 6.97508 71.8531 6.82574 73.1222 6.82574C74.3167 6.82574 75.1379 6.97508 75.1379 8.54284C75.0632 12.201 75.2126 15.859 75.0632 19.5171C74.9139 23.8471 72.0024 26.6094 67.6724 26.5347C63.417 26.4601 60.7294 23.6979 60.6548 19.2185C60.5801 17.5015 60.6548 15.8591 60.5801 14.142Z" fill="#22AF91"/>
  <path d="M97.9062 16.4587C97.9062 15.4882 97.8316 14.443 97.9062 13.4725C98.1302 9.51574 100.818 6.82817 104.7 6.67886C108.507 6.52955 111.419 9.0678 112.016 12.9499C112.389 15.5628 112.389 18.2504 111.941 20.8634C111.344 24.4468 108.582 26.6118 104.625 26.5371C101.042 26.4625 98.2048 23.9989 97.9062 20.4901C97.8316 19.1463 97.9062 17.8025 97.9062 16.4587ZM108.433 16.832C108.358 15.4882 108.358 14.1444 108.134 12.8752C107.835 11.1582 106.716 10.2623 104.998 10.2623C103.356 10.2623 102.087 11.0088 101.788 12.8006C101.34 15.4135 101.34 18.1011 101.788 20.714C102.087 22.5058 103.281 23.2523 104.998 23.1777C106.716 23.1777 107.835 22.2818 108.134 20.5647C108.358 19.2209 108.358 18.0264 108.433 16.832Z" fill="#22AF91"/>
  <path d="M79.9922 16.3866C80.1415 14.9682 80.1415 13.5497 80.3655 12.2059C80.8881 9.14504 83.1277 7.20401 86.3379 6.75608C89.2494 6.30815 92.3103 7.80127 93.5795 10.4142C93.9527 11.1608 94.8486 12.2806 93.8781 12.7285C92.9076 13.1764 91.2652 13.5497 90.5186 12.2806C89.4734 10.4889 88.1297 9.81697 86.1886 10.4142C84.0983 11.0861 84.0236 12.8778 84.0236 14.6695C84.0236 16.3119 84.0236 17.9544 84.0982 19.6714C84.1729 21.2392 84.6955 22.4337 86.3379 22.8816C87.9056 23.3295 89.3988 23.0309 90.22 21.4632C91.1158 19.7461 92.6836 20.418 93.9527 20.4927C94.8486 20.5673 94.2514 21.4632 94.1021 21.9111C93.2808 24.748 90.6679 26.5397 87.2338 26.4651C84.0236 26.3904 81.4107 24.5987 80.6641 21.7618C80.0669 20.0447 80.0668 18.1784 79.9922 16.3866Z" fill="#22AF91"/>
  <path d="M121.423 16.7554C121.423 19.443 121.348 22.0559 121.423 24.7435C121.423 26.0126 121.049 26.5352 119.706 26.4606C118.511 26.3859 117.615 26.3859 117.69 24.8181C117.765 19.443 117.765 14.0678 117.69 8.61794C117.69 7.05018 118.436 6.90088 119.706 6.90088C120.9 6.90088 121.497 7.19951 121.497 8.5433C121.348 11.3055 121.423 13.9931 121.423 16.7554Z" fill="#22AF91"/>
  <path d="M19.3677 13.9191C21.0848 13.9191 22.1299 14.8896 22.1299 16.6067C22.1299 18.1744 21.0848 19.2943 19.4424 19.3689C17.7253 19.4436 16.6055 18.3984 16.6055 16.6067C16.6055 15.0389 17.5013 13.9937 19.3677 13.9191Z" fill="#22AF91"/>
</svg>