<svg xmlns="http://www.w3.org/2000/svg" width="140" height="40" viewBox="0 0 140 40" fill="none">
  <path d="M11.8029 39.839C10.1784 39.4329 8.6555 39.1283 7.13257 38.8237C6.32034 38.6207 6.2188 38.2145 6.2188 37.5038C6.2188 36.1839 6.2188 34.8641 6.2188 33.5442C6.2188 32.6305 6.01575 32.0213 5.00046 31.9197C4.18823 31.8182 3.47753 31.4121 2.6653 31.4121C1.14237 31.209 0.533203 30.5999 0.533203 28.8739C0.634732 23.1883 0.634732 17.5027 0.533203 11.8171C0.533203 10.5987 0.837789 10.1926 2.05613 10.5987C2.15766 10.5987 2.15766 10.5987 2.25919 10.5987C3.47753 10.8018 5.10198 11.9186 5.91421 11.1064C6.72644 10.3957 6.11727 8.56818 6.2188 7.34984C6.2188 5.21774 6.21881 5.2177 8.35091 5.72534C11.8029 6.53757 11.8029 6.53756 11.8029 2.98406C11.8029 0.242782 11.8029 0.242807 14.5441 0.851979C17.387 1.56268 17.387 1.56268 17.387 4.40548C17.387 7.75593 17.387 7.95896 20.7374 8.56813C22.5649 8.87272 23.0726 9.68497 22.9711 11.5125C22.8695 16.995 22.9711 22.376 22.9711 27.8586C22.9711 28.4678 22.9711 28.9754 22.9711 29.6861C21.3466 29.28 19.9252 29.077 18.5038 28.6709C17.59 28.4678 17.387 28.5693 17.387 29.4831C17.4885 31.2091 17.387 32.9351 17.387 34.7626C15.7625 34.3565 14.3411 34.0518 12.9197 33.6457C12.1075 33.4427 11.8029 33.6458 11.8029 34.5595C11.8029 36.2855 11.8029 38.0115 11.8029 39.839ZM12.8182 29.4831C12.8182 28.7724 12.8182 28.1632 12.8182 27.4525C12.8182 24.4066 12.8182 21.2592 12.8182 18.2134C12.8182 17.5027 12.5136 17.2996 11.9044 17.1981C9.97537 16.792 8.04633 16.2844 6.11728 15.7767C5.30505 15.5737 5.00046 15.7767 5.00046 16.6904C5.00046 20.0409 5.00046 23.2898 5.00046 26.6403C5.00046 27.4525 5.30505 27.7571 6.01575 27.8586C8.35091 28.3662 10.483 28.9754 12.8182 29.4831Z" fill="white"/>
  <path d="M41.757 21.1548C41.1478 24.8099 40.5386 28.4649 40.031 32.2215C39.9294 33.2368 39.6248 33.9475 38.305 33.7444C36.782 33.5413 34.5484 34.4551 33.7362 33.3383C33.127 32.4245 34.0408 30.3939 34.3453 28.871C35.2591 23.3884 36.2744 17.9059 37.1882 12.4234C37.3912 11.205 37.6958 10.6974 39.1172 10.6974C43.686 10.7989 43.686 10.6974 45.3105 14.86C46.3257 17.3982 47.341 19.9365 48.3563 22.4747C48.9655 22.1701 48.9655 21.561 49.1685 21.0533C49.9808 19.0227 50.793 16.9922 51.6052 14.9616C53.4327 10.2913 53.4327 10.3928 58.4077 10.6974C59.2199 10.6974 59.4229 11.002 59.626 11.7127C60.8443 18.6166 62.0627 25.419 63.281 32.323C63.4841 33.3383 63.1795 33.6429 62.1642 33.5413C60.5397 33.4398 58.5092 34.1505 57.4939 33.2368C56.5801 32.4245 56.7832 30.3939 56.4786 28.871C56.0725 26.3328 55.6664 23.7945 55.2603 21.2563C54.448 21.1548 54.5496 21.764 54.3465 22.1701C52.8236 25.6221 51.4022 28.9725 49.9808 32.4245C49.5746 33.3382 49.1685 33.5413 48.2548 33.6428C47.2395 33.6428 46.8334 33.2367 46.5288 32.4245C45.0059 28.5664 43.4829 24.8099 41.8585 21.0533C41.96 21.0533 41.8585 21.0533 41.757 21.1548Z" fill="white"/>
  <path d="M114.346 17.5024C115.971 17.5024 117.494 17.807 119.017 18.4162C122.367 19.9391 124.195 22.5788 124.093 26.0308C123.992 29.3813 121.961 32.1225 118.611 33.3409C115.666 34.3562 112.823 34.4577 109.879 33.3409C106.529 32.021 104.6 29.2797 104.6 25.8277C104.6 22.3758 106.427 20.0407 109.371 18.5177C110.894 17.807 112.62 17.5024 114.346 17.5024ZM114.346 22.2742C112.316 22.2742 110.691 23.8987 110.691 25.8277C110.691 27.7568 112.316 29.3812 114.346 29.3812C116.478 29.3812 118.204 27.7568 118.103 25.7262C118.001 23.8987 116.377 22.2742 114.346 22.2742Z" fill="white"/>
  <path d="M96.375 20.2424C97.9995 18.618 99.6239 17.8058 101.756 17.8058C102.568 17.8058 102.873 18.0088 102.873 18.9226C102.771 20.2424 102.873 21.5623 102.873 22.7807C102.467 23.0852 102.264 22.8822 101.959 22.7807C98.2026 22.07 96.4766 23.4914 96.375 27.3494C96.375 28.9739 96.375 30.6999 96.375 32.3244C96.375 33.3397 96.172 33.7458 95.0552 33.7458C90.5879 33.8473 90.5879 33.8473 90.5879 29.38C90.5879 26.0296 90.5879 22.7807 90.5879 19.4302C90.5879 18.5165 90.791 18.1103 91.8062 18.2119C92.6185 18.3134 93.5322 18.3134 94.3445 18.2119C95.7659 18.0088 96.9842 18.0088 96.375 20.2424Z" fill="white"/>
  <path d="M139.426 22.9829C139.019 22.8813 138.816 22.8813 138.613 22.7798C134.654 21.9676 132.928 23.389 132.928 27.3486C132.928 29.0746 132.928 30.8006 132.928 32.5266C132.928 33.3388 132.826 33.8465 131.811 33.745C130.593 33.6434 129.374 33.6434 128.257 33.745C127.242 33.8465 127.141 33.3388 127.141 32.5266C127.141 28.1609 127.141 23.6936 127.141 19.3279C127.141 18.4141 127.344 18.1095 128.257 18.1095C129.171 18.211 130.085 18.211 130.999 18.1095C132.522 17.9065 133.334 18.4141 132.826 20.4447C134.451 18.7187 135.974 17.7034 138.106 17.7034C139.121 17.7034 139.527 17.9065 139.527 19.0233C139.324 20.3432 139.426 21.5615 139.426 22.9829Z" fill="white"/>
  <path d="M81.8594 20.1395C83.3823 18.7181 85.0068 17.7028 87.0373 17.8044C87.8496 17.8044 88.2557 18.0074 88.2557 18.9211C88.1542 20.241 88.2557 21.5609 88.2557 22.8808C87.6465 22.7793 87.1389 22.6777 86.6312 22.5762C83.5854 22.1701 82.0624 23.3884 81.7579 26.4343C81.6563 28.4649 81.6563 30.3939 81.6563 32.4244C81.6563 33.3382 81.3517 33.5413 80.5395 33.6428C75.9707 33.8459 75.9707 33.8458 75.9707 29.3786C75.9707 26.1297 76.0722 22.8808 75.9707 19.5304C75.9707 18.312 76.3768 17.9059 77.4936 18.0074C78.2043 18.109 79.0166 18.109 79.7273 18.0074C81.3517 17.9059 82.164 18.312 81.8594 20.1395Z" fill="white"/>
  <path d="M72.414 25.9304C72.414 28.1641 72.414 30.3977 72.414 32.6313C72.414 33.4435 72.211 33.7481 71.2972 33.7481C70.0789 33.6466 68.8606 33.6466 67.6422 33.7481C66.6269 33.8497 66.5254 33.342 66.5254 32.5298C66.5254 28.1641 66.5254 23.6968 66.5254 19.3311C66.5254 18.4173 66.83 18.2142 67.7437 18.2142C72.3125 18.0112 72.3125 18.0112 72.3125 22.58C72.414 23.5953 72.414 24.8136 72.414 25.9304Z" fill="white"/>
  <path d="M69.5751 9.07365C71.4026 9.07365 72.824 10.4951 72.7225 12.2211C72.7225 13.9471 71.3011 15.2669 69.4735 15.2669C67.646 15.2669 66.2246 13.8455 66.2246 12.2211C66.3261 10.4951 67.8491 8.97212 69.5751 9.07365Z" fill="white"/>
</svg>