<svg xmlns="http://www.w3.org/2000/svg" width="145" height="31" viewBox="0 0 145 31" fill="none">
  <path d="M79.1464 14.3285C77.0519 17.2696 74.8683 20.1662 72.8184 23.1519C71.6598 24.8899 70.9022 24.8007 69.7436 23.1074C67.6046 19.9434 65.3319 16.9131 62.569 13.0807C62.569 17.4033 62.4353 20.9683 62.6135 24.4888C62.7027 26.5387 61.7668 26.7169 60.0734 26.8061C58.1572 26.8952 57.979 26.0039 57.979 24.4442C58.0681 19.8097 57.9344 15.2197 58.0681 10.5852C58.1127 9.56023 57.1769 7.77771 59.0485 7.64402C60.6528 7.51033 62.569 6.7082 63.8613 8.62441C65.8666 11.521 68.0056 14.3285 69.9218 17.2696C71.0359 18.963 71.6598 18.6956 72.6402 17.1805C74.3781 14.5067 76.2498 11.9221 78.0323 9.29285C78.7453 8.26791 79.4137 7.5549 80.8843 7.46577C83.469 7.28752 84.6276 7.77771 84.4048 10.7634C84.0928 15.3534 84.2265 19.9879 84.3602 24.6225C84.4048 26.4941 83.6026 26.7615 82.0429 26.7615C80.4832 26.7615 79.6366 26.6278 79.7257 24.6671C79.9039 21.2803 79.7703 17.8935 79.7703 14.5513C79.5474 14.4621 79.3692 14.4176 79.1464 14.3285Z" fill="white"/>
  <path d="M134.533 26.7179C132.127 26.7179 129.72 26.7624 127.269 26.7179C124.907 26.6733 123.571 25.4255 123.571 23.0191C123.526 19.053 123.526 15.1315 123.571 11.1654C123.615 8.80357 124.818 7.46668 127.225 7.46668C132.171 7.42212 137.118 7.46668 142.064 7.42212C143.356 7.42212 144.025 7.55581 144.069 9.16007C144.114 10.9426 143.267 11.0763 141.886 11.0317C138.053 10.9872 134.177 11.1208 130.344 10.9872C128.428 10.9426 127.849 11.5665 127.938 13.4381C128.071 15.9782 128.071 18.4737 127.938 21.0138C127.849 22.7963 128.562 23.2865 130.21 23.242C134.043 23.1528 137.92 23.242 141.752 23.1974C143.045 23.1974 144.025 23.1083 144.069 24.9799C144.069 26.9407 143 26.7179 141.752 26.7179C139.346 26.7179 136.939 26.7179 134.533 26.7179Z" fill="white"/>
  <path d="M116.091 7.91107C113.685 10.4512 111.501 12.8576 109.139 15.1303C107.936 16.2889 107.891 17.091 109.095 18.2942C111.679 20.8343 114.13 23.5081 116.982 26.4938C114.219 26.6721 111.947 27.5633 109.897 25.1569C108.292 23.2407 106.287 21.6364 104.46 19.8539C100.94 22.3494 99.4245 28.5437 92.6955 26.3601C94.9682 23.9537 97.0181 21.4582 99.469 19.3637C101.875 17.3138 101.563 15.8433 99.3353 14.0607C97.1963 12.3674 95.1019 10.5848 92.4727 8.40126C98.043 6.84156 98.4886 6.79699 102.143 11.2087C104.237 13.7488 105.574 13.9271 107.401 11.2087C109.407 8.31213 111.902 6.48505 116.091 7.91107Z" fill="white"/>
  <path d="M42.6885 30.2369H20.0951C16.2627 30.2369 13.8563 26.1371 15.7279 22.7503L26.8241 3.27634C28.8294 -0.244131 33.865 -0.244131 35.8703 3.27634L46.9665 22.7503C48.9273 26.048 46.5209 30.2369 42.6885 30.2369Z" fill="#008477"/>
  <path opacity="0.95" d="M28.0771 30.2371H5.48374C1.65133 30.2371 -0.755065 26.1373 1.11658 22.7506L12.2127 3.27658C14.2181 -0.243887 19.2537 -0.243887 21.259 3.27658L32.3552 22.7506C34.9844 26.984 37.3462 30.2371 42.2481 30.2371" fill="url(#paint0_linear_3848_3349)"/>
  <defs>
    <linearGradient id="paint0_linear_3848_3349" x1="19.5906" y1="15.4596" x2="44.318" y2="15.4596" gradientUnits="userSpaceOnUse">
      <stop stop-color="#67F9A5"/>
      <stop offset="1" stop-color="#029176"/>
    </linearGradient>
  </defs>
</svg>