<svg xmlns="http://www.w3.org/2000/svg" width="156" height="25" viewBox="0 0 156 25" fill="none">
  <path d="M29.91 24.5399C20.655 24.5399 11.4901 24.5399 2.20508 24.5399C6.80253 16.547 11.4 8.61411 16.0575 0.531006C20.685 8.58406 25.2825 16.547 29.91 24.5399ZM24.2608 21.3548C21.4963 16.577 18.822 11.9195 16.0575 7.17177C13.293 11.9495 10.6187 16.6071 7.88428 21.3548C13.3832 21.3548 18.7319 21.3548 24.2608 21.3548Z" fill="white"/>
  <path d="M109.211 17.4489C109.932 15.9164 110.503 14.444 111.014 12.9416C111.825 10.6879 112.546 8.43427 113.177 6.12052C113.298 5.66979 113.478 5.4895 113.989 5.4895C115.131 5.51955 115.101 5.4895 115.371 6.57125C116.302 10.2973 117.595 13.9031 119.217 17.4789C119.878 16.307 120.329 15.1051 120.78 13.9332C121.771 11.349 122.703 8.76481 123.334 6.09048C123.424 5.66979 123.574 5.4895 124.055 5.4895C125.467 5.51955 125.497 5.4895 125.107 6.84169C123.905 11.0485 122.342 15.1051 120.389 19.0114C120.179 19.4321 119.938 19.5222 119.488 19.5823C118.496 19.7025 118.045 19.2819 117.655 18.3804C116.453 15.5558 115.251 12.7012 114.349 9.75642C114.289 9.57613 114.229 9.42588 114.139 9.15544C113.688 10.4776 113.268 11.7096 112.847 12.9115C112.126 14.9548 111.224 16.9681 110.353 18.9513C110.143 19.4321 109.872 19.5523 109.361 19.5823C108.43 19.6725 107.949 19.342 107.528 18.4705C105.605 14.4741 104.073 10.3273 102.871 6.06043C102.751 5.60969 102.841 5.51955 103.291 5.51955C104.854 5.51955 104.854 5.4895 105.275 6.99194C106.206 10.2973 107.348 13.5125 108.79 16.6376C108.911 16.878 109.031 17.1184 109.211 17.4489Z" fill="white"/>
  <path d="M144.069 18.7395C144.069 20.4823 144.039 22.135 144.069 23.8177C144.069 24.4187 143.889 24.5389 143.318 24.5389C141.996 24.5088 141.996 24.5389 141.996 23.1867C141.996 17.6878 141.996 12.1588 141.996 6.65988C141.996 6.14905 142.116 5.93871 142.627 5.81852C145.061 5.27764 147.495 4.97715 149.929 5.45793C153.895 6.20915 156.209 9.51451 155.728 13.5711C155.187 18.1385 151.612 20.2719 147.255 19.7912C146.173 19.6409 145.151 19.2503 144.069 18.7395ZM144.069 12.1287C144.069 13.6011 144.1 15.0435 144.069 16.5159C144.069 16.9065 144.19 17.0868 144.52 17.2671C145.662 17.8681 146.894 18.2286 148.186 18.2286C150.921 18.2887 152.964 17.1168 153.505 14.142C153.595 13.6312 153.625 13.1204 153.655 12.6095C153.715 9.33422 151.732 7.05051 148.607 6.87022C147.255 6.78008 145.932 6.84017 144.58 7.11061C144.16 7.20076 144.069 7.351 144.069 7.74164C144.069 9.18398 144.069 10.6564 144.069 12.1287Z" fill="white"/>
  <path d="M36.1406 15.2266C36.1406 12.3419 36.1406 9.45725 36.1406 6.57258C36.1406 6.12185 36.2608 5.94155 36.7115 5.82136C39.1154 5.28048 41.5494 4.98 44.0134 5.43073C47.8596 6.1519 50.0832 9.03657 49.8729 12.9429C49.6325 17.6005 46.1769 20.395 41.4592 19.764C40.4977 19.6438 39.5361 19.4034 38.6647 18.9526C38.1238 18.6822 38.1238 18.8925 38.1238 19.3433C38.1539 20.8457 38.1238 22.3782 38.1539 23.8806C38.1539 24.3614 38.0938 24.5718 37.5229 24.5718C36.1406 24.5417 36.1406 24.5718 36.1406 23.1895C36.1406 20.5152 36.1406 17.8709 36.1406 15.2266ZM38.1238 12.1316C38.1238 13.5739 38.1539 15.0163 38.1238 16.4586C38.1238 16.8793 38.2741 17.0896 38.6046 17.2699C39.7465 17.8709 40.9785 18.1714 42.2706 18.2615C45.005 18.4118 46.9882 16.9694 47.5591 14.4153C47.7394 13.5439 47.7995 12.6725 47.7094 11.771C47.499 9.18681 45.9065 7.41394 43.3523 6.99326C41.7898 6.72282 40.1972 6.84302 38.6347 7.1435C38.214 7.2036 38.1238 7.38389 38.1238 7.77452C38.1539 9.21686 38.1238 10.6592 38.1238 12.1316Z" fill="white"/>
  <path d="M138.627 14.3251C138.627 15.7974 138.627 17.2398 138.627 18.7122C138.627 18.9826 138.657 19.223 138.267 19.253C135.653 19.6737 133.038 20.0944 130.394 19.5535C127.599 18.9826 126.157 16.7891 126.908 14.2349C127.329 12.7926 128.441 12.0714 129.763 11.6207C131.145 11.1399 132.588 11.0798 134.03 11.1098C134.931 11.1399 134.39 11.831 134.481 12.1916C134.601 12.6423 134.27 12.6423 133.94 12.6123C132.618 12.5822 131.295 12.5822 130.094 13.2734C129.132 13.8142 128.771 14.6255 128.861 15.7073C128.952 16.6989 129.462 17.39 130.394 17.7506C131.265 18.1112 132.197 18.1713 133.128 18.1713C134.15 18.1713 135.172 18.1112 136.193 17.991C136.524 17.9609 136.614 17.8408 136.614 17.5102C136.614 15.0763 136.644 12.6423 136.584 10.2084C136.524 7.80449 135.262 6.66264 132.648 6.69269C131.536 6.69269 130.424 6.75279 129.342 7.14342C128.922 7.29366 128.741 7.23357 128.741 6.75279C128.741 6.63259 128.711 6.5124 128.651 6.42225C128.471 5.91142 128.621 5.64098 129.192 5.52079C131.085 5.13016 133.008 4.91981 134.931 5.37055C137.305 5.94147 138.567 7.53405 138.627 10.0281C138.657 11.5005 138.627 12.9128 138.627 14.3251Z" fill="white"/>
  <path d="M64.0226 14.3818C64.0226 15.704 63.9925 17.0261 64.0526 18.3482C64.0827 18.9793 63.9324 19.2497 63.2714 19.3399C60.7773 19.7004 58.3133 20.0911 55.7892 19.5502C54.1065 19.1896 52.7543 18.3783 52.2735 16.5754C51.7327 14.5621 52.5139 12.8193 54.3769 11.9479C55.9996 11.1666 57.7725 11.0765 59.5453 11.1366C59.7857 11.1366 59.8458 11.2267 59.8759 11.4671C59.9961 12.5488 59.936 12.6089 58.8843 12.639C57.8626 12.669 56.8409 12.6991 55.8794 13.0897C54.7075 13.5705 54.1967 14.3217 54.2267 15.5537C54.2568 16.7557 54.8277 17.5069 56.0296 17.8975C57.6823 18.4384 59.3951 18.198 61.0778 18.1079C61.829 18.0778 62.0093 17.8074 61.9793 17.0562C61.9192 14.9227 61.9192 12.7892 61.9492 10.6558C62.0093 7.71101 60.4468 6.68935 57.7725 6.74945C56.6907 6.7795 55.639 6.8396 54.6173 7.20018C54.2568 7.32037 54.1065 7.26028 54.0765 6.86964C54.0765 6.62925 54.0164 6.41892 53.9563 6.17853C53.8661 5.84799 53.9563 5.69775 54.2868 5.63765C56.4203 5.12682 58.5537 4.91648 60.6872 5.51745C62.8206 6.11843 63.9024 7.68096 63.9925 10.145C64.0226 11.5572 63.9925 12.9695 64.0226 14.3818C63.9925 14.3818 63.9925 14.3818 64.0226 14.3818Z" fill="white"/>
  <path d="M88.3225 14.2617C88.3225 15.7341 88.3225 17.2365 88.3225 18.7089C88.3225 18.9794 88.3525 19.1897 87.992 19.2798C85.558 19.6705 83.1241 20.0311 80.6601 19.6705C80.0591 19.5803 79.4882 19.4301 78.9173 19.1897C77.2646 18.4986 76.3631 16.9961 76.4833 15.1932C76.5735 13.5105 77.6853 12.1883 79.5182 11.6174C80.9005 11.1967 82.3428 11.0765 83.7851 11.1366C84.6866 11.1667 84.1457 11.8578 84.2359 12.2184C84.3561 12.6691 84.0255 12.6691 83.695 12.6391C82.5532 12.579 81.4113 12.6391 80.3295 13.0297C79.1276 13.4804 78.5266 14.3218 78.5567 15.4937C78.5867 16.6957 79.1877 17.507 80.4197 17.8676C82.2827 18.4385 84.1758 18.168 86.0688 17.9877C86.2792 17.9577 86.3092 17.8375 86.3092 17.6572C86.2491 14.9528 86.4595 12.2184 86.189 9.51401C86.0388 8.01158 85.0772 7.05002 83.6049 6.83968C82.1024 6.59929 80.6 6.68944 79.1276 7.14017C78.6168 7.29041 78.4365 7.20026 78.3764 6.68944C78.2261 5.66778 78.1961 5.66778 79.2478 5.45744C81.0507 5.1269 82.8837 4.94661 84.7167 5.39734C87.0004 5.96827 88.2324 7.50075 88.3225 9.8145C88.3526 11.3169 88.3225 12.7893 88.3225 14.2617Z" fill="white"/>
  <path d="M0.103516 0.588135C4.31033 0.588135 8.427 0.588135 12.6038 0.588135C10.5004 4.22403 8.45706 7.76977 6.35365 11.4057C4.28029 7.79982 2.20692 4.22403 0.103516 0.588135Z" fill="white"/>
  <path d="M93.6426 7.41556C93.6426 7.5658 93.6426 7.7461 93.6426 7.89634C93.6126 9.9096 93.9131 10.3603 95.8061 11.1115C97.1583 11.6524 98.5706 12.0431 99.8928 12.7041C101.666 13.5455 102.387 14.8676 102.146 16.6105C101.996 17.6622 101.395 18.3833 100.524 18.8942C99.6524 19.405 98.6908 19.6454 97.6692 19.7355C95.6859 19.9459 93.7328 19.8858 91.8397 19.2247C91.4791 19.1045 91.389 18.9843 91.5092 18.5937C91.8698 17.5119 91.8397 17.542 92.9215 17.8425C94.6943 18.3533 96.4973 18.4735 98.3002 18.0228C99.7726 17.6321 100.343 16.7908 100.073 15.5287C99.9228 14.8376 99.442 14.447 98.8711 14.1765C97.6391 13.5455 96.2869 13.1849 94.9948 12.644C94.5441 12.4637 94.0934 12.2835 93.6727 12.0431C92.3205 11.3219 91.5092 10.2702 91.6294 8.61751C91.6895 7.71604 91.6594 6.81458 91.6294 5.91312C91.6294 5.58259 91.7195 5.49244 92.05 5.49244C93.6727 5.43234 93.6727 5.43234 93.6727 7.05497C93.6426 7.14512 93.6426 7.26531 93.6426 7.41556Z" fill="white"/>
  <path d="M67.3477 12.7897C67.3477 10.8065 67.3477 8.79319 67.3477 6.80998C67.3477 6.35925 67.4378 6.11886 67.9186 5.96861C70.3225 5.2174 72.7865 5.06716 75.2805 5.48784C75.7913 5.57798 75.9416 5.72823 75.7913 6.29915C75.6411 6.99027 75.4308 7.20061 74.6795 7.02032C73.1471 6.68978 71.5845 6.77993 70.052 7.05037C69.5412 7.14052 69.3609 7.35085 69.3609 7.92178C69.391 11.5577 69.3609 15.1635 69.391 18.7994C69.391 19.4004 69.3008 19.6107 68.6397 19.5807C67.3777 19.5206 67.3777 19.5506 67.3777 18.3186C67.3477 16.4556 67.3477 14.6226 67.3477 12.7897Z" fill="white"/>
</svg>