<svg xmlns="http://www.w3.org/2000/svg" width="141" height="39" viewBox="0 0 141 39" fill="none">
  <path d="M13.7658 0.609619C16.9066 2.44408 20.0509 4.2717 23.1858 6.11556C24.1454 6.67949 24.617 7.54075 24.611 8.6592C24.6051 9.79474 24.6102 10.9311 24.6102 12.0667C24.6102 12.2205 24.6298 12.3614 24.4495 12.464C23.0816 13.2449 21.7205 14.037 20.2859 14.8666C20.2859 14.4873 20.2859 14.1694 20.2859 13.8516C20.2859 12.957 20.2868 12.0624 20.2859 11.1678C20.2851 10.0989 19.8194 9.28549 18.9077 8.73268C17.3527 7.78853 15.7985 6.84183 14.2323 5.91648C13.2369 5.32863 12.2175 5.29018 11.1973 5.88487C9.66194 6.7786 8.12226 7.6655 6.586 8.55752C5.60682 9.12572 5.09245 9.97502 5.08647 11.1063C5.07708 12.9237 5.07707 14.741 5.08733 16.5584C5.09331 17.7033 5.60255 18.5543 6.60138 19.1413C8.08381 20.012 9.55087 20.9109 11.0205 21.8037C12.1312 22.4779 13.2275 22.5189 14.3528 21.8183C19.7596 18.4527 25.4074 15.4989 30.862 12.2119C31.8028 11.6454 32.8093 11.636 33.785 12.2008C36.7619 13.9233 39.737 15.6493 42.7155 17.3692C43.7605 17.9725 44.2526 18.8705 44.2501 20.071C44.2415 23.5075 44.2432 26.9431 44.2492 30.3796C44.2509 31.5793 43.7554 32.4713 42.7061 33.0745C39.7737 34.7612 36.8576 36.4751 33.9158 38.1456C32.8742 38.7368 31.7694 38.7462 30.7151 38.1404C27.7938 36.4632 24.8844 34.7654 21.9666 33.0822C20.9276 32.4824 20.3893 31.6151 20.4124 30.3993C20.4329 29.3347 20.4175 28.2692 20.4158 27.2046C20.4158 27.02 20.4038 26.8551 20.6123 26.7364C21.9572 25.9708 23.2944 25.1924 24.6341 24.4183C24.7682 24.5123 24.711 24.6353 24.7119 24.7353C24.717 25.7717 24.7136 26.8081 24.7153 27.8446C24.7178 28.9715 25.1801 29.8422 26.1678 30.4155C27.7169 31.3144 29.2608 32.2227 30.8185 33.1053C31.8386 33.6837 32.8699 33.6923 33.8944 33.0762C35.3444 32.2047 36.7977 31.3409 38.2571 30.4847C39.3064 29.8696 39.8327 28.9809 39.819 27.7548C39.8002 25.9947 39.813 24.2337 39.8147 22.4728C39.8156 21.3244 39.3303 20.458 38.3272 19.8804C36.8242 19.0149 35.3247 18.1442 33.8269 17.2718C32.7512 16.6455 31.6942 16.6242 30.5997 17.2624C25.2689 20.3666 19.9262 23.4494 14.5946 26.5518C13.782 27.0243 12.9617 27.3507 12.0048 27.1183C11.7536 27.0576 11.5169 26.9645 11.2948 26.8355C8.29315 25.0993 5.29239 23.3597 2.28736 21.6286C1.48933 21.1689 1.01854 20.4802 0.779297 19.6113C0.779297 15.7484 0.779297 11.8855 0.779297 8.02265C1.03477 7.26733 1.40987 6.60771 2.16689 6.2386C2.34547 6.15145 2.51208 6.04208 2.68467 5.94297C5.75549 4.17088 8.78615 2.33129 11.886 0.609619C12.5123 0.609619 13.1395 0.609619 13.7658 0.609619Z" fill="white"/>
  <path d="M140.043 29.826C138.975 29.8277 137.908 29.8166 136.841 29.8388C136.524 29.8457 136.475 29.7337 136.476 29.4509C136.487 27.1798 136.483 24.9096 136.481 22.6385C136.481 22.3404 136.486 22.0396 136.448 21.7457C136.304 20.6554 135.443 19.9736 134.322 20.0445C133.091 20.1223 132.139 20.9886 132.136 22.0584C132.128 24.514 132.126 26.9688 132.142 29.4244C132.143 29.7628 132.05 29.8474 131.72 29.8388C130.795 29.8158 129.87 29.8226 128.945 29.8363C128.689 29.8397 128.581 29.8029 128.582 29.5013C128.594 25.4847 128.592 21.4688 128.584 17.4522C128.583 17.1873 128.651 17.1206 128.914 17.1258C129.867 17.1429 130.821 17.1463 131.774 17.1241C132.089 17.1164 132.167 17.224 132.138 17.5086C132.117 17.717 132.134 17.9289 132.134 18.14C132.191 18.14 132.23 18.1519 132.243 18.1383C133.655 16.749 135.366 16.5832 137.15 17.0813C138.806 17.5444 139.649 18.7996 139.955 20.4427C139.972 20.5349 139.934 20.6469 140.043 20.7084C140.043 23.7485 140.043 26.7868 140.043 29.826Z" fill="white"/>
  <path d="M108.072 18.0724C108.09 17.1291 108.09 17.1291 108.973 17.1291C109.727 17.1291 110.482 17.1394 111.236 17.124C111.498 17.1188 111.599 17.1667 111.598 17.4632C111.586 21.2543 111.622 25.0454 111.576 28.8356C111.549 31.0435 110.777 32.9121 108.714 34.0357C107.705 34.5851 106.611 34.785 105.475 34.797C103.98 34.8132 102.564 34.5441 101.33 33.6384C100.309 32.8882 99.7226 31.8663 99.4705 30.6393C99.415 30.3668 99.456 30.2412 99.7892 30.2497C100.7 30.2736 101.611 30.2668 102.522 30.2523C102.753 30.2489 102.875 30.3044 102.947 30.5368C103.204 31.3588 103.78 31.821 104.623 31.9799C105.206 32.0902 105.784 32.0808 106.352 31.9176C107.365 31.6279 107.828 30.8683 107.993 29.8985C108.078 29.3987 108.114 28.8878 108.067 28.3734C108.037 28.3734 107.999 28.3623 107.987 28.3751C106.496 30.1113 102.88 29.8516 101.162 28.1623C99.8003 26.8217 99.1843 25.1804 99.1646 23.3058C99.1424 21.1885 99.7866 19.3164 101.495 17.9733C103.089 16.7207 104.906 16.5438 106.808 17.1966C107.283 17.3589 107.659 17.6853 108.072 18.0724ZM108.08 23.2015C108.08 22.606 108.072 22.0105 108.084 21.4158C108.088 21.2047 108.027 21.0364 107.904 20.8689C106.673 19.2028 103.9 19.5497 103.052 21.4841C102.689 22.3121 102.617 23.1819 102.799 24.0619C103.029 25.1787 103.569 26.0681 104.732 26.4296C105.862 26.7799 106.858 26.533 107.709 25.7136C107.961 25.4709 108.114 25.1983 108.09 24.8173C108.054 24.2807 108.08 23.7407 108.08 23.2015Z" fill="white"/>
  <path d="M50.9734 21.1287C50.9734 18.3886 50.9726 15.6484 50.9743 12.9083C50.9751 12.288 50.917 12.3751 51.5288 12.3743C53.7067 12.3717 55.8847 12.3631 58.0626 12.3768C59.5194 12.3862 60.9156 12.6451 62.1365 13.5132C63.4848 14.471 64.1094 15.8262 64.2367 17.4239C64.3529 18.879 64.1778 20.2931 63.2968 21.5218C62.3749 22.8077 61.0591 23.4528 59.5263 23.6775C58.0549 23.8928 56.5708 23.7553 55.0926 23.7715C54.7252 23.7758 54.5919 23.8356 54.5979 24.244C54.6244 25.9759 54.5996 27.7078 54.6176 29.4406C54.621 29.7585 54.5441 29.8422 54.2237 29.8337C53.2701 29.8097 52.3157 29.8097 51.363 29.8337C51.0392 29.8414 50.9632 29.7525 50.9649 29.4346C50.9794 26.6663 50.9734 23.8979 50.9734 21.1287ZM54.6099 18.0716C54.6099 18.838 54.6133 19.6036 54.6073 20.37C54.6056 20.5588 54.6064 20.6904 54.8679 20.6827C56.0188 20.6486 57.1723 20.7366 58.3224 20.6349C59.7629 20.5067 60.5781 19.6454 60.6541 18.204C60.7284 16.7874 59.9629 15.7817 58.5582 15.575C57.3176 15.3921 56.0598 15.5416 54.8098 15.4998C54.5765 15.4921 54.609 15.6331 54.609 15.7732C54.6107 16.5396 54.6099 17.3052 54.6099 18.0716Z" fill="white"/>
  <path d="M65.1504 23.4919C65.1726 21.2268 65.8895 19.2761 67.7948 17.9176C70.7469 15.8114 76.4776 16.5223 77.5037 21.9265C77.7763 23.3611 77.7071 24.7829 77.2081 26.1594C76.2768 28.7287 73.8784 30.2256 71.1263 30.1231C67.5539 29.9898 65.3358 27.2061 65.1957 24.172C65.1846 23.9456 65.1658 23.7191 65.1504 23.4919ZM74.1057 23.5166C74.1253 22.605 73.9775 21.7343 73.47 20.9593C72.4908 19.4632 70.3428 19.4564 69.3465 20.9397C68.4673 22.2487 68.4604 24.6838 69.332 26.0022C70.3291 27.5111 72.4976 27.5043 73.4802 25.9842C73.9664 25.2332 74.1227 24.3933 74.1057 23.5166Z" fill="white"/>
  <path d="M120.094 30.1229C116.675 30.1161 114.088 27.6459 113.888 24.2316C113.811 22.9252 113.913 21.653 114.437 20.4422C115.458 18.0823 117.628 16.7682 120.337 16.8562C122.945 16.9408 124.797 18.1917 125.795 20.5747C126.593 22.4792 126.57 24.4555 125.81 26.3771C124.872 28.7498 122.719 30.128 120.094 30.1229ZM122.801 23.5037C122.82 22.5963 122.669 21.7256 122.162 20.9523C121.182 19.4596 119.029 19.4596 118.037 20.9455C117.16 22.2596 117.157 24.6922 118.032 26.008C119.033 27.5152 121.199 27.5007 122.179 25.9781C122.663 25.2245 122.817 24.3846 122.801 23.5037Z" fill="white"/>
  <path d="M85.3066 17.1305C86.5157 17.1305 87.6674 17.1391 88.8201 17.1246C89.0918 17.1211 89.102 17.2997 89.1601 17.468C90.0316 19.9749 90.9031 22.4818 91.7755 24.9887C91.8259 25.134 91.8849 25.2758 91.972 25.5014C92.4351 24.1591 92.8726 22.8945 93.3092 21.6283C93.7928 20.227 94.2799 18.8274 94.7541 17.4236C94.8207 17.2262 94.8874 17.122 95.1266 17.1254C96.2074 17.1399 97.2892 17.1314 98.4315 17.1314C98.2478 17.6261 98.0795 18.0926 97.9018 18.5557C95.9169 23.7524 93.9278 28.9473 91.9515 34.1465C91.8439 34.4293 91.7166 34.5267 91.4132 34.519C90.5169 34.4968 89.6198 34.4917 88.7235 34.5199C88.3185 34.5327 88.3313 34.4105 88.4595 34.1012C88.9926 32.8093 89.4985 31.5063 90.0316 30.2144C90.1316 29.9726 90.1231 29.7744 90.0316 29.5343C88.4988 25.5407 86.9753 21.5428 85.4502 17.5458C85.4057 17.4296 85.369 17.31 85.3066 17.1305Z" fill="white"/>
  <path d="M83.4271 20.6182C83.4271 23.5548 83.4203 26.4924 83.4357 29.429C83.4374 29.7751 83.3331 29.8443 83.0119 29.8375C82.0874 29.817 81.1629 29.8221 80.2384 29.8358C79.9803 29.8392 79.8761 29.7982 79.877 29.5C79.8872 23.5694 79.8864 17.6388 79.8787 11.7082C79.8787 11.4339 79.9419 11.3451 80.229 11.3502C81.1535 11.369 82.0788 11.3767 83.0025 11.3476C83.381 11.3357 83.4357 11.4758 83.4348 11.8082C83.4229 14.744 83.4271 17.6815 83.4271 20.6182Z" fill="white"/>
</svg>