<svg xmlns="http://www.w3.org/2000/svg" width="160" height="37" viewBox="0 0 160 37" fill="none">
  <path d="M33.484 18.5058C33.484 21.1317 33.484 23.6729 33.484 26.2988C33.484 27.3999 33.0605 28.0776 32.1287 28.5858C27.5546 31.2117 23.0652 33.7529 18.4911 36.4634C17.644 36.9717 16.797 36.9717 15.9499 36.4634C11.3758 33.8376 6.80172 31.127 2.22762 28.5858C1.38056 28.0776 0.957031 27.3999 0.957031 26.4682C0.957031 21.1317 0.957031 15.88 0.957031 10.5435C0.957031 9.52703 1.38055 8.84938 2.31231 8.34115C6.80171 5.79998 11.3758 3.1741 15.7805 0.54822C16.797 -0.0447193 17.5593 -0.0447193 18.5758 0.54822C22.9805 3.08939 27.3852 5.63056 31.8746 8.17173C32.9758 8.84937 33.5687 9.61174 33.484 10.967C33.3993 13.5082 33.484 15.9647 33.484 18.5058ZM6.88643 17.7435C6.88643 19.4376 6.88643 21.1317 6.88643 22.8258C6.88643 23.8423 8.24171 25.1976 9.17348 25.0282C10.3594 24.8588 9.76641 23.7576 9.76641 23.1646C9.85112 20.5388 9.76641 17.9976 9.76641 15.3717C9.76641 13.7623 9.85113 13.6776 11.3758 14.5247C12.9005 15.3717 14.3405 16.3035 15.8652 17.1505C16.7123 17.6588 17.4746 17.6588 18.3217 17.1505C20.8629 15.6258 23.404 14.1011 26.0299 12.5764C26.877 12.0682 27.0464 11.7294 26.1146 11.1364C23.4887 9.61172 20.8629 8.08703 18.237 6.56233C17.4746 6.1388 16.797 6.05409 16.0346 6.56233C13.4088 8.08703 10.6982 9.69643 8.0723 11.2211C7.30995 11.6447 6.88643 12.2376 6.88643 13.1694C6.88643 14.6941 6.88643 16.2188 6.88643 17.7435Z" fill="white"/>
  <path d="M105.819 18.507C105.819 24.0975 101.245 28.7563 95.6548 28.7563C89.9795 28.7563 85.4901 24.2669 85.4054 18.5917C85.3207 12.9164 89.9795 8.25757 95.6548 8.25757C101.245 8.34227 105.819 12.9164 105.819 18.507ZM95.6548 13.3399C92.7748 13.3399 90.6572 15.627 90.7419 18.5917C90.7419 21.5564 92.8595 23.674 95.6548 23.674C98.5348 23.674 100.652 21.4717 100.652 18.507C100.652 15.5423 98.4501 13.3399 95.6548 13.3399Z" fill="white"/>
  <path d="M65.0801 18.507C65.0801 15.7118 65.1648 12.9165 65.0801 10.1212C65.0801 9.02002 65.3342 8.51177 66.5201 8.59648C69.146 8.68118 71.6871 8.59648 74.313 8.59648C77.1083 8.59648 79.3953 10.2906 80.4118 12.9165C81.3436 15.4576 80.7506 18.2529 78.633 20.0317C77.7859 20.7094 77.7859 21.2176 78.2942 22.0647C79.3106 23.7588 80.1577 25.5376 81.0894 27.2317C81.5977 28.0788 81.513 28.587 80.3271 28.5023C80.2424 28.5023 80.2424 28.5023 80.1577 28.5023C75.8377 28.587 75.8377 28.587 73.8048 24.6906C73.4659 24.0129 72.9577 23.3353 72.7036 22.6576C72.3648 21.6412 71.5177 21.8106 70.7554 21.8953C69.7389 21.98 70.2471 22.7423 70.2471 23.2505C70.1624 24.5211 70.1624 25.8765 70.2471 27.147C70.3318 28.1635 69.993 28.5023 68.9765 28.5023C65.0801 28.587 65.0801 28.587 65.0801 24.6906C65.0801 22.5729 65.0801 20.54 65.0801 18.507ZM70.2471 15.1188C70.2471 17.4906 70.2471 17.4906 71.9412 17.4906C74.313 17.4906 75.4989 16.7282 75.4989 15.1188C75.4989 13.5094 74.3977 12.7471 72.1106 12.7471C70.2471 12.8318 70.2471 12.8318 70.2471 15.1188Z" fill="white"/>
  <path d="M44.3223 18.5048C44.3223 15.6248 44.3223 12.8295 44.3223 9.9495C44.3223 8.93303 44.6611 8.50952 45.7623 8.50952C48.3034 8.59423 50.8446 8.50952 53.3858 8.50952C57.0281 8.59423 59.654 11.4742 59.654 15.2013C59.5693 18.7589 56.9434 21.3848 53.3011 21.4695C52.0305 21.4695 50.4211 20.8765 49.7434 21.7236C49.1505 22.4012 49.574 24.0107 49.574 25.1965C49.574 28.3307 49.574 28.3306 46.4399 28.3306C44.407 28.3306 44.407 28.3306 44.407 26.213C44.3223 23.6718 44.3223 21.1307 44.3223 18.5048ZM49.4046 14.8624C49.4046 17.3189 49.4046 17.3189 51.8611 17.2342C51.9458 17.2342 52.0305 17.2342 52.1152 17.2342C53.3858 17.1495 54.2328 16.3024 54.2328 15.2013C54.2328 13.9307 53.3858 12.9989 52.1152 12.9142C51.5223 12.8295 50.8446 12.9142 50.2517 12.9142C49.574 12.8295 49.3199 13.0836 49.4046 13.846C49.4893 14.1001 49.4046 14.5236 49.4046 14.8624Z" fill="white"/>
  <path d="M123.694 17.9147C126.32 19.8629 127.167 22.0652 126.489 24.437C125.811 26.724 123.863 28.4182 121.407 28.4182C118.696 28.5029 115.986 28.4182 113.36 28.4182C112.513 28.4182 112.174 28.164 112.174 27.2323C112.174 21.3876 112.174 15.4582 112.174 9.61351C112.174 8.68175 112.513 8.42764 113.36 8.51235C115.647 8.59705 117.849 8.51235 120.136 8.51235C122.423 8.51235 124.287 9.35938 125.218 11.5617C126.15 13.7641 125.727 15.7123 124.033 17.3217C123.948 17.5758 123.863 17.7452 123.694 17.9147ZM117.849 26.8087C119.12 26.8087 120.136 26.8087 121.153 26.8087C123.44 26.8087 125.049 25.2841 125.049 23.0817C125.134 20.7947 123.355 19.0158 121.153 18.9311C119.882 18.9311 118.527 18.9311 117.256 18.9311C113.699 18.9311 113.699 18.9311 113.783 22.404C113.783 23.7593 113.19 25.6229 114.037 26.47C114.8 27.4017 116.663 26.6393 117.849 26.8087ZM117.68 10.2065C116.663 10.2065 115.647 10.2065 114.63 10.2065C113.953 10.2065 113.699 10.3759 113.699 11.0535C113.699 12.8323 113.699 14.6111 113.699 16.39C113.699 17.0676 114.037 17.3217 114.63 17.3217C116.579 17.3217 118.611 17.4064 120.56 17.3217C122.593 17.237 124.117 15.7123 124.033 13.6794C124.033 11.7311 122.593 10.2912 120.475 10.2065C119.628 10.2065 118.611 10.2065 117.68 10.2065Z" fill="white"/>
  <path d="M151.817 19.1824C151.817 16.5565 151.817 14.0154 151.817 11.3895C151.817 10.5425 151.563 10.2036 150.716 10.2036C149.192 10.2883 147.667 10.2036 146.057 10.2036C145.465 10.2036 145.041 10.1189 145.041 9.35658C145.041 8.59423 145.465 8.50952 146.057 8.50952C150.293 8.50952 154.528 8.50952 158.763 8.50952C159.356 8.50952 159.949 8.50952 159.949 9.35658C159.949 10.2883 159.356 10.2036 158.763 10.2036C157.493 10.2036 156.137 10.2883 154.867 10.2036C153.427 10.0342 153.257 10.6272 153.257 11.8977C153.342 16.726 153.257 21.5542 153.257 26.3824C153.257 26.6365 153.257 26.9753 153.257 27.2294C153.257 27.7377 153.427 28.4153 152.495 28.5C151.563 28.5 151.733 27.8224 151.733 27.3142C151.817 24.5189 151.817 21.893 151.817 19.1824Z" fill="white"/>
  <path d="M137.077 18.5061C137.077 21.4708 137.077 24.3508 137.077 27.3155C137.077 27.8237 137.162 28.4167 136.315 28.4167C135.468 28.4167 135.383 27.9084 135.383 27.3155C135.383 21.4708 135.383 15.5414 135.383 9.69671C135.383 9.10377 135.468 8.51081 136.315 8.59552C137.077 8.59552 137.077 9.18847 137.077 9.69671C137.077 12.6614 137.077 15.5414 137.077 18.5061Z" fill="white"/>
  <path d="M17.1345 14.6945C15.4404 14.1015 14.0004 13.1698 12.6451 12.1533C12.2216 11.8145 12.7298 11.4757 12.9839 11.3062C14.0851 10.6286 15.1016 10.0357 16.2027 9.44271C16.7957 9.10389 17.3886 9.1886 17.9815 9.44271C18.998 10.0357 20.0992 10.6286 21.1157 11.2215C21.4545 11.4757 22.0474 11.8145 21.4545 12.238C20.0992 13.1698 18.6592 14.0168 17.1345 14.6945Z" fill="white"/>
</svg>