<svg xmlns="http://www.w3.org/2000/svg" width="113" height="54" viewBox="0 0 113 54" fill="none">
  <g clip-path="url(#clip0_3848_3481)">
    <path d="M22.1894 1.32918C24.8045 1.50066 27.3024 2.13694 29.6515 3.30121C33.9033 5.40861 37.0369 8.62162 39.0478 12.9222C39.8864 14.7137 40.4185 16.5955 40.68 18.554C40.8649 19.9213 40.9145 21.2977 40.8108 22.674C40.5583 26.063 39.5348 29.1993 37.6816 32.0468C35.2785 35.7472 32.0051 38.3825 27.8795 39.9439C26.4232 40.4945 24.9217 40.86 23.3707 41.0405C23.0641 41.0766 22.753 41.1037 22.4464 41.1353C22.1263 41.1217 21.8062 41.1353 21.486 41.1849C21.0848 41.1849 20.679 41.1849 20.2777 41.1849C19.9621 41.1353 19.6419 41.1217 19.3218 41.1353C19.0378 41.1037 18.7537 41.0766 18.4697 41.045C16.9231 40.8645 15.4172 40.499 13.9609 39.9484C9.99763 38.4502 6.80991 35.9502 4.42024 32.4484C2.38678 29.4655 1.25958 26.1578 1.02512 22.5522C1.04766 22.2588 1.02061 21.97 0.939453 21.6857C0.939453 21.2661 0.939453 20.8464 0.939453 20.4267C0.980032 20.3771 0.975524 20.3184 0.984541 20.2597C1.0161 19.9258 1.04766 19.5919 1.07923 19.2579C1.22351 17.7417 1.53461 16.257 2.0396 14.8175C3.75294 9.92578 6.88205 6.22089 11.4044 3.70735C13.9699 2.28135 16.7428 1.5142 19.669 1.32918C19.9711 1.34272 20.2732 1.33821 20.5753 1.27954C20.8097 1.27954 21.0442 1.27954 21.2786 1.27954C21.5807 1.33821 21.8828 1.33821 22.1894 1.32918ZM29.8408 8.7931C29.7552 8.81566 29.5748 8.70736 29.4847 8.82018C29.4035 8.91946 29.4125 9.08642 29.39 9.22632C29.0834 10.9772 28.7768 12.7281 28.4702 14.479C28.1591 16.2615 27.8434 18.0485 27.5323 19.831C27.3024 21.1532 27.0679 22.4755 26.838 23.7931C26.7208 24.47 26.599 25.1469 26.4818 25.8238C26.4322 26.1036 26.4412 26.1172 26.7027 26.2029C27.0454 26.3157 27.3881 26.424 27.7352 26.5233C28.3575 26.6993 28.9887 26.8256 29.6334 26.8753C29.895 26.8933 29.895 26.8888 29.9445 26.6451C29.9987 26.3744 30.0528 26.1036 30.1114 25.8329C30.7065 22.9583 31.3062 20.0883 31.9014 17.2137C32.4469 14.5693 32.9925 11.9249 33.5381 9.28047C33.6057 8.94653 33.6147 8.96458 33.2856 8.94653C32.1539 8.89238 31.0222 8.84725 29.8408 8.7931ZM10.0517 8.77505C9.53322 8.77505 9.0102 8.77505 8.49169 8.77505C8.2392 8.77505 8.2392 8.77505 8.28429 9.00971C8.50973 10.1514 8.73516 11.2976 8.96511 12.4393C9.42952 14.7588 9.89393 17.0783 10.3538 19.3933C10.8408 21.8347 11.3277 24.276 11.8147 26.7173C11.8553 26.9114 11.8553 26.9114 12.0627 26.9069C12.7119 26.8888 13.3477 26.8121 13.9744 26.6361C14.4568 26.4962 14.9348 26.3383 15.3766 26.0901C15.5525 25.9908 15.548 25.9863 15.5119 25.7968C15.3315 24.9619 15.1557 24.1226 14.9753 23.2877C14.2945 20.1334 13.6092 16.979 12.9283 13.8202C12.5767 12.2047 12.2295 10.5891 11.8778 8.97812C11.8327 8.77054 11.8327 8.77054 11.6163 8.77054C11.0933 8.77505 10.5748 8.77505 10.0517 8.77505ZM24.295 25.1063C24.3176 24.989 24.268 24.9078 24.2409 24.8265C23.9614 23.9376 23.6818 23.0531 23.3978 22.1641C22.9153 20.6388 22.4284 19.1135 21.9414 17.5883C21.8783 17.3942 21.8783 17.3942 21.6844 17.3942C21.0893 17.3942 20.4941 17.3987 19.8989 17.3897C19.7547 17.3897 19.6961 17.4393 19.6555 17.5747C19.5067 18.1072 19.3444 18.6352 19.1866 19.1677C18.632 21.0495 18.0729 22.9267 17.5183 24.8085C17.4912 24.8987 17.4371 24.9935 17.4597 25.1154C17.5048 25.1108 17.5454 25.1108 17.5859 25.1018C18.3209 24.8852 19.0693 24.7498 19.8313 24.6912C20.0477 24.6776 20.0477 24.6686 20.1064 24.443C20.2777 23.7931 20.449 23.1478 20.6204 22.498C20.6339 22.4529 20.6249 22.3942 20.688 22.3717C20.7241 22.3897 20.7195 22.4258 20.7286 22.4529C20.9089 23.1163 21.0938 23.7796 21.2741 24.4385C21.3327 24.646 21.3327 24.646 21.5401 24.6551C22.3202 24.6957 23.0912 24.7904 23.8487 24.989C23.9974 25.0341 24.1417 25.0702 24.295 25.1063ZM26.1752 30.684C26.076 30.6072 26.076 30.5441 26.058 30.4899C25.9092 30.0251 25.7559 29.5648 25.6116 29.1C25.571 28.9646 25.5034 28.9015 25.3546 28.8699C24.5024 28.6849 23.6367 28.572 22.7711 28.4908C22.6989 28.4863 22.6223 28.4592 22.5591 28.5134C22.5411 28.5811 22.5772 28.6307 22.5952 28.6849C23.1498 30.4448 23.7044 32.2047 24.2635 33.9647C24.3356 34.1993 24.3085 34.1722 24.561 34.1722C25.7514 34.1722 26.9462 34.1722 28.1365 34.1722C28.1771 34.1722 28.2222 34.1677 28.2628 34.1722C28.3394 34.1768 28.389 34.1497 28.407 34.0639C28.4161 34.0143 28.4296 33.9647 28.4386 33.915C28.6009 33.1253 28.7678 32.3401 28.9301 31.5504C29.0338 31.0585 29.1375 30.5666 29.2367 30.0702C29.2727 29.8852 29.2592 29.8672 29.1059 29.8446C28.2628 29.7363 27.4467 29.5152 26.6531 29.2083C26.5088 29.1497 26.3601 29.0955 26.1752 29.1C26.1752 29.628 26.1752 30.1379 26.1752 30.684ZM15.8726 30.6524C15.7959 30.5215 15.8095 30.4177 15.805 30.3184C15.7824 29.9574 15.7689 29.5964 15.7463 29.2354C15.7373 29.0729 15.7193 29.0594 15.566 29.1C15.4443 29.1316 15.318 29.1632 15.2098 29.2174C14.3937 29.6145 13.5325 29.8446 12.6263 29.9078C12.4684 29.9168 12.4549 29.9349 12.4865 30.0973C12.7435 31.3789 13.0005 32.6605 13.2575 33.9421C13.3026 34.1722 13.3071 34.1768 13.5461 34.1768C14.6958 34.1768 15.8455 34.1768 16.9953 34.1768C17.0268 34.1768 17.0629 34.1768 17.0945 34.1768C17.1847 34.1813 17.2342 34.1452 17.2568 34.0549C17.2658 34.0053 17.2884 33.9601 17.3019 33.9105C17.8204 32.1912 18.3344 30.4764 18.8484 28.7571C18.8664 28.6894 18.9115 28.6217 18.88 28.545C18.7672 28.5179 18.659 28.5405 18.5508 28.5495C17.8835 28.6262 17.2207 28.7255 16.5669 28.8563C16.4046 28.8879 16.3325 28.9646 16.2919 29.1226C16.1657 29.628 16.0169 30.1244 15.8726 30.6524Z" fill="#23292F"/>
    <path d="M1.02899 22.5497C1.00195 22.5452 0.974909 22.5181 0.943359 22.5407C0.943359 22.2565 0.943359 21.9678 0.943359 21.6836C1.02449 21.9678 1.05153 22.2565 1.02899 22.5497Z" fill="#8C9093"/>
    <path d="M19.3203 41.187C19.3203 41.1689 19.3203 41.1508 19.3203 41.1373C19.6408 41.1237 19.9613 41.1373 20.2773 41.187C19.9568 41.187 19.6363 41.187 19.3203 41.187Z" fill="#8C9093"/>
    <path d="M21.4883 41.1898C21.8088 41.1446 22.1293 41.1311 22.4498 41.1401C22.4408 41.1536 22.4363 41.1717 22.4453 41.1898C22.1248 41.1898 21.8043 41.1898 21.4883 41.1898Z" fill="#8C9093"/>
    <path d="M19.6797 1.32281C19.6797 1.30477 19.6797 1.28673 19.6797 1.27319C19.9817 1.27319 20.2836 1.27319 20.5856 1.27319C20.2836 1.33184 19.9817 1.33635 19.6797 1.32281Z" fill="#8C9093"/>
    <path d="M22.1852 1.32733C21.8832 1.33635 21.5813 1.33635 21.2793 1.27319C21.5813 1.27319 21.8832 1.27319 22.1852 1.27319C22.1852 1.29124 22.1852 1.30928 22.1852 1.32733Z" fill="#8C9093"/>
    <path d="M61.1871 15.1295C60.8535 15.0437 60.5243 14.9535 60.1907 14.8723C59.2934 14.6511 58.3827 14.5248 57.4584 14.4706C56.8136 14.4345 56.1688 14.4165 55.5241 14.4797C55.0461 14.5248 54.5772 14.615 54.1309 14.7956C52.652 15.3867 52.165 17.1466 53.1299 18.4237C53.3959 18.7802 53.7341 19.051 54.1173 19.2721C54.8432 19.6918 55.6052 20.0392 56.3762 20.3777C57.4223 20.838 58.4638 21.2983 59.4467 21.8804C60.1591 22.3001 60.8264 22.7739 61.381 23.3921C62.2783 24.394 62.7066 25.5718 62.6976 26.912C62.6931 27.6476 62.5894 28.3696 62.3098 29.051C61.8499 30.1701 61.0248 30.9373 59.9472 31.4517C59.1356 31.8353 58.2744 32.0474 57.3907 32.1692C55.8352 32.3813 54.2797 32.3588 52.7241 32.1828C51.9216 32.0925 51.1325 31.9526 50.357 31.7315C50.1766 31.6819 50.1766 31.6774 50.2172 31.4969C50.3615 30.8516 50.5013 30.2017 50.6456 29.5564C50.6861 29.3714 50.6906 29.3714 50.88 29.4301C51.7502 29.7144 52.6339 29.94 53.5402 30.0799C54.5502 30.2333 55.5601 30.2514 56.5746 30.1747C57.1788 30.1295 57.774 30.0393 58.3511 29.8543C58.6712 29.755 58.9823 29.6241 59.2664 29.4481C60.1952 28.8795 60.5108 28.0041 60.3846 26.9932C60.2899 26.2622 59.9247 25.671 59.3926 25.1746C59.0409 24.8452 58.6351 24.5925 58.2158 24.3579C57.3456 23.866 56.4394 23.4553 55.5286 23.0447C54.6629 22.6566 53.8152 22.2369 53.0127 21.7315C52.6294 21.4878 52.2597 21.2261 51.9261 20.9192C51.0198 20.0754 50.5238 19.0284 50.4472 17.792C50.3795 16.6548 50.6005 15.5853 51.2768 14.6421C51.8449 13.8479 52.5979 13.2928 53.4906 12.9183C54.2797 12.5889 55.1093 12.4129 55.9569 12.3768C57.4088 12.3091 58.8606 12.3497 60.3034 12.5302C60.6867 12.5798 61.0654 12.6475 61.4351 12.7649C61.5208 12.7919 61.5614 12.819 61.5478 12.9228C61.4351 13.6358 61.3269 14.3488 61.2187 15.0618C61.2097 15.0753 61.1961 15.0979 61.1871 15.1295Z" fill="white"/>
    <path d="M78.1856 19.9525C78.2172 19.6818 78.2488 19.429 78.2803 19.1718C78.3209 18.8379 78.366 18.504 78.3976 18.17C78.4111 18.0121 78.4697 17.9309 78.641 17.8857C79.6239 17.6285 80.6249 17.4706 81.6394 17.3893C82.2345 17.3397 82.8297 17.3126 83.4249 17.3081C84.3762 17.3081 85.3186 17.3893 86.2248 17.7007C86.4142 17.7639 86.6036 17.8406 86.7839 17.9218C87.9246 18.4363 88.5919 19.3298 88.8489 20.5392C88.9436 20.9904 88.9977 21.4507 89.0022 21.911C89.0113 22.8948 88.9662 23.874 88.9256 24.8578C88.867 26.4101 88.8354 27.9625 88.9617 29.5148C89.0203 30.2188 89.1014 30.9183 89.2322 31.6132C89.2683 31.8118 89.2683 31.8163 89.0609 31.8253C88.4161 31.8524 87.7713 31.8749 87.1266 31.9065C86.9868 31.9155 86.9372 31.8614 86.9147 31.735C86.847 31.3876 86.7884 31.0401 86.7839 30.6881C86.7794 30.5302 86.7163 30.4986 86.5855 30.5798C86.5585 30.5979 86.5359 30.6204 86.5089 30.643C85.5981 31.4237 84.5295 31.8569 83.3572 32.0554C82.6268 32.1773 81.8919 32.2314 81.1524 32.1592C80.1785 32.069 79.3173 31.7035 78.5959 31.0356C78.0323 30.5166 77.7122 29.8578 77.604 29.1042C77.4101 27.7504 77.6807 26.5139 78.605 25.467C79.1235 24.8758 79.7502 24.4381 80.4806 24.1448C81.3193 23.8063 82.194 23.6213 83.0822 23.4904C84.1778 23.328 85.2825 23.2693 86.3917 23.2422C86.563 23.2377 86.5855 23.2648 86.6036 23.0572C86.6622 22.4525 86.6396 21.8523 86.4954 21.2567C86.3195 20.5211 85.8822 20.0247 85.1698 19.763C84.534 19.5283 83.8712 19.4336 83.1994 19.4155C81.5627 19.3659 79.9531 19.5464 78.3615 19.9345C78.3164 19.9525 78.2668 19.9751 78.1856 19.9525ZM86.6081 26.9787C86.5991 26.9787 86.5945 26.9787 86.5855 26.9787C86.5855 26.365 86.5855 25.7513 86.5855 25.1421C86.5855 24.9345 86.581 24.93 86.3781 24.9345C85.305 24.9525 84.2319 24.9841 83.1679 25.1691C82.5276 25.2774 81.9099 25.4579 81.3418 25.7829C80.3814 26.3379 79.908 27.1682 79.9441 28.2784C79.9711 29.059 80.3499 29.6096 81.0758 29.9074C81.3193 30.0067 81.5672 30.0744 81.8242 30.1105C82.6448 30.2233 83.4654 30.1962 84.277 30.0473C85.0796 29.8984 85.819 29.6006 86.4773 29.1087C86.5991 29.0184 86.6441 28.9282 86.6396 28.7747C86.6306 28.17 86.6261 27.5744 86.6081 26.9787Z" fill="white"/>
    <path d="M94.6773 21.2961C94.6728 19.8926 94.6548 17.6047 94.5872 15.3123C94.5646 14.491 94.5195 13.6697 94.488 12.8439C94.479 12.5867 94.4429 12.6047 94.7224 12.6047C97.0399 12.6047 99.353 12.6047 101.67 12.6047C102.955 12.6047 104.236 12.6047 105.521 12.6047C105.571 12.6047 105.62 12.6092 105.67 12.6047C105.792 12.5912 105.832 12.6408 105.823 12.7626C105.796 13.1733 105.778 13.5839 105.755 13.9946C105.746 14.1977 105.733 14.3962 105.724 14.5993C105.715 14.7933 105.715 14.7933 105.526 14.7888C105.241 14.7798 104.957 14.7753 104.669 14.7617C102.121 14.6625 99.5694 14.6219 97.0174 14.6264C96.81 14.6264 96.8055 14.6309 96.819 14.8069C96.9678 16.9007 96.9678 19.0036 96.9904 21.102C96.9949 21.4269 96.9588 21.3818 97.2699 21.3818C99.3079 21.3863 101.346 21.3457 103.384 21.278C103.442 21.278 103.501 21.2825 103.56 21.2735C103.699 21.2509 103.731 21.3141 103.726 21.445C103.722 22.0407 103.726 22.6363 103.722 23.232C103.722 23.399 103.717 23.4035 103.533 23.399C102.55 23.3764 101.571 23.3538 100.588 23.3222C99.4567 23.2907 98.325 23.2952 97.1887 23.2907C96.9858 23.2907 96.9858 23.2907 96.9858 23.4982C96.9903 26.1201 96.9994 28.7374 97.1166 31.3548C97.1166 31.3818 97.1211 31.4044 97.1211 31.4315C97.1166 31.5533 97.2023 31.7022 97.1121 31.7925C97.0354 31.8692 96.8866 31.8196 96.7739 31.8196C96.0796 31.8241 95.3807 31.8196 94.6864 31.8196C94.4384 31.8196 94.4699 31.8241 94.479 31.603C94.6142 28.4667 94.6683 25.3259 94.6773 21.2961Z" fill="white"/>
    <path d="M74.7975 29.8112C74.8245 29.9556 74.784 30.0864 74.7749 30.2173C74.7344 30.6505 74.6893 31.0883 74.6622 31.5215C74.6532 31.6614 74.6036 31.7245 74.4728 31.7697C73.508 32.1126 72.5115 32.1984 71.497 32.0856C71.1228 32.0449 70.7531 31.9727 70.3924 31.8599C69.3959 31.5485 68.7196 30.9078 68.3679 29.9195C68.1109 29.202 67.9892 28.4619 67.9171 27.7083C67.8224 26.6794 67.8404 25.646 67.8449 24.6126C67.8494 23.1776 67.8584 21.7426 67.8675 20.3075C67.8675 20.0413 67.9035 20.0639 67.6285 20.0639C66.9657 20.0593 66.3029 20.1135 65.6401 20.1315C65.4462 20.1361 65.4417 20.1361 65.4462 19.9556C65.4643 19.3689 65.4868 18.7823 65.5139 18.1956C65.5229 18.0106 65.5274 18.0061 65.7258 18.0196C66.4021 18.0693 67.0829 18.0873 67.7638 18.1009C67.8224 18.1009 67.881 18.1009 67.9396 18.1009C68.0027 18.1009 68.0253 18.0648 68.0298 18.0061C68.0298 17.9745 68.0298 17.9384 68.0343 17.9068C68.0794 16.6388 68.129 15.3752 68.1741 14.1072C68.1831 13.8906 68.165 13.8951 68.395 13.8725C68.9811 13.8184 69.5628 13.7507 70.1444 13.692C70.2526 13.683 70.3608 13.6785 70.4961 13.6694C70.4871 13.8184 70.4826 13.9492 70.469 14.0801C70.3653 15.3346 70.2842 16.5891 70.2481 17.8481C70.2481 17.8888 70.2481 17.9339 70.2481 17.9745C70.2391 18.0738 70.2842 18.1099 70.3834 18.1054C70.4916 18.1009 70.5998 18.1054 70.7125 18.1009C71.8127 18.0693 72.9083 18.0422 74.0084 17.9745C74.0986 17.97 74.1933 17.9655 74.2835 17.961C74.4954 17.9519 74.5089 17.9339 74.4954 18.1685C74.4638 18.7642 74.4413 19.3599 74.4142 19.9556C74.4052 20.1451 74.4052 20.1451 74.2113 20.1406C72.9624 20.1135 71.7135 20.0639 70.4645 20.0684C70.3969 20.0684 70.3293 20.0729 70.2616 20.0684C70.1805 20.0639 70.1309 20.0864 70.1399 20.1812C70.1444 20.2218 70.1399 20.2669 70.1399 20.3075C70.1309 21.8689 70.1128 23.4303 70.1083 24.9917C70.1038 25.7994 70.1354 26.6027 70.2436 27.4014C70.2887 27.7444 70.3608 28.0783 70.451 28.4123C70.699 29.3193 71.3077 29.8202 72.2094 30.0052C72.9759 30.1632 73.7289 30.0729 74.4728 29.8879C74.572 29.8653 74.6667 29.8383 74.7659 29.8157C74.7524 29.8022 74.7614 29.8067 74.7975 29.8112Z" fill="white"/>
    <path d="M111.654 17.5251C111.654 17.7643 111.663 17.9719 111.654 18.1795C111.536 20.4945 111.509 22.8095 111.509 25.129C111.509 26.8257 111.554 28.518 111.622 30.2147C111.64 30.675 111.676 31.1353 111.703 31.5956C111.717 31.8212 111.712 31.8212 111.505 31.8212C110.756 31.8212 110.012 31.8212 109.264 31.8212C109.043 31.8212 109.039 31.8212 109.057 31.6046C109.241 28.9331 109.287 26.2526 109.232 23.5766C109.196 21.74 109.075 19.9033 108.763 18.0892C108.75 18.0125 108.705 17.9223 108.849 17.9042C109.773 17.7824 110.702 17.6515 111.654 17.5251Z" fill="white"/>
    <path d="M112.317 13.4008C112.339 13.6987 112.267 13.9785 112.136 14.2493C111.708 15.1114 110.626 15.4951 109.755 15.0843C109.259 14.8541 108.998 14.4299 108.912 13.9063C108.835 13.455 108.908 13.0217 109.151 12.6245C109.602 11.8752 110.612 11.5322 111.415 11.8798C111.97 12.119 112.258 12.5748 112.321 13.1706C112.326 13.2473 112.317 13.3241 112.317 13.4008Z" fill="white"/>
    <path d="M29.8405 8.79162C31.0218 8.84577 32.1535 8.8909 33.2853 8.94956C33.6189 8.96761 33.6099 8.94956 33.5377 9.2835C32.9922 11.9279 32.4466 14.5723 31.9011 17.2167C31.3059 20.0913 30.7062 22.9613 30.1111 25.8359C30.057 26.1067 30.0028 26.3774 29.9442 26.6482C29.8946 26.8919 29.8946 26.9009 29.6331 26.8783C28.9884 26.8287 28.3571 26.7023 27.7349 26.5263C27.3877 26.4271 27.0451 26.3187 26.7024 26.2059C26.4364 26.1202 26.4319 26.1067 26.4815 25.8269C26.5987 25.15 26.7159 24.4731 26.8377 23.7962C27.0676 22.474 27.3021 21.1518 27.532 19.8341C27.8431 18.0516 28.1587 16.2691 28.4699 14.4821C28.7765 12.7312 29.0831 10.9803 29.3897 9.22935C29.4122 9.08946 29.4077 8.91798 29.4843 8.82321C29.57 8.70588 29.7504 8.81418 29.8405 8.79162Z" fill="#00F2AA"/>
    <path d="M10.0584 8.77417C10.5769 8.77417 11.1 8.77417 11.6185 8.77417C11.8349 8.77417 11.8349 8.77417 11.88 8.98175C12.2317 10.5973 12.5789 12.2083 12.9305 13.8238C13.6114 16.9782 14.2967 20.1325 14.9775 23.2914C15.1579 24.1262 15.3382 24.9656 15.5141 25.8004C15.5547 25.9899 15.5592 25.9944 15.3788 26.0937C14.937 26.3419 14.4635 26.5044 13.9766 26.6397C13.3499 26.8157 12.7141 26.897 12.0649 26.9105C11.8574 26.915 11.8574 26.9105 11.8169 26.721C11.3299 24.2796 10.843 21.8383 10.356 19.3969C9.89161 17.0774 9.42721 14.7579 8.96731 12.443C8.73736 11.3013 8.51192 10.155 8.28648 9.01334C8.24139 8.77868 8.24139 8.77868 8.49389 8.77868C9.01691 8.77417 9.53993 8.77417 10.0584 8.77417Z" fill="#00F2AA"/>
    <path d="M24.2991 25.1045C24.1458 25.0639 24.0015 25.0323 23.8572 24.9917C23.0997 24.7931 22.3287 24.6938 21.5487 24.6577C21.3413 24.6487 21.3413 24.6487 21.2827 24.4411C21.1023 23.7777 20.9175 23.1144 20.7371 22.4555C20.7281 22.4285 20.7326 22.3924 20.6966 22.3743C20.6334 22.3924 20.6424 22.451 20.6289 22.5007C20.4576 23.1505 20.2863 23.7958 20.1149 24.4456C20.0563 24.6713 20.0563 24.6803 19.8399 24.6938C19.0779 24.748 18.3294 24.8833 17.5945 25.1045C17.5584 25.1135 17.5179 25.1135 17.4683 25.118C17.4457 24.9962 17.4998 24.9059 17.5269 24.8111C18.0815 22.9294 18.636 21.0476 19.1951 19.1703C19.3529 18.6378 19.5152 18.1099 19.664 17.5774C19.7001 17.442 19.7587 17.3878 19.9075 17.3923C20.5027 17.4014 21.0978 17.3969 21.693 17.3969C21.8869 17.3969 21.8869 17.3969 21.95 17.5909C22.437 19.1162 22.9194 20.6415 23.4063 22.1667C23.6859 23.0512 23.9699 23.9402 24.2495 24.8292C24.2675 24.9059 24.3216 24.9917 24.2991 25.1045Z" fill="#00F2AA"/>
    <path d="M26.176 30.682C26.176 30.136 26.176 29.6216 26.176 29.1026C26.3608 29.0981 26.5096 29.1568 26.6539 29.2109C27.4475 29.5178 28.259 29.7434 29.1067 29.8472C29.26 29.8653 29.2735 29.8878 29.2374 30.0728C29.1383 30.5647 29.0345 31.0566 28.9308 31.553C28.7685 32.3427 28.6017 33.1279 28.4394 33.9176C28.4304 33.9673 28.4168 34.0169 28.4078 34.0665C28.3943 34.1478 28.3447 34.1793 28.2635 34.1748C28.223 34.1703 28.1779 34.1748 28.1373 34.1748C26.947 34.1748 25.7521 34.1748 24.5618 34.1748C24.3093 34.1748 24.3364 34.2019 24.2642 33.9673C23.7052 32.2073 23.1506 30.4474 22.596 28.6875C22.578 28.6333 22.5464 28.5792 22.5599 28.516C22.623 28.4618 22.7042 28.4889 22.7718 28.4934C23.642 28.5701 24.5032 28.6875 25.3554 28.8725C25.4997 28.9041 25.5673 28.9672 25.6124 29.1026C25.7567 29.5674 25.91 30.0277 26.0587 30.4925C26.0723 30.5467 26.0768 30.6053 26.176 30.682Z" fill="#00F1AA"/>
    <path d="M15.8745 30.651C16.0188 30.123 16.1675 29.6266 16.2938 29.1212C16.3344 28.9633 16.4065 28.8865 16.5688 28.855C17.2271 28.7196 17.8899 28.6203 18.5527 28.5481C18.6609 28.5346 18.7691 28.5165 18.8818 28.5436C18.9179 28.6203 18.8728 28.688 18.8503 28.7557C18.3363 30.475 17.8178 32.1943 17.3038 33.9091C17.2902 33.9588 17.2677 34.0039 17.2587 34.0535C17.2406 34.1438 17.1865 34.1799 17.0964 34.1754C17.0648 34.1754 17.0287 34.1754 16.9972 34.1754C15.8474 34.1754 14.6977 34.1754 13.5479 34.1754C13.309 34.1754 13.3045 34.1754 13.2594 33.9407C13.0024 32.6591 12.7454 31.3775 12.4884 30.0959C12.4568 29.9335 12.4703 29.9154 12.6281 29.9064C13.5344 29.8432 14.3956 29.6176 15.2117 29.216C15.3244 29.1618 15.4461 29.1302 15.5679 29.0986C15.7257 29.058 15.7392 29.0716 15.7482 29.234C15.7708 29.595 15.7843 29.956 15.8068 30.3171C15.8113 30.4163 15.7978 30.5201 15.8745 30.651Z" fill="#00F1AA"/>
  </g>
  <defs>
    <clipPath id="clip0_3848_3481">
      <rect width="112.72" height="70.6681" fill="white" transform="translate(0.0546875 -13.4536)"/>
    </clipPath>
  </defs>
</svg>