<svg xmlns="http://www.w3.org/2000/svg" width="155" height="42" viewBox="0 0 155 42" fill="none">
  <g clip-path="url(#clip0_3848_3434)">
    <path d="M75.1593 12.5696H69.5053C69.2961 12.5696 69.1569 12.7048 69.1569 12.9075V23.3938C69.1569 24.0022 69.0169 24.5436 68.5986 24.9491C68.2494 25.3554 67.6904 25.5581 67.0628 25.5581C66.4345 25.5581 65.9454 25.3554 65.527 24.9491C65.1779 24.5436 64.9687 24.0697 64.9687 23.3938V12.9082C64.9687 12.7055 64.8288 12.5703 64.6196 12.5703H58.9656C58.7564 12.5703 58.6172 12.7055 58.6172 12.9082V23.3263C58.6172 25.6947 59.4547 27.5211 60.9904 28.9412C62.5255 30.3627 64.6196 31.0386 66.9228 31.1061C69.5053 31.1061 71.5994 30.4295 73.1351 29.0087C74.7401 27.5879 75.5084 25.6947 75.5084 23.3938V12.9082C75.5084 12.7055 75.3692 12.5696 75.1593 12.5696Z" fill="white"/>
    <path d="M97.8788 12.5694H92.7139C92.5033 12.5694 92.3648 12.7046 92.3648 12.9074V19.672C92.3648 20.0099 91.9457 20.1458 91.7365 19.8748L86.1532 12.7039C86.0825 12.6363 86.014 12.5687 85.8733 12.5687H81.1968C80.9883 12.5687 80.8477 12.7039 80.8477 12.9067V30.2252C80.8477 30.4279 80.9883 30.5638 81.1968 30.5638H86.3624C86.5716 30.5638 86.7115 30.4279 86.7115 30.2252V23.1233C86.7115 22.7854 87.1299 22.6495 87.3391 22.9205L93.0638 30.4294C93.133 30.4969 93.203 30.5652 93.343 30.5652H97.8096C98.0195 30.5652 98.1587 30.4294 98.1587 30.2266V12.9081C98.158 12.7053 98.018 12.5025 97.8788 12.5694Z" fill="white"/>
    <path d="M109.095 12.5032H103.511C103.302 12.5032 103.162 12.7059 103.162 12.9087V30.1597C103.162 30.3624 103.302 30.4969 103.511 30.4969H109.095C109.305 30.4969 109.444 30.3624 109.444 30.1597V12.8411C109.444 12.6384 109.305 12.5032 109.095 12.5032Z" fill="white"/>
    <path d="M130.841 14.5993C128.957 12.8398 126.513 11.9604 123.443 11.9604C120.372 11.9604 117.928 12.8398 116.044 14.5993C114.159 16.358 113.252 18.6575 113.252 21.4991C113.252 24.3407 114.159 26.6402 116.044 28.3996C117.859 30.1584 120.372 31.0377 123.443 31.0377C126.513 31.0377 128.957 30.1584 130.841 28.3996C132.725 26.6402 133.633 24.3407 133.633 21.4991C133.633 18.6575 132.725 16.358 130.841 14.5993ZM126.165 24.4759C125.466 25.1518 124.559 25.558 123.372 25.558C122.256 25.558 121.278 25.2201 120.58 24.4759C119.883 23.7317 119.533 22.7847 119.533 21.5667C119.533 20.3494 119.882 19.4017 120.58 18.6575C121.278 17.914 122.186 17.5753 123.372 17.5753C124.489 17.5753 125.466 17.914 126.165 18.6575C126.862 19.4017 127.212 20.3494 127.212 21.5667C127.212 22.784 126.862 23.7317 126.165 24.4759Z" fill="white"/>
    <path d="M154.535 12.4298H149.37C149.16 12.4298 149.021 12.5649 149.021 12.7677V19.5323C149.021 19.8703 148.602 20.0062 148.393 19.7351L142.809 12.5642C142.739 12.4966 142.67 12.4291 142.53 12.4291H137.853C137.645 12.4291 137.504 12.5642 137.504 12.767V30.0855C137.504 30.2883 137.645 30.4242 137.853 30.4242H143.019C143.228 30.4242 143.368 30.2883 143.368 30.0855V22.9837C143.368 22.6457 143.786 22.5098 143.995 22.7809L149.72 30.2897C149.789 30.3573 149.859 30.4256 149.999 30.4256H154.466C154.676 30.4256 154.815 30.2897 154.815 30.0869V12.7684C154.814 12.5656 154.675 12.3629 154.535 12.4298Z" fill="white"/>
    <path d="M32.39 10.4644C32.4651 10.4637 32.4826 10.5059 32.4294 10.5566L29.309 13.5784C29.2398 13.6453 29.1275 13.6453 29.059 13.5784L28.4788 13.018C28.3214 12.8659 28.1078 12.7807 27.8848 12.7807C27.8848 12.7807 26.3541 12.7779 25.8694 12.7744C25.8177 12.7737 25.7951 12.7117 25.8344 12.6793C27.5918 11.229 30.0459 10.4848 32.39 10.4644Z" fill="#998BFF"/>
    <path d="M19.1663 28.2017H17.2049C16.9214 28.2017 16.6546 28.0961 16.4542 27.9018L15.0671 26.5619C14.8667 26.369 14.7559 26.1106 14.7559 25.8375V23.9421C14.7559 23.6682 14.8667 23.4106 15.0671 23.2176L16.4542 21.8778C16.6546 21.6842 16.9214 21.5779 17.2049 21.5779H19.1663C19.4499 21.5779 19.7167 21.6842 19.9171 21.8778L21.3042 23.2176C21.5046 23.4106 21.6154 23.6696 21.6154 23.9421V25.8375C21.6154 26.1113 21.5046 26.369 21.3042 26.5619L19.9171 27.9018C19.7167 28.0954 19.4499 28.2017 19.1663 28.2017Z" fill="#998BFF"/>
    <path d="M9.51853 10.264C9.57392 10.2527 9.62495 10.2935 9.6213 10.3485C9.60089 10.6315 9.58996 10.9173 9.58996 11.2053C9.58996 11.3841 9.59433 11.5623 9.60235 11.739C9.60527 11.8143 9.57684 11.8875 9.52145 11.941L0.734726 20.3328C0.680789 20.3849 0.588949 20.3454 0.591865 20.2701C0.793037 15.3107 4.8573 11.1997 9.51853 10.264Z" fill="#998BFF"/>
    <path d="M9.75478 13.5757C9.80216 13.5306 9.88234 13.5538 9.89546 13.6172C10.1404 14.7747 10.6105 15.8723 11.1688 16.8855C11.1921 16.927 11.1841 16.9784 11.1499 17.0115L3.47325 24.4006C2.99874 24.8625 2.45208 25.3948 2.06941 25.7679C1.96081 25.8742 1.7764 25.8433 1.71007 25.7088C1.21297 24.702 0.871851 23.6093 0.720972 22.4588C0.710038 22.3772 0.739923 22.2955 0.80042 22.2371L9.75478 13.5757Z" fill="#998BFF"/>
    <path d="M13.3416 24.5623C13.394 24.5116 13.4837 24.5475 13.4837 24.6193V26.471C13.4837 26.6872 13.5719 26.8935 13.7293 27.0441L14.2279 27.6123C14.2614 27.644 14.2607 27.6961 14.2723 27.6855L10.192 31.5234C10.0834 31.6269 9.99306 31.6536 9.90486 31.6388C8.89535 31.4734 7.93395 31.1756 7.03742 30.7658C6.98567 30.7419 6.97401 30.675 7.01483 30.6348L13.3416 24.5623Z" fill="#998BFF"/>
    <path d="M10.5117 25.4503L10.5357 25.4277C10.5224 25.4407 10.5117 25.4503 10.5117 25.4503Z" fill="#998BFF"/>
    <path d="M11.9778 31.7743C11.9035 31.7751 11.886 31.7328 11.9385 31.6828L15.0595 28.6603C15.1281 28.5934 15.2403 28.5934 15.3088 28.6603L15.8897 29.2207C16.0472 29.3728 16.26 29.458 16.4831 29.458C16.4831 29.458 18.0137 29.4608 18.4984 29.465C18.5502 29.465 18.5728 29.527 18.5341 29.5601C16.7761 31.0097 14.3226 31.7539 11.9778 31.7743Z" fill="#998BFF"/>
    <path d="M2.66191 26.8729C3.52346 26.0421 7.58116 22.1261 8.41209 21.3235C8.47551 21.2622 8.57682 21.2995 8.59286 21.3854C8.72114 22.074 9.06153 22.7133 9.5805 23.2153H9.58123C10.125 23.7405 10.8269 24.0785 11.5784 24.1876C11.6673 24.2003 11.7081 24.2974 11.6447 24.3594C10.8342 25.1423 7.01117 28.8379 5.76842 30.0398C5.73052 30.0426 5.70866 30.0447 5.67075 30.0475C4.48121 29.2977 3.44765 28.3345 2.63203 27.213C2.5555 27.1073 2.56789 26.9644 2.66191 26.8729Z" fill="#998BFF"/>
    <path d="M14.5566 18.2864V16.3918C14.5566 16.1172 14.6667 15.8602 14.8679 15.6666L16.2549 14.3261C16.4547 14.1331 16.7214 14.0261 17.005 14.0261H18.9671C19.2507 14.0261 19.5174 14.1331 19.7179 14.3261L21.105 15.6666C21.3054 15.8602 21.4155 16.1172 21.4155 16.3918V18.2864C21.4155 18.5603 21.3054 18.818 21.105 19.0116L19.7179 20.3514C19.5174 20.545 19.2507 20.6514 18.9671 20.6514H17.005C16.7214 20.6514 16.4547 20.545 16.2549 20.3514L14.8671 19.0116C14.6667 18.8173 14.5566 18.5603 14.5566 18.2864Z" fill="#998BFF"/>
    <path d="M33.1238 8.97184C33.1354 9.02535 33.0931 9.07463 33.0363 9.07041C32.7433 9.0507 32.4474 9.04084 32.1492 9.04084C31.9641 9.04084 31.7797 9.04506 31.5967 9.0521C31.5188 9.05562 31.443 9.02817 31.3876 8.97536L22.7007 0.487183C22.646 0.434379 22.6876 0.346371 22.7648 0.349187C27.8991 0.542804 32.1551 4.46866 33.1238 8.97184Z" fill="#998BFF"/>
    <path d="M29.6987 9.19519C29.7454 9.24025 29.7213 9.3184 29.6557 9.33107C28.4574 9.56764 27.3211 10.0211 26.2722 10.5611C26.2292 10.5829 26.176 10.5759 26.1418 10.5428L18.4921 3.12758C18.0132 2.66923 17.4629 2.14119 17.0759 1.77085C16.9658 1.66594 16.9979 1.48852 17.1371 1.42445C18.1794 0.942871 19.3114 0.614778 20.5016 0.468333C20.5869 0.458476 20.6715 0.487343 20.732 0.545076L29.6987 9.19519Z" fill="#998BFF"/>
    <path d="M18.3219 12.6638C18.3743 12.7145 18.3372 12.8011 18.2628 12.8011H16.3459C16.1228 12.8011 15.9093 12.887 15.7525 13.039L15.1643 13.5206C15.1315 13.5523 15.0776 13.5523 15.0893 13.5629L11.1161 9.62223C11.0082 9.51662 10.9813 9.42932 10.9958 9.34412C11.1679 8.3697 11.4762 7.44104 11.9004 6.57505C11.9252 6.52435 11.9944 6.51309 12.0352 6.55252L18.3219 12.6638Z" fill="#998BFF"/>
    <path d="M10.8535 11.3443C10.8528 11.2718 10.8965 11.2556 10.949 11.3063L14.0774 14.3211C14.1466 14.3873 14.1466 14.4957 14.0774 14.5619L13.4972 15.1223C13.3398 15.2751 13.2516 15.4807 13.2516 15.6961C13.2516 15.6961 13.2486 17.1746 13.245 17.6428C13.2443 17.6928 13.1801 17.7154 13.1466 17.6773C11.6451 15.9791 10.8747 13.6093 10.8535 11.3443Z" fill="#998BFF"/>
    <path d="M23.3183 12.5018C22.9654 12.8426 22.4864 13.0342 21.9878 13.0342C21.4884 13.0342 21.0095 12.8433 20.6573 12.5018H20.6566C20.3038 12.161 20.1055 11.6983 20.1055 11.2159C20.1055 10.7336 20.3038 10.2716 20.6566 9.93078L20.6573 9.93007C21.0095 9.58925 21.4884 9.39771 21.9871 9.39771H21.9878C22.4872 9.39771 22.9661 9.58995 23.3183 9.93078H23.319C23.6718 10.2716 23.8694 10.7343 23.8694 11.2159C23.8694 11.6983 23.6711 12.1603 23.3183 12.5018Z" fill="#998BFF"/>
    <path d="M15.9369 2.34839C16.797 3.17988 20.8511 7.0994 21.682 7.90273C21.7454 7.96399 21.7068 8.06185 21.6179 8.07734C20.9058 8.20126 20.2432 8.53005 19.7242 9.03135H19.7235C19.1798 9.55728 18.8306 10.2353 18.7176 10.9612C18.7045 11.0471 18.6032 11.0865 18.5398 11.0245C17.7285 10.2416 13.9026 6.54953 12.6584 5.3491C12.6555 5.31249 12.6533 5.29066 12.6504 5.25476C13.4274 4.10502 14.4238 3.10737 15.5856 2.31952C15.6942 2.24559 15.8422 2.25686 15.9369 2.34839Z" fill="#998BFF"/>
    <path d="M13.1815 19.7433C13.5344 20.0841 13.7327 20.5468 13.7327 21.0285C13.7327 21.5108 13.5344 21.9735 13.1815 22.3136V22.3143C12.8287 22.6551 12.3497 22.8467 11.8504 22.8467C11.351 22.8467 10.8727 22.6558 10.5199 22.3143V22.3136C10.167 21.9742 9.96875 21.5108 9.96875 21.0292V21.0285C9.96875 20.5461 10.167 20.0841 10.5199 19.7433L10.5206 19.7426C10.8727 19.4018 11.3517 19.2109 11.8504 19.2109C12.3497 19.2116 12.8287 19.4032 13.1815 19.7433Z" fill="#998BFF"/>
    <path d="M25.1651 14.0583H27.1266C27.4108 14.0583 27.6769 14.1647 27.8773 14.3583L29.2651 15.6988C29.4648 15.8917 29.5756 16.1494 29.5756 16.4233V18.3179C29.5756 18.5925 29.4648 18.8488 29.2651 19.0424L27.8773 20.3822C27.6769 20.5759 27.4108 20.6829 27.1266 20.6829H25.1651C24.8816 20.6829 24.6148 20.5766 24.4144 20.3822L23.0273 19.0431C22.8269 18.8488 22.7168 18.5911 22.7168 18.3179V16.4233C22.7168 16.1494 22.8269 15.8917 23.0273 15.6988L24.4144 14.3583C24.6148 14.1647 24.8816 14.0583 25.1651 14.0583Z" fill="#998BFF"/>
    <path d="M34.8035 31.9944C34.7481 32.0057 34.6971 31.9641 34.7014 31.9099C34.7218 31.6269 34.732 31.3403 34.732 31.0524C34.732 30.8735 34.7277 30.6954 34.7204 30.518C34.7167 30.4434 34.7452 30.3694 34.8006 30.3166L43.5873 21.9256C43.642 21.8735 43.7331 21.9129 43.7301 21.9876C43.529 26.9477 39.4654 31.0587 34.8035 31.9944Z" fill="#998BFF"/>
    <path d="M34.5813 28.684C34.5347 28.7297 34.4538 28.7058 34.4406 28.6424C34.1957 27.485 33.7263 26.3873 33.1673 25.3749C33.1447 25.3333 33.152 25.2819 33.1862 25.2482L40.8629 17.8583C41.3374 17.3964 41.884 16.8642 42.2674 16.4903C42.376 16.3847 42.5597 16.415 42.626 16.5495C43.1239 17.557 43.4643 18.6497 43.6159 19.8001C43.6261 19.8818 43.5962 19.9642 43.5364 20.0219L34.5813 28.684Z" fill="#998BFF"/>
    <path d="M30.9874 17.6981C30.9349 17.7488 30.8453 17.7129 30.8453 17.6411V15.7894C30.8453 15.574 30.7564 15.3677 30.5989 15.2156L30.1011 14.6481C30.0676 14.6165 30.0676 14.5644 30.0566 14.5749L34.1362 10.7371C34.2455 10.6336 34.3359 10.6061 34.4241 10.6209C35.4329 10.7871 36.3943 11.0849 37.2908 11.4946C37.3433 11.5186 37.355 11.5848 37.3142 11.6242L30.9874 17.6981Z" fill="#998BFF"/>
    <path d="M33.8248 16.8147L33.8008 16.8381C33.8141 16.8251 33.8248 16.8147 33.8248 16.8147Z" fill="#998BFF"/>
    <path d="M32.3531 10.4873C32.4282 10.4866 32.445 10.5281 32.3925 10.5788L29.2714 13.6014C29.2029 13.6683 29.0906 13.6683 29.0221 13.6014L28.4419 13.041C28.2837 12.8889 28.0709 12.8037 27.8479 12.8037C27.8479 12.8037 26.3172 12.8009 25.8325 12.7966C25.7807 12.7966 25.7582 12.7347 25.7968 12.7023C27.5549 11.2519 30.0083 10.5077 32.3531 10.4873Z" fill="#998BFF"/>
    <path d="M41.6718 15.388C40.8102 16.2195 36.7525 20.1355 35.9216 20.9374C35.8574 20.9987 35.7569 20.9614 35.7408 20.8762C35.6125 20.1876 35.2721 19.5476 34.7525 19.0463C34.2087 18.5204 33.5068 18.1831 32.7546 18.074C32.6664 18.0606 32.6256 17.9635 32.689 17.9022C33.4995 17.1186 37.3218 13.423 38.5653 12.2211C38.6024 12.2183 38.625 12.2169 38.6629 12.2134C39.8525 12.9639 40.886 13.9264 41.7016 15.0486C41.7782 15.1542 41.7658 15.2972 41.6718 15.388Z" fill="#998BFF"/>
    <path d="M29.7717 23.974V25.8686C29.7717 26.1439 29.6609 26.4002 29.4604 26.5938L28.0734 27.9336C27.8729 28.1265 27.6061 28.2343 27.3233 28.2343H25.3612C25.0776 28.2343 24.8109 28.1272 24.6104 27.9336L23.2233 26.5938C23.0229 26.4002 22.9121 26.1432 22.9121 25.8686V23.974C22.9121 23.7001 23.0229 23.4431 23.2233 23.2495L24.6104 21.9097C24.8109 21.7168 25.0776 21.6097 25.3612 21.6097H27.3233C27.6061 21.6097 27.8729 21.7161 28.0734 21.9097L29.4604 23.2495C29.6609 23.4431 29.7717 23.7001 29.7717 23.974Z" fill="#998BFF"/>
    <path d="M11.2031 33.2899C11.1914 33.2364 11.2344 33.1871 11.2906 33.1906C11.5836 33.2103 11.8795 33.2209 12.1783 33.2209C12.3635 33.2209 12.5472 33.2167 12.7308 33.2082C12.8088 33.2054 12.8846 33.2328 12.9393 33.2864L21.6269 41.7738C21.6816 41.8267 21.6393 41.9147 21.5627 41.9118C16.4277 41.7189 12.1718 37.7931 11.2031 33.2899Z" fill="#998BFF"/>
    <path d="M14.634 33.0651C14.5866 33.0194 14.6114 32.9419 14.677 32.9299C15.8752 32.6934 17.0116 32.2393 18.0597 31.6992C18.1034 31.6781 18.1559 31.6845 18.1909 31.7175L25.8406 39.1327C26.3187 39.5904 26.8698 40.1184 27.2568 40.4888C27.3661 40.5937 27.3348 40.7718 27.1956 40.8359C26.1525 41.3167 25.0213 41.6448 23.8303 41.7906C23.7458 41.8018 23.6605 41.773 23.6007 41.7145L14.634 33.0651Z" fill="#998BFF"/>
    <path d="M26.0109 29.5993C25.9584 29.5493 25.9956 29.4627 26.0699 29.4627H27.9869C28.2099 29.4627 28.4235 29.3761 28.5809 29.224L29.1692 28.7424C29.2012 28.7108 29.2552 28.7108 29.2435 28.7002L33.2167 32.6408C33.3245 32.7457 33.3522 32.8338 33.3369 32.9189C33.1649 33.8934 32.8566 34.822 32.4324 35.6887C32.4076 35.7387 32.3391 35.7507 32.2983 35.7113L26.0109 29.5993Z" fill="#998BFF"/>
    <path d="M33.475 30.9134C33.4757 30.9852 33.4327 31.0021 33.3803 30.9521L30.2512 27.9373C30.1819 27.8704 30.1819 27.7627 30.2512 27.6958L30.8313 27.1347C30.9888 26.9826 31.077 26.777 31.077 26.5623C31.077 26.5623 31.0799 25.0831 31.0843 24.6156C31.0843 24.5656 31.1491 24.543 31.1819 24.5803C32.6834 26.2785 33.4539 28.6484 33.475 30.9134Z" fill="#998BFF"/>
    <path d="M21.0206 29.7584C21.3735 29.4176 21.8517 29.2261 22.3511 29.2261C22.8505 29.2261 23.3287 29.4169 23.6815 29.7584C24.0351 30.0986 24.2334 30.5619 24.2334 31.0443C24.2334 31.5267 24.0351 31.9886 23.6815 32.3288C23.3294 32.6696 22.8505 32.8611 22.3511 32.8611C21.8517 32.8611 21.3727 32.6703 21.0206 32.3288L21.0199 32.328C20.667 31.9886 20.4688 31.5253 20.4688 31.0443C20.4688 30.5612 20.667 30.0986 21.0206 29.7584Z" fill="#998BFF"/>
    <path d="M28.3995 39.9116C27.5387 39.0794 23.4853 35.1605 22.6544 34.3572C22.591 34.296 22.6296 34.1981 22.7178 34.1826C23.4307 34.0587 24.0932 33.7299 24.6122 33.2293V33.2286C25.1567 32.7034 25.5058 32.0253 25.6188 31.2995C25.6319 31.2136 25.7332 31.1741 25.7966 31.2354C26.6079 32.0183 30.4338 35.7104 31.678 36.9115C31.6809 36.9489 31.6831 36.9693 31.686 37.0066C30.909 38.1556 29.9126 39.154 28.7508 39.9411C28.6422 40.015 28.4928 40.0038 28.3995 39.9116Z" fill="#998BFF"/>
    <path d="M31.1625 22.5191C30.8096 22.179 30.6113 21.7157 30.6113 21.234C30.6113 20.7523 30.8096 20.289 31.1625 19.9481C31.5153 19.6073 31.9943 19.4158 32.4937 19.4158C32.993 19.4158 33.4713 19.6073 33.8241 19.9481H33.8249C34.1777 20.289 34.376 20.7516 34.376 21.2333V21.234C34.376 21.7164 34.177 22.179 33.8241 22.5191C33.4713 22.86 32.9923 23.0515 32.4937 23.0515C31.9943 23.0515 31.516 22.8607 31.1625 22.5191Z" fill="#998BFF"/>
  </g>
  <defs>
    <clipPath id="clip0_3848_3434">
      <rect width="154.218" height="41.5622" fill="white" transform="translate(0.591797 0.350586)"/>
    </clipPath>
  </defs>
</svg>