<svg xmlns="http://www.w3.org/2000/svg" width="106" height="42" viewBox="0 0 106 42" fill="none">
  <path d="M77.4782 21.1845C77.4782 15.0142 77.4782 8.83541 77.4782 2.66513C77.4782 1.15037 77.4954 1.13326 79.0443 1.14181C83.4945 1.14181 87.9446 1.14182 92.3862 1.15038C94.654 1.15894 96.862 1.50124 98.8988 2.5282C102.134 4.15421 104.179 6.67025 104.906 10.2903C105.668 14.0729 105.146 17.5303 102.776 20.6112C100.901 23.0587 98.3083 24.3595 95.3044 24.8045C91.5561 25.3694 87.7734 25.0185 84.0079 25.0955C82.6301 25.1212 82.6301 25.0955 82.6301 26.4477C82.6301 30.992 82.6044 35.5277 82.6558 40.0719C82.6643 40.9791 82.3734 41.2529 81.5005 41.1845C80.542 41.116 79.5749 41.116 78.6164 41.1845C77.7093 41.2529 77.4526 40.8849 77.4611 40.0292C77.4954 36.6573 77.4782 33.2855 77.4782 29.9136C77.4782 27.0039 77.4782 24.0942 77.4782 21.1845ZM82.6216 13.0203C82.6216 15.0742 82.6387 17.1366 82.613 19.1905C82.6044 19.9607 82.9296 20.2603 83.6913 20.2517C86.7123 20.226 89.7418 20.2688 92.7627 20.2089C93.6699 20.1918 94.6284 20.072 95.467 19.7468C97.8975 18.7883 99.5235 17.1366 99.9001 14.4066C100.585 9.49438 97.7777 6.4135 93.3447 6.07974C90.0927 5.84012 86.7978 6.0284 83.5287 6.00273C82.8355 5.99417 82.5959 6.25948 82.6044 6.95267C82.6472 8.98091 82.6216 11.0006 82.6216 13.0203Z" fill="white"/>
  <path d="M12.5873 32.7984C12.5873 30.4878 12.5702 28.1857 12.5959 25.8751C12.6045 25.2075 12.4333 24.6085 12.1424 24.0351C8.38541 16.778 4.61135 9.53793 0.854415 2.28079C0.358054 1.3223 0.477827 1.14258 1.56469 1.12546C2.6002 1.1169 3.62715 1.15971 4.66266 1.11692C5.48422 1.08269 5.96349 1.41645 6.34004 2.13532C9.10426 7.40702 11.8941 12.6616 14.6755 17.9162C14.8124 18.1815 14.7953 18.5922 15.2318 18.5922C15.6597 18.5922 15.6596 18.1644 15.7966 17.9162C18.5437 12.7129 21.2908 7.50971 23.9951 2.28936C24.423 1.46779 24.9108 1.03134 25.895 1.11692C26.8449 1.2025 27.812 1.12547 28.779 1.13403C29.4722 1.14259 29.96 1.2025 29.4636 2.16099C26.9904 6.87642 24.577 11.6346 22.138 16.3757C20.7773 19.0201 19.4166 21.6731 18.0217 24.3004C17.7564 24.7968 17.6793 25.2846 17.6793 25.8151C17.6879 30.5391 17.6622 35.2546 17.705 39.9786C17.7136 40.8943 17.4739 41.2623 16.5155 41.1852C15.557 41.1082 14.5899 41.1168 13.6314 41.1852C12.8013 41.2452 12.5788 40.8772 12.5873 40.1412C12.5873 37.6936 12.5788 35.246 12.5873 32.7984C12.5788 32.7984 12.5788 32.7984 12.5873 32.7984Z" fill="white"/>
  <path d="M71.3877 18.6433C70.5918 13.4401 67.8704 9.42638 63.5914 6.47389C57.1216 2.00664 48.2641 1.78415 41.9826 6.99594C37.1217 11.0267 35.3587 16.2557 36.5483 22.3831C37.0789 25.1131 38.5851 27.4238 40.5192 29.4349C40.639 29.5547 40.7246 29.7344 40.8615 29.8029C41.1268 29.9398 41.2723 30.1366 41.1183 30.3848C40.8957 30.7271 40.639 30.3934 40.5021 30.2821C35.9921 26.7648 33.7927 22.2034 34.2976 16.461C34.7084 11.7969 36.8307 7.95442 40.3651 4.9249C42.5902 3.01648 45.2004 1.72424 48.0759 1.13374C53.9637 -0.0900503 59.4322 0.936906 64.3103 4.50557C67.4682 6.81622 69.7104 9.84574 70.9256 13.6027C71.3621 14.9463 71.7728 16.2813 71.7557 17.7105C71.6701 18.0442 71.6359 18.3866 71.3877 18.6433Z" fill="white"/>
  <path d="M42.8942 39.882C44.7342 40.2414 46.5912 40.4297 48.474 40.4382C52.4192 40.4382 55.9793 39.2744 59.1458 36.9894C63.7243 33.6775 66.4371 29.2445 66.7709 23.5449C67.156 16.8611 63.8099 11.2557 57.6567 8.26038C55.1236 7.02803 52.3251 6.77983 49.5181 6.89964C49.0217 6.71992 48.3627 7.14784 47.9948 6.49744C49.6978 6.0182 51.4008 5.5903 53.1894 5.64165C59.3597 5.82992 65.1449 9.5783 67.8321 15.4234C68.9447 17.8367 69.5779 20.3955 69.4581 23.0314C69.1843 28.8508 66.8736 33.686 62.2951 37.4601C59.8475 39.4798 57.1176 40.8661 54.0795 41.4566C50.759 42.107 47.3872 42.1071 44.118 40.8747C43.5703 40.6693 43.0226 40.4126 42.4492 40.2842C42.5006 40.036 42.6803 39.9419 42.8942 39.882Z" fill="white"/>
  <path d="M64.2368 23.7262C63.7661 29.3316 60.8393 33.3282 56.0468 36.0411C53.3682 37.5558 50.4242 38.3261 47.3348 38.1635C41.7978 37.8725 37.2535 35.5276 33.7105 31.2657C31.8877 29.0663 30.5783 26.5589 29.9279 23.8203C29.3032 21.1845 29.2091 18.4887 29.7311 15.7331C30.4243 12.0874 32.0417 9.00651 34.515 6.3022C34.6433 6.16527 34.7461 6.04546 34.9258 6.01123C35.037 6.20806 35.1483 6.40489 35.2595 6.59316C34.301 8.17639 33.2998 9.73392 32.6836 11.5054C31.554 14.7318 31.1945 17.9752 31.862 21.3727C32.7692 26.0454 35.0798 29.7595 38.8881 32.5751C45.8885 37.7612 55.8243 36.3834 61.0275 29.4172C62.645 27.2521 63.7318 24.813 63.826 22.0317C64.5619 22.4425 64.0143 23.1785 64.2368 23.7262Z" fill="white"/>
  <path d="M47.999 6.49023C48.367 7.14932 49.0261 6.71278 49.5226 6.89253C48.2644 7.30339 46.9975 7.67144 45.6794 7.73992C45.6537 7.64576 45.6194 7.54305 45.5938 7.4489C46.3983 7.1322 47.1944 6.80694 47.999 6.49023Z" fill="white"/>
  <path d="M64.2449 23.7243C64.0224 23.1765 64.5788 22.4404 63.8255 22.0295C63.7485 21.4046 63.7314 20.7883 63.9881 19.9238C64.5873 21.3447 65.041 22.4917 64.2449 23.7243Z" fill="white"/>
  <path d="M71.3738 18.64C71.6219 18.3834 71.6647 18.0412 71.7417 17.7161C72.1352 17.9556 72.1352 18.3577 72.1095 18.7256C72.0753 19.0934 72.255 19.7436 71.6561 19.6752C71.1514 19.6239 71.2626 19.0507 71.3738 18.64Z" fill="white"/>
  <path d="M35.2497 6.59268C35.1385 6.39591 35.0272 6.19915 34.916 6.01094C35.1042 5.40352 35.6603 5.12976 36.1223 4.80466C36.4559 4.56512 36.7896 4.65067 36.4559 5.18109C36.3789 5.24098 36.3019 5.30085 36.2249 5.36074C36.0624 5.89971 35.7117 6.2847 35.2497 6.59268Z" fill="white"/>
  <path d="M42.8926 39.8823C42.6785 39.9422 42.4987 40.045 42.4387 40.2762C41.9591 40.2762 41.805 39.7367 41.334 39.6853C41.9335 39.4284 42.473 39.2742 42.8926 39.8823Z" fill="white"/>
  <path d="M37.2168 3.9696C37.4307 3.49036 37.8757 3.39622 38.4234 3.16516C38.141 3.70431 38.0041 4.16644 37.4136 4.16644C37.3451 4.10654 37.2853 4.03807 37.2168 3.9696Z" fill="white"/>
  <path d="M37.4184 4.16336C37.3238 4.31815 37.1948 4.47292 37.04 4.26655C36.9455 4.13756 37.1089 4.03437 37.2206 3.96558C37.2894 4.03437 37.3496 4.10317 37.4184 4.16336Z" fill="white"/>
  <path d="M36.8477 4.60833C36.8218 4.65142 36.7959 4.70314 36.7701 4.74623C36.7442 4.72038 36.7012 4.69453 36.7012 4.67729C36.7098 4.62558 36.7442 4.58247 36.7701 4.53076C36.7873 4.55662 36.8132 4.58247 36.8477 4.60833Z" fill="white"/>
  <path d="M36.2168 5.35801C36.294 5.29799 36.3711 5.23799 36.4482 5.17798C36.3711 5.22942 36.294 5.28942 36.2168 5.35801Z" fill="white"/>
</svg>