<svg xmlns="http://www.w3.org/2000/svg" width="151" height="49" viewBox="0 0 151 49" fill="none">
  <path d="M26.8717 0.337961C27.4832 0.662867 28.1904 0.624644 28.8593 0.739317C38.5492 2.4403 46.5571 10.4865 48.2008 20.2146C50.3222 32.7521 43.0023 44.3723 30.8087 47.8316C29.6238 48.1756 28.4006 48.3667 27.1966 48.5387C27.0437 48.5578 26.8334 48.4814 26.7379 48.6916C25.2089 48.6916 23.6799 48.6916 22.151 48.6916C21.7687 48.4241 21.31 48.4814 20.8896 48.4241C10.8748 47.0671 2.40814 38.9062 0.668932 28.9297C0.55426 28.2608 0.592484 27.5727 0.267578 26.942C0.267578 25.3175 0.267578 23.693 0.267578 22.0684C0.55426 21.7818 0.477812 21.3804 0.516036 21.0364C1.93033 10.8496 9.9192 2.55497 20.0868 0.720203C20.7175 0.605531 21.4056 0.643754 21.9981 0.318848C23.6226 0.33796 25.2471 0.337961 26.8717 0.337961ZM24.1768 10.4292C23.6608 10.4292 23.1257 10.3527 22.6288 10.4483C16.9907 11.3083 13.0536 14.3854 11.2188 19.7941C9.42229 25.0882 10.5881 29.9044 14.4105 34.0135C14.9457 34.5869 14.8501 34.7971 14.315 35.2176C12.7287 36.4599 11.1615 37.7595 9.6134 39.04C8.73425 39.7663 8.84892 40.913 9.78542 41.3335C10.4161 41.6201 10.9321 41.3908 11.4099 40.9894C13.1491 39.556 14.9266 38.1226 16.6658 36.6701C17.0289 36.3643 17.2965 36.307 17.7552 36.5554C20.9851 38.2755 24.3871 38.696 27.9228 37.683C38.0905 34.778 41.3778 22.1449 33.9622 14.4809C33.5036 14.0031 33.5609 13.812 34.0387 13.4298C35.6441 12.1684 37.2113 10.8496 38.7785 9.55C39.6003 8.86197 39.6385 7.90636 38.8549 7.35211C38.2434 6.91253 37.6509 7.04632 37.0966 7.50501C35.3001 8.97664 33.5036 10.4292 31.7261 11.9199C31.363 12.2066 31.1145 12.2448 30.6941 12.0155C28.6682 10.907 26.5085 10.2954 24.1768 10.4292Z" fill="white"/>
  <path d="M116.068 23.0591C115.514 24.913 114.921 26.7477 114.405 28.6016C114.233 29.1941 113.985 29.347 113.392 29.347C111.462 29.3087 111.462 29.3279 110.889 27.5122C110.009 24.7218 109.13 21.9315 108.213 19.1411C108.06 18.6633 107.984 18.3766 108.672 18.434C109.417 18.5104 110.373 18.2237 110.889 18.5677C111.424 18.9309 111.385 19.9438 111.596 20.6701C111.978 22.0079 112.341 23.3649 112.723 24.7027C113.067 24.6645 113.029 24.416 113.067 24.2632C113.602 22.5048 114.138 20.7274 114.635 18.95C114.73 18.5869 114.883 18.4531 115.284 18.434C117.444 18.3766 117.444 18.3766 118.056 20.4598C118.438 21.7403 118.801 23.0209 119.183 24.2823C119.241 24.4734 119.241 24.7218 119.489 24.913C120.043 22.9253 120.598 20.995 121.094 19.0455C121.209 18.5869 121.4 18.3957 121.878 18.434C122.49 18.4722 123.101 18.4722 123.732 18.434C124.152 18.4148 124.229 18.5486 124.114 18.9309C123.044 22.2564 121.974 25.5819 120.942 28.9074C120.846 29.1941 120.712 29.3279 120.426 29.2896C120.368 29.2896 120.33 29.2896 120.273 29.2896C119.565 29.2705 118.686 29.4999 118.189 29.1559C117.75 28.8501 117.712 27.9136 117.52 27.2638C117.119 25.945 116.718 24.6263 116.316 23.3075C116.297 23.2502 116.278 23.1164 116.068 23.0591Z" fill="white"/>
  <path d="M141.657 28.2255C141.657 29.9073 141.638 31.4745 141.676 33.0417C141.695 33.6151 141.504 33.768 140.969 33.7298C140.453 33.6915 139.937 33.6915 139.421 33.7298C138.943 33.768 138.848 33.5578 138.848 33.1373C138.867 28.4357 138.867 23.7341 138.848 19.0325C138.848 18.6121 138.962 18.4401 139.383 18.4974C139.708 18.5356 140.014 18.4974 140.338 18.4974C141.504 18.4974 141.504 18.4974 141.772 19.5103C144.772 17.6374 147.295 17.8285 149.111 20.0646C151.003 22.3963 150.946 25.8365 148.958 27.977C147.028 30.0602 144.39 30.1749 141.657 28.2255ZM144.677 26.9641C146.416 26.9641 147.658 25.7027 147.677 23.9253C147.677 22.1287 146.416 20.8482 144.639 20.8673C142.919 20.8864 141.657 22.186 141.676 23.9444C141.695 25.7218 142.938 26.9641 144.677 26.9641Z" fill="white"/>
  <path d="M133.481 28.2216C131.264 30.3813 128.015 29.9035 126.257 27.935C124.25 25.6988 124.269 22.0484 126.295 19.8314C128.092 17.8629 131.379 17.4997 133.424 19.5256C133.462 19.5065 133.539 19.4874 133.539 19.4683C133.653 18.4745 133.653 18.4745 134.666 18.4745C136.386 18.4745 136.386 18.4745 136.386 20.1754C136.386 23.004 136.367 25.8326 136.405 28.6612C136.405 29.2155 136.253 29.4257 135.717 29.3493C135.431 29.311 135.125 29.3493 134.838 29.3493C133.653 29.3493 133.653 29.3493 133.481 28.2216ZM130.634 20.8635C128.856 20.8253 127.595 22.0293 127.557 23.8067C127.499 25.6033 128.703 26.922 130.423 26.9602C132.239 26.9985 133.519 25.7753 133.558 23.9788C133.596 22.2013 132.373 20.9017 130.634 20.8635Z" fill="white"/>
  <path d="M73.1575 25.0473C72.0299 25.0473 70.8832 25.0473 69.7556 25.0473C69.5453 25.0473 69.2587 24.9327 69.144 25.1429C69.0102 25.3722 69.2204 25.6016 69.3542 25.8118C70.1952 27.2261 72.7562 27.5892 74.0749 26.4234C74.4954 26.0603 74.7438 26.0794 75.1261 26.3469C75.3554 26.4998 75.5848 26.6145 75.8332 26.7483C76.8844 27.3599 76.8844 27.3599 76.0243 28.1817C74.3616 29.768 71.3992 30.112 69.1058 28.9653C67.0608 27.9524 65.8949 25.7163 66.1243 23.3272C66.3536 21.0529 67.443 19.3901 69.5645 18.5683C71.6668 17.7656 73.75 17.9567 75.4892 19.543C76.9608 20.9 77.4195 22.6201 77.2858 24.5695C77.2475 24.99 77.0373 25.0282 76.6933 25.0091C75.5274 25.0473 74.3425 25.0473 73.1575 25.0473ZM71.7432 22.9068C72.5268 22.9068 73.3104 22.8877 74.094 22.9068C74.4572 22.9068 74.4954 22.7921 74.3998 22.4672C74.0749 21.3969 73.0429 20.6898 71.7815 20.7089C70.4627 20.7089 69.4307 21.416 69.0867 22.4672C68.9911 22.7921 69.0293 22.9068 69.3924 22.9068C70.176 22.8877 70.9596 22.9068 71.7432 22.9068Z" fill="white"/>
  <path d="M91.8313 29.6332C88.6013 29.6332 86.0403 27.0722 86.0785 23.8805C86.1168 20.6505 88.6013 18.1851 91.8122 18.1851C95.023 18.1851 97.5458 20.6505 97.5649 23.8613C97.6032 27.0913 95.0804 29.6332 91.8313 29.6332ZM94.7555 23.8805C94.7555 22.1604 93.4558 20.8799 91.774 20.899C90.1303 20.9181 88.888 22.1986 88.8689 23.8996C88.8498 25.6197 90.1303 26.9193 91.8122 26.9193C93.5132 26.9002 94.7746 25.6006 94.7555 23.8805Z" fill="white"/>
  <path d="M103.009 29.6349C101.289 29.6349 99.8174 29.1188 98.8236 27.609C98.5752 27.2458 98.4987 26.9783 99.0147 26.768C99.3014 26.6534 99.5881 26.4623 99.8557 26.3094C100.448 25.9462 100.945 25.5258 101.518 26.4814C101.92 27.1694 103.277 27.2841 104.041 26.9401C104.366 26.7872 104.557 26.5769 104.557 26.2138C104.576 25.8698 104.366 25.6404 104.099 25.5258C103.678 25.3346 103.219 25.1817 102.78 25.048C102.206 24.8568 101.595 24.7039 101.041 24.4555C99.9321 23.9586 99.0912 23.2132 99.0147 21.8753C98.9383 20.4802 99.4925 19.4481 100.697 18.7601C102.684 17.6133 105.57 18.1676 106.927 19.9641C107.214 20.3464 107.233 20.5757 106.736 20.7668C106.449 20.8815 106.163 21.0535 105.895 21.2255C105.322 21.6078 104.844 21.8562 104.271 21.0917C103.869 20.5566 103.124 20.6139 102.474 20.8051C102.149 20.9006 101.92 21.13 101.882 21.4931C101.843 21.8753 102.073 22.1047 102.378 22.2385C102.856 22.4487 103.353 22.6016 103.831 22.7545C104.232 22.8883 104.634 22.9838 105.035 23.1176C106.717 23.7101 107.539 24.7995 107.462 26.3285C107.386 27.9148 106.392 29.0424 104.71 29.482C104.156 29.5966 103.583 29.654 103.009 29.6349Z" fill="white"/>
  <path d="M61.1731 21.1144C60.0073 21.1144 58.8223 21.0761 57.6565 21.1335C57.0831 21.1526 56.9302 20.9615 56.9875 20.4263C57.064 19.7956 56.72 18.9547 57.1404 18.5916C57.5036 18.2858 58.3063 18.496 58.9179 18.496C60.7908 18.496 62.6638 18.5151 64.5368 18.4769C65.0146 18.4769 65.1484 18.5916 65.1675 19.0885C65.1866 19.9103 65.0337 20.5983 64.4986 21.2673C63.3136 22.7962 62.2051 24.4016 61.0775 25.988C60.9437 26.1791 60.81 26.3893 60.5806 26.7142C61.9185 26.7142 63.1416 26.7142 64.3648 26.7142C65.3586 26.7142 65.3586 26.7142 65.3586 27.6698C65.3586 29.3517 65.3586 29.3517 63.6959 29.3517C61.5744 29.3517 59.453 29.3326 57.3316 29.3517C56.892 29.3517 56.7582 29.2561 56.7391 28.7974C56.7009 27.9183 56.892 27.2111 57.4462 26.4849C58.6503 24.9559 59.7397 23.3505 60.8673 21.7642C61.0011 21.5922 61.2113 21.4584 61.1731 21.1144Z" fill="white"/>
  <path d="M82.2089 19.9494C82.8205 19.0129 83.6805 18.4778 84.789 18.3058C85.2286 18.2293 85.4197 18.3249 85.4006 18.8027C85.3624 19.4907 85.3815 20.1788 85.4006 20.8668C85.4197 21.2299 85.3242 21.3637 84.9228 21.3828C82.9352 21.5166 82.1133 22.3958 82.0942 24.4025C82.0751 25.8551 82.0751 27.3076 82.0942 28.7601C82.0942 29.1997 82.0178 29.3908 81.54 29.3526C80.9475 29.3144 80.355 29.3144 79.7625 29.3526C79.3612 29.3717 79.2656 29.2188 79.2656 28.8365C79.2847 25.5684 79.2847 22.2811 79.2656 19.0129C79.2656 18.5925 79.3803 18.4205 79.8008 18.4778C79.9728 18.4969 80.1448 18.4778 80.3168 18.4778C80.8328 18.4778 81.4062 18.344 81.8458 18.516C82.4 18.7453 81.8649 19.4525 82.2089 19.9494Z" fill="white"/>
  <path d="M17.2098 15.6443C17.3436 15.8545 17.2672 16.103 17.2672 16.3323C17.2672 18.836 17.2863 21.3588 17.2672 23.8625C17.2672 24.5314 17.3245 25.1621 18.0126 25.5062C18.7197 25.8502 19.274 25.5062 19.8091 25.0475C23.4595 22.0469 27.129 19.0463 30.7795 16.0457C31.0852 15.7972 31.2955 15.5488 31.7542 15.9501C36.6278 20.193 36.4366 28.8508 31.3528 32.8452C31.3146 32.8643 31.2573 32.8643 31.1426 32.8834C31.1426 32.2145 31.1426 31.5647 31.1426 30.9149C31.1426 28.7743 31.1426 26.6338 31.1426 24.4932C31.1426 23.8625 31.0088 23.3083 30.4163 23.0025C29.7665 22.6776 29.2314 22.926 28.7345 23.3465C25.0458 26.3853 21.3381 29.405 17.6494 32.4439C17.229 32.7879 16.9805 32.8452 16.56 32.4439C11.8393 28.1054 11.9922 19.9063 16.8849 15.7972C16.9805 15.7208 17.0569 15.6061 17.2098 15.6443Z" fill="white"/>
  <path d="M28.4899 26.9587C28.4899 28.4686 28.4899 29.7873 28.4899 31.1061C28.4899 32.119 28.4899 33.132 28.4899 34.1449C28.4899 34.3934 28.5282 34.6418 28.2224 34.7565C25.2791 35.8841 22.3741 35.7694 19.3926 34.4125C22.4314 31.9279 25.3938 29.5007 28.4899 26.9587Z" fill="white"/>
  <path d="M28.9781 14.1392C28.0417 14.9037 27.1816 15.6299 26.3024 16.3371C24.3912 17.9043 22.4991 19.4523 20.5879 21.0004C20.4159 21.1342 20.263 21.4018 20.0528 21.3253C19.8043 21.2298 19.919 20.9431 19.919 20.7329C19.919 18.6496 19.919 16.5473 19.919 14.4641C19.919 14.1392 19.8999 13.8525 20.3204 13.7187C23.1681 12.7058 25.9584 12.7822 28.7297 13.9863C28.787 14.0054 28.8444 14.0627 28.9781 14.1392Z" fill="white"/>
</svg>